SplineFontDB: 3.0
FontName: TextMeOne-Regular
FullName: Text Me One
FamilyName: Text Me One
Weight: Book
Copyright: Copyright (c) 2012, Julia Petretta (julia.petretta@googlemail.com), with Reserved Font Name 'Text Me'
Version: 1.002
ItalicAngle: 0
UnderlinePosition: -50
UnderlineWidth: 50
Ascent: 800
Descent: 200
sfntRevision: 0x00010083
LayerCount: 2
Layer: 0 1 "Back"  1
Layer: 1 1 "Fore"  0
XUID: [1021 453 1310736302 11033089]
FSType: 0
OS2Version: 3
OS2_WeightWidthSlopeOnly: 0
OS2_UseTypoMetrics: 1
CreationTime: 1350640860
ModificationTime: 1351749402
PfmFamily: 81
TTFWeight: 400
TTFWidth: 5
LineGap: 0
VLineGap: 0
Panose: 0 0 0 0 0 0 0 0 0 0
OS2TypoAscent: 952
OS2TypoAOffset: 0
OS2TypoDescent: -269
OS2TypoDOffset: 0
OS2TypoLinegap: 0
OS2WinAscent: 952
OS2WinAOffset: 0
OS2WinDescent: 269
OS2WinDOffset: 0
HheadAscent: 952
HheadAOffset: 0
HheadDescent: -269
HheadDOffset: 0
OS2SubXSize: 650
OS2SubYSize: 600
OS2SubXOff: 0
OS2SubYOff: 75
OS2SupXSize: 650
OS2SupYSize: 600
OS2SupXOff: 0
OS2SupYOff: 350
OS2StrikeYSize: 50
OS2StrikeYPos: 300
OS2Vendor: 'pyrs'
OS2CodePages: 20000001.00000000
OS2UnicodeRanges: 800000af.4000204a.00000000.00000000
Lookup: 1 0 0 "'aalt' Access All Alternates lookup 0"  {"'aalt' Access All Alternates lookup 0 subtable"  } ['aalt' ('DFLT' <'dflt' > 'grek' <'dflt' > 'latn' <'dflt' > ) ]
Lookup: 3 0 0 "'aalt' Access All Alternates lookup 1"  {"'aalt' Access All Alternates lookup 1 subtable"  } ['aalt' ('DFLT' <'dflt' > 'grek' <'dflt' > 'latn' <'dflt' > ) ]
Lookup: 1 0 0 "'sups' Superscript lookup 2"  {"'sups' Superscript lookup 2 subtable" ("superior" ) } ['sups' ('DFLT' <'dflt' > 'grek' <'dflt' > 'latn' <'dflt' > ) ]
Lookup: 1 0 0 "'numr' Numerators lookup 3"  {"'numr' Numerators lookup 3 subtable"  } ['numr' ('DFLT' <'dflt' > 'grek' <'dflt' > 'latn' <'dflt' > ) ]
Lookup: 1 0 0 "'dnom' Denominators lookup 4"  {"'dnom' Denominators lookup 4 subtable"  } ['dnom' ('DFLT' <'dflt' > 'grek' <'dflt' > 'latn' <'dflt' > ) ]

StartChar: exclam
Encoding: 33 33 5
Width: 214
GlyphClass: 2
Flags: W
LayerCount: 2
Fore
SplineSet
102 700 m 2,0,-1
 112 700 l 2,1,2
 120 700 120 700 126 694.5 c 128,-1,3
 132 689 132 689 132 681 c 2,4,-1
 132 202 l 2,5,6
 132 194 132 194 126 188.5 c 128,-1,7
 120 183 120 183 112 183 c 2,8,-1
 102 183 l 2,9,10
 83 183 83 183 83 202 c 2,11,-1
 83 681 l 2,12,13
 83 700 83 700 102 700 c 2,0,-1
106 111 m 128,-1,15
 142 111 142 111 153 101.5 c 128,-1,16
 164 92 164 92 164 62 c 2,17,-1
 164 49 l 2,18,19
 164 15 164 15 153 6 c 128,-1,20
 142 -3 142 -3 106 -3 c 128,-1,21
 70 -3 70 -3 60 6 c 128,-1,22
 50 15 50 15 50 49 c 2,23,-1
 50 62 l 2,24,25
 50 94 50 94 60 102.5 c 128,-1,14
 70 111 70 111 106 111 c 128,-1,15
124.5 72.5 m 128,-1,27
 120 76 120 76 106.5 76 c 128,-1,28
 93 76 93 76 89 73 c 128,-1,29
 85 70 85 70 85 59 c 2,30,-1
 85 49 l 2,31,32
 85 38 85 38 89 35 c 128,-1,33
 93 32 93 32 107 32 c 128,-1,34
 121 32 121 32 125 35 c 128,-1,35
 129 38 129 38 129 49 c 2,36,-1
 129 59 l 2,37,26
 129 69 129 69 124.5 72.5 c 128,-1,27
EndSplineSet
EndChar

StartChar: quotedbl
Encoding: 34 34 6
Width: 193
GlyphClass: 2
Flags: W
LayerCount: 2
Fore
SplineSet
132 730 m 2,0,-1
 143 730 l 2,1,2
 162 730 162 730 162 711 c 2,3,-1
 162 571 l 2,4,5
 162 552 162 552 143 552 c 2,6,-1
 132 552 l 2,7,8
 113 552 113 552 113 571 c 2,9,-1
 113 711 l 2,10,11
 113 730 113 730 132 730 c 2,0,-1
54 730 m 2,12,-1
 64 730 l 2,13,14
 84 730 84 730 84 711 c 2,15,-1
 84 571 l 2,16,17
 84 552 84 552 64 552 c 2,18,-1
 54 552 l 2,19,20
 35 552 35 552 35 571 c 2,21,-1
 35 711 l 2,22,23
 35 730 35 730 54 730 c 2,12,-1
EndSplineSet
EndChar

StartChar: numbersign
Encoding: 35 35 7
Width: 601
GlyphClass: 2
Flags: W
LayerCount: 2
Fore
SplineSet
116 501 m 2,0,-1
 244 501 l 1,1,-1
 315 687 l 1,2,3
 322 700 322 700 333 700 c 2,4,-1
 344 700 l 2,5,6
 355 700 355 700 361 692 c 128,-1,7
 367 684 367 684 363 674 c 2,8,-1
 297 501 l 1,9,-1
 425 501 l 1,10,-1
 497 687 l 1,11,12
 504 700 504 700 515 700 c 2,13,-1
 526 700 l 2,14,15
 536 700 536 700 542 692 c 128,-1,16
 548 684 548 684 544 674 c 2,17,-1
 478 501 l 1,18,-1
 556 501 l 2,19,20
 575 501 575 501 575 481 c 2,21,-1
 575 472 l 2,22,23
 575 452 575 452 556 452 c 2,24,-1
 459 452 l 1,25,-1
 389 268 l 1,26,-1
 492 268 l 2,27,28
 500 268 500 268 505.5 262 c 128,-1,29
 511 256 511 256 511 248 c 2,30,-1
 511 239 l 2,31,32
 511 231 511 231 505.5 225 c 128,-1,33
 500 219 500 219 492 219 c 2,34,-1
 370 219 l 1,35,-1
 292 13 l 1,36,37
 286 0 286 0 272 0 c 2,38,-1
 261 0 l 2,39,40
 251 0 251 0 247 8 c 128,-1,41
 243 16 243 16 246 26 c 2,42,-1
 319 219 l 1,43,-1
 189 219 l 1,44,-1
 111 13 l 1,45,46
 105 0 105 0 92 0 c 2,47,-1
 82 0 l 2,48,49
 71 0 71 0 66 8 c 128,-1,50
 61 16 61 16 64 26 c 2,51,-1
 138 219 l 1,52,-1
 51 219 l 2,53,54
 43 219 43 219 37.5 225 c 128,-1,55
 32 231 32 231 32 239 c 2,56,-1
 32 248 l 2,57,58
 32 256 32 256 37.5 262 c 128,-1,59
 43 268 43 268 51 268 c 2,60,-1
 156 268 l 1,61,-1
 226 452 l 1,62,-1
 116 452 l 2,63,64
 108 452 108 452 102.5 458 c 128,-1,65
 97 464 97 464 97 472 c 2,66,-1
 97 481 l 2,67,68
 97 489 97 489 102.5 495 c 128,-1,69
 108 501 108 501 116 501 c 2,0,-1
337 268 m 1,70,-1
 407 452 l 1,71,-1
 278 452 l 1,72,-1
 208 268 l 1,73,-1
 337 268 l 1,70,-1
EndSplineSet
EndChar

StartChar: dollar
Encoding: 36 36 8
Width: 561
GlyphClass: 2
Flags: W
LayerCount: 2
Fore
SplineSet
261 730 m 2,0,-1
 273 730 l 2,1,2
 292 730 292 730 292 711 c 2,3,-1
 292 699 l 1,4,5
 366 692 366 692 415.5 643.5 c 128,-1,6
 465 595 465 595 469 513 c 0,7,8
 469 505 469 505 463.5 499 c 128,-1,9
 458 493 458 493 450 493 c 2,10,-1
 441 493 l 2,11,12
 422 493 422 493 421 516 c 0,13,14
 417 575 417 575 382 609 c 128,-1,15
 347 643 347 643 292 649 c 1,16,-1
 292 372 l 1,17,18
 299 368 299 368 313 362 c 0,19,20
 391 325 391 325 432 281.5 c 128,-1,21
 473 238 473 238 473 173.5 c 128,-1,22
 473 109 473 109 426.5 60 c 128,-1,23
 380 11 380 11 292 1 c 1,24,-1
 292 -102 l 2,25,26
 292 -110 292 -110 286.5 -116 c 128,-1,27
 281 -122 281 -122 273 -122 c 2,28,-1
 261 -122 l 2,29,30
 253 -122 253 -122 247.5 -116 c 128,-1,31
 242 -110 242 -110 242 -102 c 2,32,-1
 242 -1 l 1,33,34
 162 2 162 2 102 49.5 c 128,-1,35
 42 97 42 97 39 196 c 0,36,37
 39 204 39 204 44.5 210.5 c 128,-1,38
 50 217 50 217 58 217 c 2,39,-1
 67 217 l 2,40,41
 87 217 87 217 87 201 c 0,42,43
 87 159 87 159 102 127.5 c 128,-1,44
 117 96 117 96 142 80 c 0,45,46
 189 49 189 49 242 47 c 1,47,-1
 242 339 l 1,48,49
 149 386 149 386 108 428.5 c 128,-1,50
 67 471 67 471 67 535.5 c 128,-1,51
 67 600 67 600 113 646 c 128,-1,52
 159 692 159 692 242 699 c 1,53,-1
 242 711 l 2,54,55
 242 730 242 730 261 730 c 2,0,-1
292 314 m 2,56,-1
 292 49 l 1,57,58
 358 57 358 57 391 90 c 128,-1,59
 424 123 424 123 424 172 c 0,60,61
 424 226 424 226 382 260 c 0,62,63
 350 285 350 285 321 299 c 128,-1,64
 292 313 292 313 292 314 c 2,56,-1
150.5 611 m 128,-1,66
 119 579 119 579 119 535.5 c 128,-1,67
 119 492 119 492 150.5 459.5 c 128,-1,68
 182 427 182 427 242 396 c 1,69,-1
 242 649 l 1,70,65
 182 643 182 643 150.5 611 c 128,-1,66
EndSplineSet
EndChar

StartChar: percent
Encoding: 37 37 9
Width: 608
GlyphClass: 2
Flags: W
LayerCount: 2
Fore
SplineSet
371 732 m 2,0,-1
 383 732 l 2,1,2
 394 732 394 732 399 725.5 c 128,-1,3
 404 719 404 719 402 709 c 2,4,-1
 271 -4 l 2,5,6
 268 -20 268 -20 252 -20 c 2,7,-1
 242 -20 l 2,8,9
 232 -20 232 -20 226.5 -13.5 c 128,-1,10
 221 -7 221 -7 222 3 c 2,11,-1
 351 716 l 2,12,13
 354 732 354 732 371 732 c 2,0,-1
355 208 m 2,14,15
 355 311 355 311 456.5 311 c 128,-1,16
 558 311 558 311 558 208 c 2,17,-1
 558 103 l 2,18,19
 558 0 558 0 456.5 0 c 128,-1,20
 355 0 355 0 355 103 c 2,21,-1
 355 208 l 2,14,15
510 214 m 2,22,23
 510 263 510 263 456.5 263 c 128,-1,24
 403 263 403 263 403 214 c 2,25,-1
 403 97 l 2,26,27
 403 48 403 48 456.5 48 c 128,-1,28
 510 48 510 48 510 97 c 2,29,-1
 510 214 l 2,22,23
50 597 m 2,30,31
 50 700 50 700 151.5 700 c 128,-1,32
 253 700 253 700 253 597 c 2,33,-1
 253 492 l 2,34,35
 253 389 253 389 151.5 389 c 128,-1,36
 50 389 50 389 50 492 c 2,37,-1
 50 597 l 2,30,31
205 603 m 2,38,39
 205 652 205 652 151.5 652 c 128,-1,40
 98 652 98 652 98 603 c 2,41,-1
 98 486 l 2,42,43
 98 437 98 437 151.5 437 c 128,-1,44
 205 437 205 437 205 486 c 2,45,-1
 205 603 l 2,38,39
EndSplineSet
EndChar

StartChar: ampersand
Encoding: 38 38 10
Width: 561
GlyphClass: 2
Flags: W
LayerCount: 2
Fore
SplineSet
128.5 657.5 m 128,-1,1
 168 700 168 700 238.5 700 c 128,-1,2
 309 700 309 700 351 658.5 c 128,-1,3
 393 617 393 617 393 557 c 0,4,5
 393 457 393 457 262 374 c 1,6,-1
 256 374 l 1,7,-1
 236 404 l 1,8,-1
 235 408 l 1,9,-1
 236 410 l 1,10,11
 284 439 284 439 306 461 c 0,12,13
 346 502 346 502 346 550 c 128,-1,14
 346 598 346 598 318 625.5 c 128,-1,15
 290 653 290 653 243 653 c 128,-1,16
 196 653 196 653 167.5 627 c 128,-1,17
 139 601 139 601 139 552 c 128,-1,18
 139 503 139 503 217 395 c 2,19,-1
 488 15 l 2,20,21
 498 0 498 0 483 0 c 2,22,-1
 436 1 l 2,23,24
 428 1 428 1 423 9.5 c 128,-1,25
 418 18 418 18 412.5 27 c 128,-1,26
 407 36 407 36 360.5 101 c 128,-1,27
 314 166 314 166 256.5 245.5 c 128,-1,28
 199 325 199 325 175 360 c 0,29,30
 89 485 89 485 89 550 c 128,-1,0
 89 615 89 615 128.5 657.5 c 128,-1,1
97 216 m 2,31,-1
 97 168 l 2,32,33
 97 43 97 43 245 43 c 0,34,35
 299 43 299 43 343 60 c 0,36,37
 351 63 351 63 355 58 c 2,38,-1
 377 31 l 2,39,40
 382 25 382 25 376 23 c 0,41,42
 318 -3 318 -3 245 -3 c 0,43,44
 50 -3 50 -3 50 169 c 2,45,-1
 50 208 l 2,46,47
 50 234 50 234 51.5 242 c 128,-1,48
 53 250 53 250 54.5 261 c 128,-1,49
 56 272 56 272 58.5 278 c 128,-1,50
 61 284 61 284 64 292 c 0,51,52
 69 303 69 303 85 319 c 1,53,54
 98 330 98 330 147 358 c 0,55,56
 155 362 155 362 158 358 c 2,57,-1
 177 330 l 1,58,59
 180 328 180 328 177 326 c 0,60,61
 120 297 120 297 108 272 c 0,62,63
 97 249 97 249 97 216 c 2,31,-1
332 369 m 2,64,-1
 495 369 l 2,65,66
 507 369 507 369 507 349 c 2,67,-1
 507 340 l 2,68,69
 507 321 507 321 495 321 c 2,70,-1
 332 321 l 2,71,72
 320 321 320 321 320 340 c 2,73,-1
 320 349 l 2,74,75
 320 369 320 369 332 369 c 2,64,-1
EndSplineSet
EndChar

StartChar: quotesingle
Encoding: 39 39 11
Width: 140
GlyphClass: 2
Flags: W
LayerCount: 2
Fore
SplineSet
64 730 m 2,0,-1
 74 730 l 2,1,2
 93 730 93 730 93 711 c 2,3,-1
 93 571 l 2,4,5
 93 552 93 552 74 552 c 2,6,-1
 64 552 l 2,7,8
 56 552 56 552 50 557.5 c 128,-1,9
 44 563 44 563 44 571 c 2,10,-1
 44 711 l 2,11,12
 44 719 44 719 50 724.5 c 128,-1,13
 56 730 56 730 64 730 c 2,0,-1
EndSplineSet
EndChar

StartChar: parenleft
Encoding: 40 40 12
Width: 327
GlyphClass: 2
Flags: W
LayerCount: 2
Fore
SplineSet
293 690 m 0,0,1
 301 690 301 690 306.5 684 c 128,-1,2
 312 678 312 678 312 670 c 2,3,-1
 312 661 l 2,4,5
 312 653 312 653 306.5 647 c 128,-1,6
 301 641 301 641 293 641 c 0,7,8
 220 641 220 641 162 590 c 0,9,10
 130 561 130 561 110.5 497.5 c 128,-1,11
 91 434 91 434 91 343 c 0,12,13
 91 47 91 47 295 47 c 0,14,15
 314 47 314 47 314 28 c 2,16,-1
 314 19 l 2,17,18
 314 -1 314 -1 295 -1 c 0,19,20
 43 -1 43 -1 43 344.5 c 128,-1,21
 43 690 43 690 293 690 c 0,0,1
EndSplineSet
EndChar

StartChar: parenright
Encoding: 41 41 13
Width: 362
GlyphClass: 2
Flags: W
LayerCount: 2
Fore
SplineSet
64 690 m 0,0,1
 314 690 314 690 314 344.5 c 128,-1,2
 314 -1 314 -1 62 -1 c 0,3,4
 43 -1 43 -1 43 19 c 2,5,-1
 43 28 l 2,6,7
 43 47 43 47 62 47 c 0,8,9
 266 47 266 47 266 343 c 0,10,11
 266 546 266 546 170 610 c 0,12,13
 124 641 124 641 64 641 c 0,14,15
 56 641 56 641 50.5 647 c 128,-1,16
 45 653 45 653 45 661 c 2,17,-1
 45 670 l 2,18,19
 45 678 45 678 50.5 684 c 128,-1,20
 56 690 56 690 64 690 c 0,0,1
EndSplineSet
EndChar

StartChar: asterisk
Encoding: 42 42 14
Width: 354
GlyphClass: 2
Flags: W
LayerCount: 2
Fore
SplineSet
107 510 m 1,0,1
 98 503 98 503 91 503 c 128,-1,2
 84 503 84 503 73 518 c 1,3,-1
 73 517 l 1,4,5
 61 529 61 529 73 545 c 1,6,-1
 111 581 l 1,7,-1
 59 581 l 2,8,9
 51 581 51 581 45.5 587 c 128,-1,10
 40 593 40 593 40 601 c 2,11,-1
 40 610 l 2,12,13
 40 629 40 629 59 629 c 2,14,-1
 108 629 l 1,15,-1
 72 665 l 2,16,17
 60 677 60 677 72 693 c 1,18,-1
 79 699 l 1,19,20
 91 711 91 711 107 699 c 1,21,-1
 144 660 l 1,22,-1
 144 711 l 2,23,24
 144 719 144 719 150 724.5 c 128,-1,25
 156 730 156 730 164 730 c 2,26,-1
 173 730 l 2,27,28
 181 730 181 730 187 724.5 c 128,-1,29
 193 719 193 719 193 711 c 2,30,-1
 193 660 l 1,31,-1
 230 697 l 2,32,33
 238 704 238 704 246 704 c 0,34,35
 252 704 252 704 264 691 c 1,36,37
 276 675 276 675 264 663 c 2,38,-1
 229 629 l 1,39,-1
 278 629 l 2,40,41
 297 629 297 629 297 610 c 2,42,-1
 297 601 l 2,43,44
 297 593 297 593 291.5 587 c 128,-1,45
 286 581 286 581 278 581 c 2,46,-1
 222 581 l 1,47,-1
 261 540 l 2,48,49
 268 532 268 532 268 524 c 0,50,51
 268 518 268 518 255 506 c 1,52,53
 239 494 239 494 227 506 c 2,54,-1
 193 541 l 1,55,-1
 193 495 l 2,56,57
 193 487 193 487 187 481.5 c 128,-1,58
 181 476 181 476 173 476 c 2,59,-1
 164 476 l 2,60,61
 156 476 156 476 150 481.5 c 128,-1,62
 144 487 144 487 144 495 c 2,63,-1
 144 547 l 1,64,-1
 107 510 l 1,0,1
183 599 m 1,65,-1
 183 607 l 1,66,-1
 175 616 l 2,67,68
 174 616 174 616 174 617 c 1,69,-1
 163 617 l 1,70,-1
 155 609 l 1,71,-1
 155 600 l 1,72,-1
 164 590 l 1,73,-1
 173 590 l 1,74,-1
 183 599 l 1,65,-1
EndSplineSet
EndChar

StartChar: plus
Encoding: 43 43 15
Width: 479
GlyphClass: 2
Flags: W
LayerCount: 2
Fore
SplineSet
45 366 m 2,0,-1
 216 366 l 1,1,-1
 216 538 l 2,2,3
 216 557 216 557 235 557 c 2,4,-1
 243 557 l 1,5,6
 262 555 262 555 264 538 c 1,7,-1
 264 366 l 1,8,-1
 435 366 l 2,9,10
 454 366 454 366 454 347 c 2,11,-1
 454 338 l 2,12,13
 454 330 454 330 448.5 324 c 128,-1,14
 443 318 443 318 435 318 c 2,15,-1
 264 318 l 1,16,-1
 264 147 l 1,17,18
 262 127 262 127 244 127 c 2,19,-1
 234 127 l 1,20,21
 216 129 216 129 216 147 c 2,22,-1
 216 318 l 1,23,-1
 45 318 l 2,24,25
 36 318 36 318 30.5 324 c 128,-1,26
 25 330 25 330 25 338 c 2,27,-1
 25 347 l 2,28,29
 25 366 25 366 45 366 c 2,0,-1
EndSplineSet
EndChar

StartChar: comma
Encoding: 44 44 16
Width: 109
GlyphClass: 2
Flags: W
LayerCount: 2
Fore
SplineSet
78 139 m 2,0,-1
 91 139 l 2,1,2
 110 139 110 139 107 120 c 1,3,4
 90 44 90 44 50 -123 c 0,5,6
 47 -136 47 -136 31 -136 c 2,7,-1
 19 -136 l 2,8,9
 -1 -136 -1 -136 2 -117 c 1,10,-1
 59 126 l 2,11,12
 63 139 63 139 78 139 c 2,0,-1
EndSplineSet
EndChar

StartChar: hyphen
Encoding: 45 45 17
Width: 351
GlyphClass: 2
Flags: W
LayerCount: 2
Fore
SplineSet
51 346 m 2,0,-1
 300 346 l 2,1,2
 320 346 320 346 320 327 c 2,3,-1
 320 317 l 2,4,5
 320 298 320 298 300 298 c 2,6,-1
 51 298 l 2,7,8
 31 298 31 298 31 317 c 2,9,-1
 31 327 l 2,10,11
 31 346 31 346 51 346 c 2,0,-1
EndSplineSet
EndChar

StartChar: period
Encoding: 46 46 18
Width: 200
GlyphClass: 2
Flags: W
LayerCount: 2
Fore
SplineSet
97 111 m 128,-1,1
 133 111 133 111 144 101.5 c 128,-1,2
 155 92 155 92 155 62 c 2,3,-1
 155 49 l 2,4,5
 155 15 155 15 144 6 c 128,-1,6
 133 -3 133 -3 97 -3 c 128,-1,7
 61 -3 61 -3 51 6 c 128,-1,8
 41 15 41 15 41 49 c 2,9,-1
 41 62 l 2,10,11
 41 94 41 94 51 102.5 c 128,-1,0
 61 111 61 111 97 111 c 128,-1,1
115.5 72.5 m 128,-1,13
 111 76 111 76 97.5 76 c 128,-1,14
 84 76 84 76 80 73 c 128,-1,15
 76 70 76 70 76 59 c 2,16,-1
 76 49 l 2,17,18
 76 38 76 38 80 35 c 128,-1,19
 84 32 84 32 98 32 c 128,-1,20
 112 32 112 32 116 35 c 128,-1,21
 120 38 120 38 120 49 c 2,22,-1
 120 59 l 2,23,12
 120 69 120 69 115.5 72.5 c 128,-1,13
EndSplineSet
EndChar

StartChar: slash
Encoding: 47 47 19
Width: 303
GlyphClass: 2
Flags: W
LayerCount: 2
Fore
SplineSet
283 699 m 2,0,1
 300 699 300 699 300 682 c 0,2,3
 300 678 300 678 298 673 c 2,4,-1
 37 13 l 1,5,6
 29 0 29 0 22 0 c 2,7,-1
 10 0 l 2,8,9
 -1 0 -1 0 -6 6.5 c 128,-1,10
 -11 13 -11 13 -11 17.5 c 128,-1,11
 -11 22 -11 22 -9 26 c 2,12,-1
 251 686 l 1,13,14
 258 699 258 699 270 699 c 2,15,-1
 283 699 l 2,0,1
EndSplineSet
EndChar

StartChar: zero
Encoding: 48 48 20
Width: 522
GlyphClass: 2
Flags: W
LayerCount: 2
Fore
SplineSet
245 700 m 2,0,-1
 257 700 l 2,1,2
 339 700 339 700 395 654 c 128,-1,3
 451 608 451 608 451 510 c 2,4,-1
 451 201 l 2,5,6
 451 101 451 101 397 50.5 c 128,-1,7
 343 0 343 0 254 -2 c 1,8,-1
 248 -2 l 1,9,10
 158 0 158 0 104 50.5 c 128,-1,11
 50 101 50 101 50 201 c 2,12,-1
 50 510 l 2,13,14
 50 576 50 576 79 620 c 0,15,16
 131 700 131 700 245 700 c 2,0,-1
259 652 m 2,17,-1
 243 652 l 2,18,19
 184 652 184 652 142 619.5 c 128,-1,20
 100 587 100 587 100 507 c 2,21,-1
 100 202 l 2,22,23
 100 46 100 46 245 46 c 2,24,-1
 257 46 l 2,25,26
 402 46 402 46 402 202 c 2,27,-1
 402 507 l 2,28,29
 402 587 402 587 360 619.5 c 128,-1,30
 318 652 318 652 259 652 c 2,17,-1
EndSplineSet
EndChar

StartChar: one
Encoding: 49 49 21
Width: 383
GlyphClass: 2
Flags: W
LayerCount: 2
Fore
SplineSet
274 657 m 2,0,-1
 274 21 l 2,1,2
 274 5 274 5 273 2.5 c 128,-1,3
 272 0 272 0 263 0 c 2,4,-1
 234 0 l 2,5,6
 227 0 227 0 225.5 3.5 c 128,-1,7
 224 7 224 7 224 13 c 2,8,-1
 224 641 l 1,9,-1
 52 505 l 2,10,11
 39 495 39 495 30 507 c 2,12,-1
 21 518 l 2,13,14
 17 523 17 523 17 529 c 128,-1,15
 17 535 17 535 26 542 c 2,16,-1
 198 682 l 2,17,18
 221 700 221 700 244 700 c 2,19,-1
 246 700 l 1,20,21
 274 699 274 699 274 657 c 2,0,-1
EndSplineSet
Substitution2: "'numr' Numerators lookup 3 subtable" one.numr
Substitution2: "'sups' Superscript lookup 2 subtable" onesuperior
AlternateSubs2: "'aalt' Access All Alternates lookup 1 subtable" onesuperior one.numr
EndChar

StartChar: two
Encoding: 50 50 22
Width: 500
GlyphClass: 2
Flags: W
LayerCount: 2
Fore
SplineSet
245 700 m 0,0,1
 332 700 332 700 379 654.5 c 128,-1,2
 426 609 426 609 426 534 c 0,3,4
 426 492 426 492 400 437.5 c 128,-1,5
 374 383 374 383 349 348 c 0,6,7
 291 265 291 265 193 152 c 1,8,-1
 163 116 l 2,9,10
 138 86 138 86 124.5 68 c 128,-1,11
 111 50 111 50 108 47 c 1,12,13
 110 48 110 48 114 48 c 2,14,-1
 421 48 l 2,15,16
 441 48 441 48 441 29 c 2,17,-1
 441 20 l 2,18,19
 441 0 441 0 421 0 c 2,20,-1
 113 0 l 2,21,22
 97 0 97 0 87.5 2 c 128,-1,23
 78 4 78 4 68.5 15.5 c 128,-1,24
 59 27 59 27 59 47.5 c 128,-1,25
 59 68 59 68 102 122 c 1,26,-1
 144 170 l 2,27,28
 153 181 153 181 164 194 c 0,29,30
 190 224 190 224 211 251 c 1,31,-1
 238 283 l 2,32,33
 244 291 244 291 262.5 314.5 c 128,-1,34
 281 338 281 338 288 347 c 128,-1,35
 295 356 295 356 310.5 377 c 128,-1,36
 326 398 326 398 332.5 409.5 c 128,-1,37
 339 421 339 421 349.5 439.5 c 128,-1,38
 360 458 360 458 365 471 c 0,39,40
 377 502 377 502 377 529 c 0,41,42
 377 592 377 592 338 622 c 128,-1,43
 299 652 299 652 245 652 c 0,44,45
 149 652 149 652 112 562 c 0,46,47
 106 550 106 550 94 550 c 2,48,-1
 85 550 l 2,49,50
 65 550 65 550 65 568 c 0,51,52
 65 573 65 573 66 575 c 0,53,54
 86 634 86 634 134.5 667 c 128,-1,55
 183 700 183 700 245 700 c 0,0,1
EndSplineSet
Substitution2: "'dnom' Denominators lookup 4 subtable" two.dnom
Substitution2: "'sups' Superscript lookup 2 subtable" twosuperior
AlternateSubs2: "'aalt' Access All Alternates lookup 1 subtable" twosuperior two.dnom
EndChar

StartChar: three
Encoding: 51 51 23
Width: 535
GlyphClass: 2
Flags: W
LayerCount: 2
Fore
SplineSet
54 154 m 0,0,1
 52 163 52 163 52 168.5 c 128,-1,2
 52 174 52 174 62 174 c 2,3,-1
 92 176 l 1,4,-1
 96 176 l 2,5,6
 99 176 99 176 101 165 c 0,7,8
 132 49 132 49 254 49 c 0,9,10
 321 49 321 49 364 84 c 128,-1,11
 407 119 407 119 407 187.5 c 128,-1,12
 407 256 407 256 363.5 298.5 c 128,-1,13
 320 341 320 341 233 341 c 2,14,-1
 174 341 l 2,15,16
 164 341 164 341 162.5 343 c 128,-1,17
 161 345 161 345 161 352 c 2,18,-1
 161 366 l 2,19,20
 161 368 161 368 161 374.5 c 128,-1,21
 161 381 161 381 162 384 c 0,22,23
 163 389 163 389 175 389 c 2,24,-1
 231 389 l 2,25,26
 310 389 310 389 352.5 422.5 c 128,-1,27
 395 456 395 456 395 513 c 128,-1,28
 395 570 395 570 356.5 611 c 128,-1,29
 318 652 318 652 250 652 c 0,30,31
 206 652 206 652 170.5 631 c 128,-1,32
 135 610 135 610 127 566 c 0,33,34
 126 559 126 559 119 559 c 2,35,-1
 86 559 l 2,36,37
 77 559 77 559 80 576 c 0,38,39
 89 629 89 629 136.5 664.5 c 128,-1,40
 184 700 184 700 250 700 c 0,41,42
 344 700 344 700 393.5 646.5 c 128,-1,43
 443 593 443 593 443 515 c 0,44,45
 443 466 443 466 417.5 425.5 c 128,-1,46
 392 385 392 385 340 365 c 1,47,48
 401 345 401 345 429 299 c 128,-1,49
 457 253 457 253 457 198 c 128,-1,50
 457 143 457 143 438 104 c 128,-1,51
 419 65 419 65 388 43 c 0,52,53
 329 0 329 0 249.5 0 c 128,-1,54
 170 0 170 0 120 41 c 128,-1,55
 70 82 70 82 54 154 c 0,0,1
EndSplineSet
Substitution2: "'numr' Numerators lookup 3 subtable" three.numr
Substitution2: "'sups' Superscript lookup 2 subtable" threesuperior
AlternateSubs2: "'aalt' Access All Alternates lookup 1 subtable" threesuperior three.numr
EndChar

StartChar: four
Encoding: 52 52 24
Width: 555
GlyphClass: 2
Flags: W
LayerCount: 2
Fore
SplineSet
343 700 m 0,0,1
 382 700 382 700 382 657 c 2,2,-1
 382 272 l 1,3,-1
 496 272 l 2,4,5
 514 272 514 272 514 253 c 2,6,-1
 514 244 l 2,7,8
 514 224 514 224 496 224 c 2,9,-1
 382 224 l 1,10,-1
 382 20 l 2,11,12
 382 0 382 0 362 0 c 2,13,-1
 353 0 l 2,14,15
 334 0 334 0 334 20 c 2,16,-1
 334 224 l 1,17,-1
 76 224 l 2,18,19
 43 224 43 224 35 246 c 0,20,21
 33 252 33 252 33 261 c 128,-1,22
 33 270 33 270 42 282 c 2,23,-1
 302 672 l 2,24,25
 321 700 321 700 343 700 c 0,0,1
334 272 m 1,26,-1
 334 635 l 1,27,28
 301 586 301 586 220 461 c 128,-1,29
 139 336 139 336 94 272 c 1,30,-1
 334 272 l 1,26,-1
EndSplineSet
Substitution2: "'dnom' Denominators lookup 4 subtable" four.dnom
Substitution2: "'aalt' Access All Alternates lookup 0 subtable" four.dnom
EndChar

StartChar: five
Encoding: 53 53 25
Width: 568
GlyphClass: 2
Flags: W
LayerCount: 2
Fore
SplineSet
68 131 m 0,0,1
 68 149 68 149 85 149 c 2,2,-1
 98 149 l 2,3,4
 110 149 110 149 116 137 c 1,5,6
 136 88 136 88 177 66.5 c 128,-1,7
 218 45 218 45 264 45 c 0,8,9
 337 45 337 45 383.5 87.5 c 128,-1,10
 430 130 430 130 430 214 c 2,11,-1
 430 227 l 2,12,13
 430 320 430 320 414 352 c 0,14,15
 404 371 404 371 389 391 c 0,16,17
 359 431 359 431 284 431 c 0,18,19
 258 431 258 431 236 424.5 c 128,-1,20
 214 418 214 418 207 414 c 128,-1,21
 200 410 200 410 187.5 401.5 c 128,-1,22
 175 393 175 393 165 385 c 128,-1,23
 155 377 155 377 150 373 c 0,24,25
 136 363 136 363 123 363 c 0,26,27
 87 363 87 363 87 407 c 2,28,-1
 87 661 l 2,29,30
 87 697 87 697 118 700 c 0,31,32
 124 700 124 700 137 700 c 2,33,-1
 440 700 l 2,34,35
 448 700 448 700 454 694.5 c 128,-1,36
 460 689 460 689 460 681 c 2,37,-1
 460 671 l 2,38,39
 460 663 460 663 454 657.5 c 128,-1,40
 448 652 448 652 440 652 c 2,41,-1
 136 652 l 1,42,-1
 136 417 l 1,43,44
 150 434 150 434 193.5 457 c 128,-1,45
 237 480 237 480 280.5 480 c 128,-1,46
 324 480 324 480 356 469.5 c 128,-1,47
 388 459 388 459 408 444.5 c 128,-1,48
 428 430 428 430 442.5 404.5 c 128,-1,49
 457 379 457 379 463.5 360 c 128,-1,50
 470 341 470 341 474 310.5 c 128,-1,51
 478 280 478 280 478 266 c 2,52,-1
 478 215 l 2,53,54
 478 104 478 104 417 50 c 128,-1,55
 356 -4 356 -4 264 -4 c 0,56,57
 203 -4 203 -4 148.5 28 c 128,-1,58
 94 60 94 60 69 123 c 0,59,60
 68 127 68 127 68 131 c 0,0,1
EndSplineSet
EndChar

StartChar: six
Encoding: 54 54 26
Width: 584
GlyphClass: 2
Flags: W
LayerCount: 2
Fore
SplineSet
142.5 648 m 128,-1,1
 198 700 198 700 280 700 c 128,-1,2
 362 700 362 700 412.5 666.5 c 128,-1,3
 463 633 463 633 478 571 c 1,4,5
 479 562 479 562 474 555.5 c 128,-1,6
 469 549 469 549 460 548 c 2,7,-1
 449 547 l 1,8,9
 434 547 434 547 430 562 c 0,10,11
 419 605 419 605 381 628.5 c 128,-1,12
 343 652 343 652 281.5 652 c 128,-1,13
 220 652 220 652 177.5 612.5 c 128,-1,14
 135 573 135 573 135 498 c 2,15,-1
 135 378 l 1,16,17
 164 405 164 405 206.5 422 c 128,-1,18
 249 439 249 439 291 439 c 0,19,20
 375 439 375 439 429 391 c 128,-1,21
 483 343 483 343 483 261 c 2,22,-1
 483 182 l 2,23,24
 483 103 483 103 428 50 c 128,-1,25
 373 -3 373 -3 287 -3 c 2,26,-1
 279 -3 l 2,27,28
 202 -3 202 -3 144.5 49.5 c 128,-1,29
 87 102 87 102 87 187 c 2,30,-1
 87 499 l 2,31,0
 87 596 87 596 142.5 648 c 128,-1,1
291 391 m 0,32,33
 208 391 208 391 135 320 c 1,34,-1
 135 190 l 2,35,36
 135 123 135 123 180 84.5 c 128,-1,37
 225 46 225 46 278 46 c 2,38,-1
 287 46 l 2,39,40
 349 46 349 46 392 84.5 c 128,-1,41
 435 123 435 123 435 182 c 2,42,-1
 435 260 l 2,43,44
 435 320 435 320 393 355.5 c 128,-1,45
 351 391 351 391 291 391 c 0,32,33
EndSplineSet
EndChar

StartChar: seven
Encoding: 55 55 27
Width: 454
GlyphClass: 2
Flags: W
LayerCount: 2
Fore
SplineSet
56 700 m 2,0,-1
 391 700 l 2,1,2
 427 700 427 700 427 668 c 1,3,4
 426 650 426 650 416 631 c 2,5,-1
 123 11 l 2,6,7
 118 0 118 0 105 0 c 2,8,-1
 93 0 l 2,9,10
 73 0 73 0 73 18 c 0,11,12
 73 22 73 22 75 28 c 2,13,-1
 372 651 l 1,14,-1
 56 651 l 2,15,16
 48 651 48 651 42 656.5 c 128,-1,17
 36 662 36 662 36 670 c 2,18,-1
 36 681 l 2,19,20
 36 689 36 689 42 694.5 c 128,-1,21
 48 700 48 700 56 700 c 2,0,-1
EndSplineSet
EndChar

StartChar: eight
Encoding: 56 56 28
Width: 563
GlyphClass: 2
Flags: W
LayerCount: 2
Fore
SplineSet
462 518 m 0,0,1
 462 468 462 468 440.5 425 c 128,-1,2
 419 382 419 382 371 361 c 1,3,4
 426 344 426 344 453.5 295 c 128,-1,5
 481 246 481 246 481 176 c 128,-1,6
 481 106 481 106 433.5 54.5 c 128,-1,7
 386 3 386 3 269 0 c 1,8,9
 60 5 60 5 60 182 c 0,10,11
 60 247 60 247 86 295.5 c 128,-1,12
 112 344 112 344 166 361 c 1,13,14
 79 399 79 399 79 518 c 0,15,16
 79 608 79 608 130 653 c 128,-1,17
 181 698 181 698 269 700 c 1,18,19
 358 698 358 698 410 653 c 128,-1,20
 462 608 462 608 462 518 c 0,0,1
269 333 m 0,21,22
 178 333 178 333 143.5 291.5 c 128,-1,23
 109 250 109 250 109 181.5 c 128,-1,24
 109 113 109 113 152.5 80.5 c 128,-1,25
 196 48 196 48 269.5 48 c 128,-1,26
 343 48 343 48 387.5 80.5 c 128,-1,27
 432 113 432 113 432 181 c 0,28,29
 432 333 432 333 269 333 c 0,21,22
165.5 616.5 m 128,-1,31
 127 583 127 583 127 520.5 c 128,-1,32
 127 458 127 458 161 419.5 c 128,-1,33
 195 381 195 381 269.5 381 c 128,-1,34
 344 381 344 381 379 418 c 128,-1,35
 414 455 414 455 414 518.5 c 128,-1,36
 414 582 414 582 374.5 616 c 128,-1,37
 335 650 335 650 269 652 c 1,38,30
 204 650 204 650 165.5 616.5 c 128,-1,31
EndSplineSet
EndChar

StartChar: nine
Encoding: 57 57 29
Width: 542
GlyphClass: 2
Flags: W
LayerCount: 2
Fore
SplineSet
264 700 m 2,0,-1
 271 700 l 2,1,2
 349 700 349 700 407 648 c 128,-1,3
 465 596 465 596 465 510 c 2,4,-1
 465 188 l 2,5,6
 465 93 465 93 410 46.5 c 128,-1,7
 355 0 355 0 265.5 0 c 128,-1,8
 176 0 176 0 122.5 44 c 128,-1,9
 69 88 69 88 69 169 c 2,10,-1
 69 181 l 2,11,12
 69 190 69 190 75 195.5 c 128,-1,13
 81 201 81 201 89 201 c 2,14,-1
 98 201 l 2,15,16
 106 201 106 201 112 195.5 c 128,-1,17
 118 190 118 190 118 181 c 2,18,-1
 118 171 l 2,19,20
 118 112 118 112 158.5 80.5 c 128,-1,21
 199 49 199 49 266.5 49 c 128,-1,22
 334 49 334 49 375.5 82.5 c 128,-1,23
 417 116 417 116 417 189 c 2,24,-1
 417 315 l 1,25,26
 358 258 358 258 271 258 c 128,-1,27
 184 258 184 258 126.5 305 c 128,-1,28
 69 352 69 352 69 433 c 2,29,-1
 69 515 l 2,30,31
 69 595 69 595 124 647.5 c 128,-1,32
 179 700 179 700 264 700 c 2,0,-1
272 652 m 2,33,-1
 264 652 l 2,34,35
 202 652 202 652 159.5 613.5 c 128,-1,36
 117 575 117 575 117 515 c 2,37,-1
 117 434 l 2,38,39
 117 375 117 375 162 340.5 c 128,-1,40
 207 306 207 306 273.5 306 c 128,-1,41
 340 306 340 306 417 374 c 1,42,-1
 417 507 l 2,43,44
 417 575 417 575 371.5 613.5 c 128,-1,45
 326 652 326 652 272 652 c 2,33,-1
EndSplineSet
EndChar

StartChar: colon
Encoding: 58 58 30
Width: 199
GlyphClass: 2
Flags: W
LayerCount: 2
Fore
SplineSet
96 441 m 128,-1,1
 132 441 132 441 143 431.5 c 128,-1,2
 154 422 154 422 154 392 c 2,3,-1
 154 379 l 2,4,5
 154 345 154 345 143 336 c 128,-1,6
 132 327 132 327 96 327 c 128,-1,7
 60 327 60 327 50 336 c 128,-1,8
 40 345 40 345 40 379 c 2,9,-1
 40 392 l 2,10,11
 40 424 40 424 50 432.5 c 128,-1,0
 60 441 60 441 96 441 c 128,-1,1
96 111 m 128,-1,13
 132 111 132 111 143 101.5 c 128,-1,14
 154 92 154 92 154 62 c 2,15,-1
 154 49 l 2,16,17
 154 15 154 15 143 6 c 128,-1,18
 132 -3 132 -3 96 -3 c 128,-1,19
 60 -3 60 -3 50 6 c 128,-1,20
 40 15 40 15 40 49 c 2,21,-1
 40 62 l 2,22,23
 40 94 40 94 50 102.5 c 128,-1,12
 60 111 60 111 96 111 c 128,-1,13
114.5 72.5 m 128,-1,25
 110 76 110 76 96.5 76 c 128,-1,26
 83 76 83 76 79 73 c 128,-1,27
 75 70 75 70 75 59 c 2,28,-1
 75 49 l 2,29,30
 75 38 75 38 79 35 c 128,-1,31
 83 32 83 32 97 32 c 128,-1,32
 111 32 111 32 115 35 c 128,-1,33
 119 38 119 38 119 49 c 2,34,-1
 119 59 l 2,35,24
 119 69 119 69 114.5 72.5 c 128,-1,25
114.5 402.5 m 128,-1,37
 110 406 110 406 96.5 406 c 128,-1,38
 83 406 83 406 79 403 c 128,-1,39
 75 400 75 400 75 389 c 2,40,-1
 75 379 l 2,41,42
 75 368 75 368 79 365 c 128,-1,43
 83 362 83 362 97 362 c 128,-1,44
 111 362 111 362 115 365 c 128,-1,45
 119 368 119 368 119 379 c 2,46,-1
 119 389 l 2,47,36
 119 399 119 399 114.5 402.5 c 128,-1,37
EndSplineSet
EndChar

StartChar: semicolon
Encoding: 59 59 31
Width: 171
GlyphClass: 2
Flags: W
LayerCount: 2
Fore
SplineSet
78 139 m 2,0,-1
 91 139 l 2,1,2
 110 139 110 139 107 120 c 1,3,4
 90 44 90 44 50 -123 c 0,5,6
 47 -136 47 -136 31 -136 c 2,7,-1
 19 -136 l 2,8,9
 -1 -136 -1 -136 2 -117 c 1,10,-1
 59 126 l 2,11,12
 63 139 63 139 78 139 c 2,0,-1
101 381 m 128,-1,14
 137 381 137 381 148 371.5 c 128,-1,15
 159 362 159 362 159 332 c 2,16,-1
 159 319 l 2,17,18
 159 285 159 285 148 276 c 128,-1,19
 137 267 137 267 101 267 c 128,-1,20
 65 267 65 267 55 276 c 128,-1,21
 45 285 45 285 45 319 c 2,22,-1
 45 332 l 2,23,24
 45 364 45 364 55 372.5 c 128,-1,13
 65 381 65 381 101 381 c 128,-1,14
119.5 342.5 m 128,-1,26
 115 346 115 346 101.5 346 c 128,-1,27
 88 346 88 346 84 343 c 128,-1,28
 80 340 80 340 80 329 c 2,29,-1
 80 319 l 2,30,31
 80 308 80 308 84 305 c 128,-1,32
 88 302 88 302 102 302 c 128,-1,33
 116 302 116 302 120 305 c 128,-1,34
 124 308 124 308 124 319 c 2,35,-1
 124 329 l 2,36,25
 124 339 124 339 119.5 342.5 c 128,-1,26
EndSplineSet
EndChar

StartChar: less
Encoding: 60 60 32
Width: 572
GlyphClass: 2
Flags: W
LayerCount: 2
Fore
SplineSet
480 504 m 1,0,1
 485 507 485 507 491 507 c 128,-1,2
 497 507 497 507 502 504 c 1,3,4
 516 500 516 500 516 481.5 c 128,-1,5
 516 463 516 463 502 458 c 2,6,-1
 107 320 l 1,7,-1
 504 188 l 2,8,9
 518 183 518 183 518 166 c 0,10,11
 518 161 518 161 516 155 c 0,12,13
 509 139 509 139 498.5 139 c 128,-1,14
 488 139 488 139 480 142 c 2,15,-1
 70 283 l 1,16,17
 50 291 50 291 50 319.5 c 128,-1,18
 50 348 50 348 71 356 c 2,19,-1
 480 504 l 1,0,1
EndSplineSet
EndChar

StartChar: equal
Encoding: 61 61 33
Width: 579
GlyphClass: 2
Flags: W
LayerCount: 2
Fore
SplineSet
95 446 m 2,0,-1
 485 446 l 2,1,2
 504 446 504 446 504 427 c 2,3,-1
 504 418 l 2,4,5
 504 398 504 398 485 398 c 2,6,-1
 95 398 l 2,7,8
 75 398 75 398 75 418 c 2,9,-1
 75 427 l 2,10,11
 75 446 75 446 95 446 c 2,0,-1
95 322 m 2,12,-1
 485 322 l 2,13,14
 504 322 504 322 504 303 c 2,15,-1
 504 294 l 2,16,17
 504 286 504 286 498.5 280 c 128,-1,18
 493 274 493 274 485 274 c 2,19,-1
 95 274 l 2,20,21
 86 274 86 274 80.5 280 c 128,-1,22
 75 286 75 286 75 294 c 2,23,-1
 75 303 l 2,24,25
 75 322 75 322 95 322 c 2,12,-1
EndSplineSet
EndChar

StartChar: greater
Encoding: 62 62 34
Width: 568
GlyphClass: 2
Flags: W
LayerCount: 2
Fore
SplineSet
497 356 m 2,0,1
 518 348 518 348 518 319.5 c 128,-1,2
 518 291 518 291 498 283 c 1,3,-1
 88 142 l 2,4,5
 80 139 80 139 69.5 139 c 128,-1,6
 59 139 59 139 54.5 150 c 128,-1,7
 50 161 50 161 50 166 c 0,8,9
 50 183 50 183 64 188 c 2,10,-1
 461 320 l 1,11,-1
 66 458 l 2,12,13
 52 463 52 463 52 481.5 c 128,-1,14
 52 500 52 500 66 504 c 1,15,16
 71 507 71 507 77 507 c 128,-1,17
 83 507 83 507 88 504 c 1,18,-1
 497 356 l 2,0,1
EndSplineSet
EndChar

StartChar: question
Encoding: 63 63 35
Width: 442
GlyphClass: 2
Flags: W
LayerCount: 2
Fore
SplineSet
207 686 m 0,0,1
 297 686 297 686 341 633.5 c 128,-1,2
 385 581 385 581 385 512 c 128,-1,3
 385 443 385 443 340 395 c 128,-1,4
 295 347 295 347 220 337 c 0,5,6
 219 337 219 337 218 338 c 1,7,-1
 218 195 l 2,8,9
 218 176 218 176 199 176 c 2,10,-1
 190 176 l 2,11,12
 170 176 170 176 170 195 c 2,13,-1
 170 343 l 2,14,15
 170 366 170 366 180 374 c 128,-1,16
 190 382 190 382 216 384 c 0,17,18
 268 389 268 389 302.5 423 c 128,-1,19
 337 457 337 457 337 511 c 128,-1,20
 337 565 337 565 303.5 601.5 c 128,-1,21
 270 638 270 638 207 638 c 0,22,23
 117 638 117 638 86 566 c 0,24,25
 80 554 80 554 68 554 c 2,26,-1
 59 554 l 2,27,28
 39 554 39 554 39 570 c 0,29,30
 39 574 39 574 40 579 c 0,31,32
 60 634 60 634 105.5 660 c 128,-1,33
 151 686 151 686 207 686 c 0,0,1
191 111 m 128,-1,35
 227 111 227 111 238 101.5 c 128,-1,36
 249 92 249 92 249 62 c 2,37,-1
 249 49 l 2,38,39
 249 15 249 15 238 6 c 128,-1,40
 227 -3 227 -3 191 -3 c 128,-1,41
 155 -3 155 -3 145 6 c 128,-1,42
 135 15 135 15 135 49 c 2,43,-1
 135 62 l 2,44,45
 135 94 135 94 145 102.5 c 128,-1,34
 155 111 155 111 191 111 c 128,-1,35
209.5 72.5 m 128,-1,47
 205 76 205 76 191.5 76 c 128,-1,48
 178 76 178 76 174 73 c 128,-1,49
 170 70 170 70 170 59 c 2,50,-1
 170 49 l 2,51,52
 170 38 170 38 174 35 c 128,-1,53
 178 32 178 32 192 32 c 128,-1,54
 206 32 206 32 210 35 c 128,-1,55
 214 38 214 38 214 49 c 2,56,-1
 214 59 l 2,57,46
 214 69 214 69 209.5 72.5 c 128,-1,47
EndSplineSet
EndChar

StartChar: at
Encoding: 64 64 36
Width: 481
GlyphClass: 2
Flags: W
LayerCount: 2
Fore
SplineSet
82 479.5 m 128,-1,1
 144 530 144 530 235.5 530 c 128,-1,2
 327 530 327 530 390 482 c 128,-1,3
 453 434 453 434 453 341 c 2,4,-1
 453 173 l 2,5,6
 453 136 453 136 430 111.5 c 128,-1,7
 407 87 407 87 375.5 87 c 128,-1,8
 344 87 344 87 319 109 c 1,9,10
 284 80 284 80 233.5 80 c 128,-1,11
 183 80 183 80 152 109 c 128,-1,12
 121 138 121 138 121 193 c 2,13,-1
 121 323 l 2,14,15
 121 378 121 378 153.5 407 c 128,-1,16
 186 436 186 436 238.5 436 c 128,-1,17
 291 436 291 436 323.5 406.5 c 128,-1,18
 356 377 356 377 356 323 c 2,19,-1
 356 163 l 2,20,21
 356 153 356 153 363 145.5 c 128,-1,22
 370 138 370 138 380.5 138 c 128,-1,23
 391 138 391 138 398.5 147.5 c 128,-1,24
 406 157 406 157 406 167 c 2,25,-1
 406 320 l 2,26,27
 406 404 406 404 358 443 c 128,-1,28
 310 482 310 482 238.5 482 c 128,-1,29
 167 482 167 482 117 444.5 c 128,-1,30
 67 407 67 407 67 342 c 2,31,-1
 67 170 l 2,32,33
 67 107 67 107 118 68 c 0,34,35
 170 27 170 27 234 27 c 128,-1,36
 298 27 298 27 359 57 c 1,37,38
 373 23 373 23 375 11 c 1,39,40
 311 -21 311 -21 233 -21 c 0,41,42
 141 -21 141 -21 80.5 31.5 c 128,-1,43
 20 84 20 84 20 169 c 2,44,-1
 20 343 l 2,45,0
 20 429 20 429 82 479.5 c 128,-1,1
307 323 m 2,46,47
 307 387 307 387 238.5 387 c 128,-1,48
 170 387 170 387 170 323 c 2,49,-1
 170 193 l 2,50,51
 170 128 170 128 239 128 c 0,52,53
 284 128 284 128 307 163 c 1,54,-1
 307 323 l 2,46,47
EndSplineSet
EndChar

StartChar: A
Encoding: 65 65 37
Width: 588
GlyphClass: 2
Flags: W
LayerCount: 2
Fore
SplineSet
246 674 m 2,0,1
 255 701 255 701 284.5 701 c 128,-1,2
 314 701 314 701 324 673 c 2,3,-1
 554 27 l 2,4,5
 555 24 555 24 555 20 c 0,6,7
 555 0 555 0 535 0 c 2,8,-1
 523 0 l 2,9,10
 510 0 510 0 504 13 c 1,11,-1
 286 634 l 1,12,-1
 67 13 l 1,13,14
 61 0 61 0 48 0 c 2,15,-1
 36 0 l 2,16,17
 16 0 16 0 16 20 c 0,18,19
 16 24 16 24 17 27 c 2,20,-1
 246 674 l 2,0,1
199 308 m 2,21,-1
 372 308 l 2,22,23
 380 308 380 308 386 302.5 c 128,-1,24
 392 297 392 297 392 288 c 2,25,-1
 392 279 l 2,26,27
 392 270 392 270 386 264.5 c 128,-1,28
 380 259 380 259 372 259 c 2,29,-1
 199 259 l 2,30,31
 180 259 180 259 180 279 c 2,32,-1
 180 288 l 2,33,34
 180 308 180 308 199 308 c 2,21,-1
EndSplineSet
Substitution2: "Single Substitution lookup 8 subtable" ordfeminine
Substitution2: "'aalt' Access All Alternates lookup 0 subtable" ordfeminine
Position2: "'cpsp' Capital Spacing lookup 0 subtable" dx=5 dy=0 dh=10 dv=0
EndChar

StartChar: B
Encoding: 66 66 38
Width: 508
GlyphClass: 2
Flags: W
LayerCount: 2
Fore
SplineSet
94 700 m 2,0,-1
 202 700 l 2,1,2
 322 700 322 700 377 667 c 0,3,4
 454 620 454 620 454 517 c 1,5,6
 452 469 452 469 427 426 c 128,-1,7
 402 383 402 383 346 363 c 1,8,9
 396 352 396 352 428.5 321.5 c 128,-1,10
 461 291 461 291 472 260 c 128,-1,11
 483 229 483 229 483 186 c 128,-1,12
 483 143 483 143 462.5 99 c 128,-1,13
 442 55 442 55 403 32 c 0,14,15
 346 0 346 0 241 0 c 2,16,-1
 96 0 l 2,17,18
 70 0 70 0 60.5 9.5 c 128,-1,19
 51 19 51 19 51 46 c 2,20,-1
 51 656 l 2,21,22
 51 682 51 682 59.5 691 c 128,-1,23
 68 700 68 700 94 700 c 2,0,-1
201 650 m 2,24,-1
 101 650 l 1,25,-1
 101 49 l 1,26,-1
 257 49 l 2,27,28
 433 49 433 49 433 192 c 0,29,30
 433 251 433 251 384.5 294.5 c 128,-1,31
 336 338 336 338 248 338 c 2,32,-1
 181 338 l 2,33,34
 170 338 170 338 165 338.5 c 128,-1,35
 160 339 160 339 153.5 344.5 c 128,-1,36
 147 350 147 350 147 363.5 c 128,-1,37
 147 377 147 377 157.5 381 c 128,-1,38
 168 385 168 385 187 385 c 2,39,-1
 250 385 l 2,40,41
 333 385 333 385 368.5 426 c 128,-1,42
 404 467 404 467 404 518 c 0,43,44
 404 571 404 571 370 606 c 1,45,46
 329 650 329 650 201 650 c 2,24,-1
EndSplineSet
Position2: "'cpsp' Capital Spacing lookup 0 subtable" dx=5 dy=0 dh=10 dv=0
EndChar

StartChar: C
Encoding: 67 67 39
Width: 564
GlyphClass: 2
Flags: W
LayerCount: 2
Fore
SplineSet
228.5 701.5 m 128,-1,1
 256 706 256 706 282.5 706 c 128,-1,2
 309 706 309 706 336 701.5 c 128,-1,3
 363 697 363 697 395.5 682.5 c 128,-1,4
 428 668 428 668 454 645.5 c 128,-1,5
 480 623 480 623 500 583.5 c 128,-1,6
 520 544 520 544 525 492 c 1,7,8
 525 470 525 470 505 470 c 2,9,-1
 496 470 l 2,10,11
 478 470 478 470 476 488 c 0,12,13
 471 530 471 530 455 562 c 128,-1,14
 439 594 439 594 418 611 c 128,-1,15
 397 628 397 628 370 639 c 0,16,17
 330 656 330 656 295.5 656 c 128,-1,18
 261 656 261 656 238.5 652 c 128,-1,19
 216 648 216 648 188 635 c 128,-1,20
 160 622 160 622 139 600.5 c 128,-1,21
 118 579 118 579 103.5 540 c 128,-1,22
 89 501 89 501 89 450 c 2,23,-1
 89 254 l 2,24,25
 89 203 89 203 105 164 c 128,-1,26
 121 125 121 125 143.5 103.5 c 128,-1,27
 166 82 166 82 196 69 c 0,28,29
 244 48 244 48 286 48 c 128,-1,30
 328 48 328 48 357.5 55.5 c 128,-1,31
 387 63 387 63 416 82 c 0,32,33
 478 121 478 121 478 227 c 0,34,35
 478 244 478 244 483.5 249 c 128,-1,36
 489 254 489 254 498 254 c 2,37,-1
 506 254 l 2,38,39
 526 254 526 254 526 234 c 0,40,41
 526 173 526 173 506.5 127 c 128,-1,42
 487 81 487 81 461 57.5 c 128,-1,43
 435 34 435 34 400 20 c 0,44,45
 346 -1 346 -1 305.5 -1 c 128,-1,46
 265 -1 265 -1 235.5 4 c 128,-1,47
 206 9 206 9 169.5 26 c 128,-1,48
 133 43 133 43 105.5 69 c 128,-1,49
 78 95 78 95 59 142.5 c 128,-1,50
 40 190 40 190 40 251 c 2,51,-1
 40 454 l 2,52,53
 40 517 40 517 58.5 565 c 128,-1,54
 77 613 77 613 103.5 638.5 c 128,-1,55
 130 664 130 664 165.5 680.5 c 128,-1,0
 201 697 201 697 228.5 701.5 c 128,-1,1
EndSplineSet
Position2: "'cpsp' Capital Spacing lookup 0 subtable" dx=5 dy=0 dh=10 dv=0
EndChar

StartChar: D
Encoding: 68 68 40
Width: 576
GlyphClass: 2
Flags: W
LayerCount: 2
Fore
SplineSet
81 700 m 2,0,-1
 243 700 l 2,1,2
 391 700 391 700 440 628 c 0,3,4
 465 592 465 592 474 548.5 c 128,-1,5
 483 505 483 505 483 439 c 2,6,-1
 483 247 l 2,7,8
 483 119 483 119 429.5 59.5 c 128,-1,9
 376 0 376 0 249 0 c 2,10,-1
 82 0 l 2,11,12
 42 0 42 0 42 41 c 2,13,-1
 42 660 l 2,14,15
 42 682 42 682 50.5 691 c 128,-1,16
 59 700 59 700 81 700 c 2,0,-1
243 651 m 2,17,-1
 92 651 l 1,18,-1
 92 49 l 1,19,-1
 249 49 l 2,20,21
 344 49 344 49 389 94 c 128,-1,22
 434 139 434 139 434 241 c 2,23,-1
 434 442 l 2,24,25
 434 552 434 552 394 601.5 c 128,-1,26
 354 651 354 651 243 651 c 2,17,-1
EndSplineSet
Position2: "'cpsp' Capital Spacing lookup 0 subtable" dx=5 dy=0 dh=10 dv=0
EndChar

StartChar: E
Encoding: 69 69 41
Width: 500
GlyphClass: 2
Flags: W
LayerCount: 2
Fore
SplineSet
102 700 m 2,0,-1
 451 700 l 2,1,2
 459 700 459 700 465 694 c 128,-1,3
 471 688 471 688 471 680 c 2,4,-1
 471 671 l 2,5,6
 471 662 471 662 465 656.5 c 128,-1,7
 459 651 459 651 451 651 c 2,8,-1
 112 651 l 1,9,-1
 112 49 l 1,10,-1
 451 49 l 2,11,12
 459 49 459 49 465 43.5 c 128,-1,13
 471 38 471 38 471 29 c 2,14,-1
 471 20 l 2,15,16
 471 12 471 12 465 6 c 128,-1,17
 459 0 459 0 451 0 c 2,18,-1
 101 0 l 2,19,20
 77 0 77 0 69.5 10.5 c 128,-1,21
 62 21 62 21 62 40 c 2,22,-1
 62 661 l 2,23,24
 62 681 62 681 71 690.5 c 128,-1,25
 80 700 80 700 102 700 c 2,0,-1
172 388 m 2,26,-1
 386 388 l 2,27,28
 395 388 395 388 400.5 382 c 128,-1,29
 406 376 406 376 406 368 c 2,30,-1
 406 359 l 2,31,32
 406 339 406 339 386 339 c 2,33,-1
 172 339 l 2,34,35
 152 339 152 339 152 359 c 2,36,-1
 152 368 l 2,37,38
 152 376 152 376 157.5 382 c 128,-1,39
 163 388 163 388 172 388 c 2,26,-1
EndSplineSet
Position2: "'cpsp' Capital Spacing lookup 0 subtable" dx=5 dy=0 dh=10 dv=0
EndChar

StartChar: F
Encoding: 70 70 42
Width: 484
GlyphClass: 2
Flags: W
LayerCount: 2
Fore
SplineSet
99 700 m 2,0,-1
 432 700 l 2,1,2
 441 700 441 700 446.5 694 c 128,-1,3
 452 688 452 688 452 680 c 2,4,-1
 452 671 l 2,5,6
 452 651 452 651 432 651 c 2,7,-1
 111 651 l 1,8,-1
 111 20 l 2,9,10
 111 12 111 12 105.5 6 c 128,-1,11
 100 0 100 0 91 0 c 2,12,-1
 81 0 l 2,13,14
 72 0 72 0 66.5 6 c 128,-1,15
 61 12 61 12 61 20 c 2,16,-1
 61 660 l 2,17,18
 61 679 61 679 68 689.5 c 128,-1,19
 75 700 75 700 99 700 c 2,0,-1
151 388 m 2,20,-1
 376 388 l 2,21,22
 384 388 384 388 390 382 c 128,-1,23
 396 376 396 376 396 368 c 2,24,-1
 396 359 l 2,25,26
 396 350 396 350 390 344.5 c 128,-1,27
 384 339 384 339 376 339 c 2,28,-1
 151 339 l 2,29,30
 132 339 132 339 132 359 c 2,31,-1
 132 368 l 2,32,33
 132 376 132 376 137.5 382 c 128,-1,34
 143 388 143 388 151 388 c 2,20,-1
EndSplineSet
Position2: "'cpsp' Capital Spacing lookup 0 subtable" dx=5 dy=0 dh=10 dv=0
EndChar

StartChar: G
Encoding: 71 71 43
Width: 581
GlyphClass: 2
Flags: W
LayerCount: 2
Fore
SplineSet
228.5 701.5 m 128,-1,1
 256 706 256 706 282.5 706 c 128,-1,2
 309 706 309 706 336 701.5 c 128,-1,3
 363 697 363 697 395.5 682.5 c 128,-1,4
 428 668 428 668 454 645.5 c 128,-1,5
 480 623 480 623 500 583.5 c 128,-1,6
 520 544 520 544 525 492 c 1,7,8
 525 470 525 470 505 470 c 2,9,-1
 496 470 l 2,10,11
 478 470 478 470 476 488 c 0,12,13
 471 530 471 530 455 562 c 128,-1,14
 439 594 439 594 418 611 c 128,-1,15
 397 628 397 628 370 639 c 0,16,17
 330 656 330 656 295.5 656 c 128,-1,18
 261 656 261 656 238.5 652 c 128,-1,19
 216 648 216 648 188 635 c 128,-1,20
 160 622 160 622 139 600.5 c 128,-1,21
 118 579 118 579 103.5 540 c 128,-1,22
 89 501 89 501 89 450 c 2,23,-1
 89 254 l 2,24,25
 89 203 89 203 104 164 c 128,-1,26
 119 125 119 125 140 103.5 c 128,-1,27
 161 82 161 82 189.5 69 c 128,-1,28
 218 56 218 56 240 52 c 128,-1,29
 262 48 262 48 284 48 c 128,-1,30
 306 48 306 48 328 51.5 c 128,-1,31
 350 55 350 55 378 67.5 c 128,-1,32
 406 80 406 80 427 100.5 c 128,-1,33
 448 121 448 121 462.5 158 c 128,-1,34
 477 195 477 195 477 244 c 2,35,-1
 477 302 l 1,36,-1
 312 302 l 2,37,38
 292 302 292 302 292 322 c 2,39,-1
 292 331 l 2,40,41
 292 339 292 339 297.5 345 c 128,-1,42
 303 351 303 351 312 351 c 2,43,-1
 486 351 l 2,44,45
 526 351 526 351 526 308 c 2,46,-1
 526 243 l 2,47,48
 526 182 526 182 507.5 135.5 c 128,-1,49
 489 89 489 89 463 64 c 128,-1,50
 437 39 437 39 402 24 c 0,51,52
 345 -1 345 -1 284 -1 c 0,53,54
 220 -1 220 -1 174.5 21 c 128,-1,55
 129 43 129 43 102.5 69 c 128,-1,56
 76 95 76 95 58 142.5 c 128,-1,57
 40 190 40 190 40 251 c 2,58,-1
 40 454 l 2,59,60
 40 517 40 517 58.5 565 c 128,-1,61
 77 613 77 613 103.5 638.5 c 128,-1,62
 130 664 130 664 165.5 680.5 c 128,-1,0
 201 697 201 697 228.5 701.5 c 128,-1,1
EndSplineSet
Position2: "'cpsp' Capital Spacing lookup 0 subtable" dx=5 dy=0 dh=10 dv=0
EndChar

StartChar: H
Encoding: 72 72 44
Width: 547
GlyphClass: 2
Flags: W
LayerCount: 2
Fore
SplineSet
451 700 m 2,0,-1
 460 700 l 2,1,2
 469 700 469 700 474.5 694 c 128,-1,3
 480 688 480 688 480 680 c 2,4,-1
 480 20 l 2,5,6
 480 12 480 12 474.5 6 c 128,-1,7
 469 0 469 0 460 0 c 2,8,-1
 451 0 l 2,9,10
 443 0 443 0 437 6 c 128,-1,11
 431 12 431 12 431 20 c 2,12,-1
 431 680 l 2,13,14
 431 688 431 688 437 694 c 128,-1,15
 443 700 443 700 451 700 c 2,0,-1
66 700 m 2,16,-1
 75 700 l 2,17,18
 84 700 84 700 89.5 694 c 128,-1,19
 95 688 95 688 95 680 c 2,20,-1
 95 20 l 2,21,22
 95 12 95 12 89.5 6 c 128,-1,23
 84 0 84 0 75 0 c 2,24,-1
 66 0 l 2,25,26
 58 0 58 0 52 6 c 128,-1,27
 46 12 46 12 46 20 c 2,28,-1
 46 680 l 2,29,30
 46 688 46 688 52 694 c 128,-1,31
 58 700 58 700 66 700 c 2,16,-1
135 393 m 2,32,-1
 393 393 l 2,33,34
 401 393 401 393 407 387 c 128,-1,35
 413 381 413 381 413 373 c 2,36,-1
 413 363 l 2,37,38
 413 355 413 355 407 349 c 128,-1,39
 401 343 401 343 393 343 c 2,40,-1
 135 343 l 2,41,42
 127 343 127 343 121 349 c 128,-1,43
 115 355 115 355 115 363 c 2,44,-1
 115 373 l 2,45,46
 115 381 115 381 121 387 c 128,-1,47
 127 393 127 393 135 393 c 2,32,-1
EndSplineSet
Position2: "'cpsp' Capital Spacing lookup 0 subtable" dx=5 dy=0 dh=10 dv=0
EndChar

StartChar: I
Encoding: 73 73 45
Width: 200
GlyphClass: 2
Flags: W
LayerCount: 2
Fore
SplineSet
94 700 m 2,0,-1
 103 700 l 2,1,2
 111 700 111 700 117 694 c 128,-1,3
 123 688 123 688 123 680 c 2,4,-1
 123 20 l 2,5,6
 123 12 123 12 117 6 c 128,-1,7
 111 0 111 0 103 0 c 2,8,-1
 94 0 l 2,9,10
 85 0 85 0 79.5 6 c 128,-1,11
 74 12 74 12 74 20 c 2,12,-1
 74 680 l 2,13,14
 74 688 74 688 79.5 694 c 128,-1,15
 85 700 85 700 94 700 c 2,0,-1
EndSplineSet
Position2: "'cpsp' Capital Spacing lookup 0 subtable" dx=5 dy=0 dh=10 dv=0
EndChar

StartChar: J
Encoding: 74 74 46
Width: 487
GlyphClass: 2
Flags: W
LayerCount: 2
Fore
SplineSet
74 700 m 2,0,-1
 387 700 l 2,1,2
 427 700 427 700 427 663 c 2,3,-1
 427 218 l 2,4,5
 427 118 427 118 375.5 59 c 128,-1,6
 324 0 324 0 233 0 c 0,7,8
 167 0 167 0 113.5 29.5 c 128,-1,9
 60 59 60 59 35 122 c 0,10,11
 33 126 33 126 33 129 c 0,12,13
 33 144 33 144 47 149 c 0,14,15
 59 153 59 153 66.5 153 c 128,-1,16
 74 153 74 153 79 141 c 0,17,18
 91 110 91 110 113.5 89 c 128,-1,19
 136 68 136 68 162 60 c 0,20,21
 203 49 203 49 233 49 c 0,22,23
 377 49 377 49 377 217 c 2,24,-1
 377 650 l 1,25,-1
 74 650 l 2,26,27
 55 650 55 650 55 670 c 2,28,-1
 55 680 l 2,29,30
 55 688 55 688 60.5 694 c 128,-1,31
 66 700 66 700 74 700 c 2,0,-1
EndSplineSet
Position2: "'cpsp' Capital Spacing lookup 0 subtable" dx=5 dy=0 dh=10 dv=0
EndChar

StartChar: K
Encoding: 75 75 47
Width: 529
GlyphClass: 2
Flags: W
LayerCount: 2
Fore
SplineSet
464 700 m 2,0,-1
 475 700 l 2,1,2
 484 700 484 700 490 694 c 0,3,4
 499 684 499 684 492 671 c 2,5,-1
 317 357 l 1,6,-1
 505 29 l 2,7,8
 508 23 508 23 508 18 c 0,9,10
 508 0 508 0 488 0 c 2,11,-1
 477 0 l 2,12,13
 466 0 466 0 462 6 c 2,14,-1
 290 307 l 1,15,-1
 138 27 l 1,16,17
 120 -3 120 -3 98 -3 c 0,18,19
 60 -3 60 -3 60 37 c 2,20,-1
 60 680 l 2,21,22
 60 688 60 688 65.5 694 c 128,-1,23
 71 700 71 700 80 700 c 2,24,-1
 90 700 l 2,25,26
 99 700 99 700 104.5 694 c 128,-1,27
 110 688 110 688 110 680 c 2,28,-1
 110 80 l 1,29,-1
 308 442 l 1,30,-1
 450 694 l 2,31,32
 454 700 454 700 464 700 c 2,0,-1
EndSplineSet
Position2: "'cpsp' Capital Spacing lookup 0 subtable" dx=5 dy=0 dh=10 dv=0
EndChar

StartChar: L
Encoding: 76 76 48
Width: 499
GlyphClass: 2
Flags: W
LayerCount: 2
Fore
SplineSet
71 700 m 2,0,-1
 81 700 l 2,1,2
 89 700 89 700 95 694 c 128,-1,3
 101 688 101 688 101 680 c 2,4,-1
 101 49 l 1,5,-1
 435 49 l 2,6,7
 454 49 454 49 454 29 c 2,8,-1
 454 20 l 2,9,10
 454 12 454 12 448.5 6 c 128,-1,11
 443 0 443 0 435 0 c 2,12,-1
 92 0 l 2,13,14
 51 0 51 0 51 43 c 2,15,-1
 51 680 l 2,16,17
 51 688 51 688 57 694 c 128,-1,18
 63 700 63 700 71 700 c 2,0,-1
EndSplineSet
Position2: "'cpsp' Capital Spacing lookup 0 subtable" dx=5 dy=0 dh=10 dv=0
EndChar

StartChar: M
Encoding: 77 77 49
Width: 650
GlyphClass: 2
Flags: W
LayerCount: 2
Fore
SplineSet
538 703 m 0,0,1
 554 703 554 703 566 692.5 c 128,-1,2
 578 682 578 682 578 660 c 2,3,-1
 578 20 l 2,4,5
 578 12 578 12 572.5 6 c 128,-1,6
 567 0 567 0 558 0 c 2,7,-1
 549 0 l 2,8,9
 540 0 540 0 534.5 6 c 128,-1,10
 529 12 529 12 529 20 c 2,11,-1
 529 615 l 1,12,-1
 355 185 l 2,13,14
 344 159 344 159 319 156 c 1,15,16
 290 156 290 156 278 184 c 2,17,-1
 94 619 l 1,18,-1
 94 20 l 2,19,20
 94 12 94 12 88 6 c 128,-1,21
 82 0 82 0 74 0 c 2,22,-1
 64 0 l 2,23,24
 56 0 56 0 50.5 6 c 128,-1,25
 45 12 45 12 45 20 c 2,26,-1
 45 660 l 2,27,28
 45 703 45 703 84 703 c 0,29,30
 111 703 111 703 124 673 c 2,31,-1
 316 220 l 1,32,-1
 498 673 l 1,33,34
 512 703 512 703 538 703 c 0,0,1
EndSplineSet
Position2: "'cpsp' Capital Spacing lookup 0 subtable" dx=5 dy=0 dh=10 dv=0
EndChar

StartChar: N
Encoding: 78 78 50
Width: 600
GlyphClass: 2
Flags: W
LayerCount: 2
Fore
SplineSet
89 702 m 0,0,1
 116 702 116 702 131 678 c 0,2,3
 324 358 324 358 486 69 c 1,4,-1
 486 680 l 2,5,6
 486 688 486 688 491.5 694 c 128,-1,7
 497 700 497 700 506 700 c 2,8,-1
 516 700 l 2,9,10
 525 700 525 700 530.5 694 c 128,-1,11
 536 688 536 688 536 680 c 2,12,-1
 536 37 l 2,13,14
 536 17 536 17 524.5 7.5 c 128,-1,15
 513 -2 513 -2 492 -2 c 128,-1,16
 471 -2 471 -2 457 20 c 1,17,-1
 102 629 l 1,18,-1
 102 20 l 2,19,20
 102 12 102 12 96 6 c 128,-1,21
 90 0 90 0 82 0 c 2,22,-1
 71 0 l 2,23,24
 63 0 63 0 57.5 6 c 128,-1,25
 52 12 52 12 52 20 c 2,26,-1
 52 661 l 2,27,28
 52 702 52 702 89 702 c 0,0,1
EndSplineSet
Position2: "'cpsp' Capital Spacing lookup 0 subtable" dx=5 dy=0 dh=10 dv=0
EndChar

StartChar: O
Encoding: 79 79 51
Width: 606
GlyphClass: 2
Flags: W
LayerCount: 2
Fore
SplineSet
238 696 m 128,-1,1
 265 700 265 700 293.5 700 c 128,-1,2
 322 700 322 700 350 695.5 c 128,-1,3
 378 691 378 691 413.5 675 c 128,-1,4
 449 659 449 659 475 633.5 c 128,-1,5
 501 608 501 608 519 561.5 c 128,-1,6
 537 515 537 515 537 454 c 2,7,-1
 537 251 l 2,8,9
 537 188 537 188 518.5 140 c 128,-1,10
 500 92 500 92 473.5 66 c 128,-1,11
 447 40 447 40 412 24 c 0,12,13
 356 -1 356 -1 294 -1 c 0,14,15
 229 -1 229 -1 183.5 21 c 128,-1,16
 138 43 138 43 112 69 c 128,-1,17
 86 95 86 95 68 142.5 c 128,-1,18
 50 190 50 190 50 251 c 2,19,-1
 50 454 l 2,20,21
 50 517 50 517 68.5 564 c 128,-1,22
 87 611 87 611 113 636 c 128,-1,23
 139 661 139 661 175 676.5 c 128,-1,0
 211 692 211 692 238 696 c 128,-1,1
337.5 647.5 m 128,-1,25
 316 651 316 651 293.5 651 c 128,-1,26
 271 651 271 651 249 647.5 c 128,-1,27
 227 644 227 644 198.5 631.5 c 128,-1,28
 170 619 170 619 149 598.5 c 128,-1,29
 128 578 128 578 113.5 539.5 c 128,-1,30
 99 501 99 501 99 450 c 2,31,-1
 99 254 l 2,32,33
 99 203 99 203 113.5 164 c 128,-1,34
 128 125 128 125 149.5 103.5 c 128,-1,35
 171 82 171 82 199 69 c 128,-1,36
 227 56 227 56 249.5 52 c 128,-1,37
 272 48 272 48 294 48 c 128,-1,38
 316 48 316 48 338.5 52 c 128,-1,39
 361 56 361 56 389 69 c 128,-1,40
 417 82 417 82 438 103.5 c 128,-1,41
 459 125 459 125 473.5 164 c 128,-1,42
 488 203 488 203 488 254 c 2,43,-1
 488 450 l 2,44,45
 488 501 488 501 473 539.5 c 128,-1,46
 458 578 458 578 437 598.5 c 128,-1,47
 416 619 416 619 387.5 631.5 c 128,-1,24
 359 644 359 644 337.5 647.5 c 128,-1,25
EndSplineSet
Substitution2: "Single Substitution lookup 8 subtable" ordmasculine
Substitution2: "'aalt' Access All Alternates lookup 0 subtable" ordmasculine
Position2: "'cpsp' Capital Spacing lookup 0 subtable" dx=5 dy=0 dh=10 dv=0
EndChar

StartChar: P
Encoding: 80 80 52
Width: 498
GlyphClass: 2
Flags: W
LayerCount: 2
Fore
SplineSet
98 700 m 2,0,-1
 253 700 l 2,1,2
 323 700 323 700 382 662 c 0,3,4
 413 642 413 642 432 604 c 128,-1,5
 451 566 451 566 451 514 c 0,6,7
 451 435 451 435 405 381.5 c 128,-1,8
 359 328 359 328 245 328 c 2,9,-1
 179 328 l 2,10,11
 170 328 170 328 164.5 334 c 128,-1,12
 159 340 159 340 159 348 c 2,13,-1
 159 357 l 2,14,15
 159 377 159 377 179 377 c 2,16,-1
 233 377 l 2,17,18
 342 377 342 377 374 423 c 0,19,20
 401 461 401 461 401 515 c 0,21,22
 401 586 401 586 355.5 618 c 128,-1,23
 310 650 310 650 248 650 c 2,24,-1
 104 650 l 1,25,-1
 104 20 l 2,26,27
 104 12 104 12 98 6 c 128,-1,28
 92 0 92 0 84 0 c 2,29,-1
 74 0 l 2,30,31
 66 0 66 0 60 6 c 128,-1,32
 54 12 54 12 54 20 c 2,33,-1
 54 656 l 2,34,35
 54 682 54 682 63 691 c 128,-1,36
 72 700 72 700 98 700 c 2,0,-1
EndSplineSet
Position2: "'cpsp' Capital Spacing lookup 0 subtable" dx=5 dy=0 dh=10 dv=0
EndChar

StartChar: Q
Encoding: 81 81 53
Width: 577
GlyphClass: 2
Flags: W
LayerCount: 2
Fore
SplineSet
294 706 m 128,-1,1
 322 706 322 706 350 701 c 128,-1,2
 378 696 378 696 413 679 c 128,-1,3
 448 662 448 662 474.5 636 c 128,-1,4
 501 610 501 610 519 562.5 c 128,-1,5
 537 515 537 515 537 454 c 2,6,-1
 537 251 l 2,7,8
 537 152 537 152 491 87 c 1,9,-1
 545 25 l 2,10,11
 551 17 551 17 551 11 c 0,12,13
 551 0 551 0 536 0 c 2,14,-1
 510 0 l 2,15,16
 502 0 502 0 495 7 c 2,17,-1
 457 51 l 1,18,19
 392 -1 392 -1 294 -1 c 0,20,21
 229 -1 229 -1 183.5 21 c 128,-1,22
 138 43 138 43 112 69 c 128,-1,23
 86 95 86 95 68 142.5 c 128,-1,24
 50 190 50 190 50 251 c 2,25,-1
 50 454 l 2,26,27
 50 517 50 517 68.5 565 c 128,-1,28
 87 613 87 613 113 639 c 128,-1,29
 139 665 139 665 174.5 681 c 128,-1,30
 210 697 210 697 238 701.5 c 128,-1,0
 266 706 266 706 294 706 c 128,-1,1
338 652 m 128,-1,32
 316 656 316 656 293.5 656 c 128,-1,33
 271 656 271 656 248.5 652 c 128,-1,34
 226 648 226 648 198 635 c 128,-1,35
 170 622 170 622 149 600.5 c 128,-1,36
 128 579 128 579 113.5 540 c 128,-1,37
 99 501 99 501 99 450 c 2,38,-1
 99 254 l 2,39,40
 99 203 99 203 113.5 164 c 128,-1,41
 128 125 128 125 149.5 103.5 c 128,-1,42
 171 82 171 82 199 69 c 0,43,44
 244 48 244 48 294 48 c 0,45,46
 373 48 373 48 423 90 c 1,47,-1
 311 223 l 2,48,49
 300 235 300 235 300 243 c 0,50,51
 300 253 300 253 322 253 c 2,52,-1
 338 253 l 2,53,54
 347 253 347 253 354 246 c 2,55,-1
 456 127 l 1,56,57
 488 178 488 178 488 254 c 2,58,-1
 488 450 l 2,59,60
 488 501 488 501 473 540 c 128,-1,61
 458 579 458 579 437 600.5 c 128,-1,62
 416 622 416 622 388 635 c 128,-1,31
 360 648 360 648 338 652 c 128,-1,32
EndSplineSet
Position2: "'cpsp' Capital Spacing lookup 0 subtable" dx=5 dy=0 dh=10 dv=0
EndChar

StartChar: R
Encoding: 82 82 54
Width: 489
GlyphClass: 2
Flags: W
LayerCount: 2
Fore
SplineSet
97 700 m 2,0,-1
 234 700 l 2,1,2
 476 700 476 700 476 510 c 0,3,4
 476 436 476 436 429 378.5 c 128,-1,5
 382 321 382 321 281 321 c 2,6,-1
 270 321 l 1,7,-1
 486 37 l 1,8,9
 498 19 498 19 498 15 c 0,10,11
 498 0 498 0 484 0 c 2,12,-1
 464 0 l 2,13,14
 451 0 451 0 445 8 c 2,15,-1
 214 312 l 2,16,17
 203 328 203 328 203 338 c 0,18,19
 203 370 203 370 238 370 c 2,20,-1
 282 370 l 2,21,22
 324 370 324 370 354 384 c 128,-1,23
 384 398 384 398 398 420 c 0,24,25
 426 463 426 463 426 509 c 0,26,27
 426 650 426 650 233 650 c 2,28,-1
 105 650 l 1,29,-1
 105 20 l 2,30,31
 105 12 105 12 99.5 6 c 128,-1,32
 94 0 94 0 85 0 c 2,33,-1
 75 0 l 2,34,35
 66 0 66 0 60.5 6 c 128,-1,36
 55 12 55 12 55 20 c 2,37,-1
 55 653 l 2,38,39
 55 680 55 680 63.5 690 c 128,-1,40
 72 700 72 700 97 700 c 2,0,-1
EndSplineSet
Position2: "'cpsp' Capital Spacing lookup 0 subtable" dx=5 dy=0 dh=10 dv=0
EndChar

StartChar: S
Encoding: 83 83 55
Width: 557
GlyphClass: 2
Flags: W
LayerCount: 2
Fore
SplineSet
138 654 m 128,-1,1
 191 702 191 702 282.5 702 c 128,-1,2
 374 702 374 702 436.5 653.5 c 128,-1,3
 499 605 499 605 503 509 c 0,4,5
 503 501 503 501 497 494.5 c 128,-1,6
 491 488 491 488 483 488 c 2,7,-1
 473 488 l 2,8,9
 466 488 466 488 460 493.5 c 128,-1,10
 454 499 454 499 453 507 c 0,11,12
 450 583 450 583 402 617.5 c 128,-1,13
 354 652 354 652 287 652 c 0,14,15
 215 652 215 652 175 619 c 128,-1,16
 135 586 135 586 135 537.5 c 128,-1,17
 135 489 135 489 163 460 c 0,18,19
 202 421 202 421 308 380 c 0,20,21
 434 330 434 330 476 280 c 0,22,23
 508 242 508 242 508 171 c 128,-1,24
 508 100 508 100 450.5 49.5 c 128,-1,25
 393 -1 393 -1 287 -1 c 0,26,27
 208 -1 208 -1 138 42 c 0,28,29
 101 65 101 65 77.5 106.5 c 128,-1,30
 54 148 54 148 52 202 c 0,31,32
 52 223 52 223 72 223 c 2,33,-1
 81 223 l 2,34,35
 99 223 99 223 101 204 c 1,36,37
 103 160 103 160 123 127.5 c 128,-1,38
 143 95 143 95 173 79 c 0,39,40
 231 48 231 48 300.5 48 c 128,-1,41
 370 48 370 48 414.5 84.5 c 128,-1,42
 459 121 459 121 459 176 c 0,43,44
 459 232 459 232 423 262 c 0,45,46
 394 286 394 286 360 303 c 0,47,48
 316 324 316 324 222 362 c 1,49,50
 150 394 150 394 117.5 435.5 c 128,-1,51
 85 477 85 477 85 541.5 c 128,-1,0
 85 606 85 606 138 654 c 128,-1,1
EndSplineSet
Position2: "'cpsp' Capital Spacing lookup 0 subtable" dx=5 dy=0 dh=10 dv=0
EndChar

StartChar: T
Encoding: 84 84 56
Width: 500
GlyphClass: 2
Flags: W
LayerCount: 2
Fore
SplineSet
241 624 m 2,0,-1
 251 624 l 2,1,2
 271 624 271 624 271 605 c 2,3,-1
 271 20 l 2,4,5
 271 12 271 12 265.5 6 c 128,-1,6
 260 0 260 0 251 0 c 2,7,-1
 241 0 l 2,8,9
 232 0 232 0 226.5 6 c 128,-1,10
 221 12 221 12 221 20 c 2,11,-1
 221 605 l 2,12,13
 221 624 221 624 241 624 c 2,0,-1
25 700 m 2,14,-1
 469 700 l 2,15,16
 478 700 478 700 483.5 694 c 128,-1,17
 489 688 489 688 489 680 c 2,18,-1
 489 669 l 2,19,20
 489 651 489 651 469 651 c 2,21,-1
 25 651 l 2,22,23
 5 651 5 651 5 669 c 2,24,-1
 5 680 l 2,25,26
 5 688 5 688 11 694 c 128,-1,27
 17 700 17 700 25 700 c 2,14,-1
EndSplineSet
Position2: "'cpsp' Capital Spacing lookup 0 subtable" dx=5 dy=0 dh=10 dv=0
EndChar

StartChar: U
Encoding: 85 85 57
Width: 562
GlyphClass: 2
Flags: W
LayerCount: 2
Fore
SplineSet
480 700 m 2,0,-1
 490 700 l 2,1,2
 498 700 498 700 504 694 c 128,-1,3
 510 688 510 688 510 680 c 2,4,-1
 510 251 l 2,5,6
 510 179 510 179 486 126.5 c 128,-1,7
 462 74 462 74 424 48 c 0,8,9
 354 -1 354 -1 281 -1 c 2,10,-1
 269 -1 l 2,11,12
 196 -1 196 -1 124 48 c 0,13,14
 86 74 86 74 62.5 126.5 c 128,-1,15
 39 179 39 179 39 251 c 2,16,-1
 39 680 l 2,17,18
 39 688 39 688 44.5 694 c 128,-1,19
 50 700 50 700 59 700 c 2,20,-1
 69 700 l 2,21,22
 78 700 78 700 83.5 694 c 128,-1,23
 89 688 89 688 89 680 c 2,24,-1
 89 251 l 2,25,26
 89 192 89 192 108 149.5 c 128,-1,27
 127 107 127 107 158 86 c 0,28,29
 212 50 212 50 271 48 c 1,30,-1
 280 48 l 1,31,32
 337 50 337 50 392 87 c 0,33,34
 422 107 422 107 441 149.5 c 128,-1,35
 460 192 460 192 460 251 c 2,36,-1
 460 680 l 2,37,38
 460 688 460 688 465.5 694 c 128,-1,39
 471 700 471 700 480 700 c 2,0,-1
EndSplineSet
Position2: "'cpsp' Capital Spacing lookup 0 subtable" dx=5 dy=0 dh=10 dv=0
EndChar

StartChar: V
Encoding: 86 86 58
Width: 551
GlyphClass: 2
Flags: W
LayerCount: 2
Fore
SplineSet
503 700 m 2,0,-1
 515 700 l 2,1,2
 535 700 535 700 535 680 c 0,3,4
 535 676 535 676 534 673 c 2,5,-1
 306 26 l 2,6,7
 297 -1 297 -1 267 -1 c 128,-1,8
 237 -1 237 -1 227 27 c 2,9,-1
 -3 673 l 2,10,11
 -4 676 -4 676 -4 680 c 0,12,13
 -4 700 -4 700 16 700 c 2,14,-1
 28 700 l 2,15,16
 40 700 40 700 47 687 c 1,17,-1
 266 63 l 1,18,-1
 484 687 l 1,19,20
 490 700 490 700 503 700 c 2,0,-1
EndSplineSet
Position2: "'cpsp' Capital Spacing lookup 0 subtable" dx=5 dy=0 dh=10 dv=0
EndChar

StartChar: W
Encoding: 87 87 59
Width: 777
GlyphClass: 2
Flags: W
LayerCount: 2
Fore
SplineSet
730 700 m 2,0,-1
 741 700 l 2,1,2
 752 700 752 700 756.5 693.5 c 128,-1,3
 761 687 761 687 761 682.5 c 128,-1,4
 761 678 761 678 760 675 c 2,5,-1
 581 32 l 2,6,7
 571 -1 571 -1 539.5 -1 c 128,-1,8
 508 -1 508 -1 499 32 c 2,9,-1
 376 472 l 1,10,-1
 253 30 l 1,11,12
 242 -1 242 -1 212.5 -1 c 128,-1,13
 183 -1 183 -1 172 30 c 1,14,-1
 -17 674 l 2,15,16
 -18 678 -18 678 -18 683 c 128,-1,17
 -18 688 -18 688 -13.5 694 c 128,-1,18
 -9 700 -9 700 2 700 c 2,19,-1
 12 700 l 2,20,21
 24 700 24 700 31 686 c 1,22,-1
 213 68 l 1,23,-1
 342 529 l 2,24,25
 350 557 350 557 377.5 557 c 128,-1,26
 405 557 405 557 411 528 c 1,27,28
 432 452 432 452 475.5 298.5 c 128,-1,29
 519 145 519 145 540 69 c 1,30,-1
 711 685 l 2,31,32
 713 690 713 690 718.5 695 c 128,-1,33
 724 700 724 700 730 700 c 2,0,-1
EndSplineSet
Position2: "'cpsp' Capital Spacing lookup 0 subtable" dx=5 dy=0 dh=10 dv=0
EndChar

StartChar: X
Encoding: 88 88 60
Width: 489
GlyphClass: 2
Flags: W
LayerCount: 2
Fore
SplineSet
418 700 m 2,0,-1
 429 700 l 2,1,2
 441 700 441 700 446.5 690 c 128,-1,3
 452 680 452 680 446 670 c 1,4,-1
 446 671 l 1,5,-1
 277 363 l 2,6,7
 276 362 276 362 273.5 358 c 128,-1,8
 271 354 271 354 269 352 c 1,9,-1
 275 344 l 1,10,-1
 456 29 l 2,11,12
 459 24 459 24 459 19 c 128,-1,13
 459 14 459 14 455 7 c 128,-1,14
 451 0 451 0 439 0 c 2,15,-1
 427 0 l 2,16,17
 416 0 416 0 412 6 c 2,18,-1
 239 306 l 1,19,20
 229 289 229 289 159.5 177.5 c 128,-1,21
 90 66 90 66 55 9 c 1,22,23
 48 0 48 0 38 0 c 2,24,-1
 26 0 l 2,25,26
 13 0 13 0 8 10 c 128,-1,27
 3 20 3 20 9 31 c 2,28,-1
 205 344 l 1,29,-1
 205 343 l 1,30,31
 209 351 209 351 212 354 c 1,32,33
 208 358 208 358 207 361 c 2,34,-1
 0 669 l 2,35,36
 -3 674 -3 674 -3 679 c 128,-1,37
 -3 684 -3 684 1 692 c 128,-1,38
 5 700 5 700 17 700 c 2,39,-1
 28 700 l 2,40,41
 38 700 38 700 45 691 c 2,42,-1
 241 400 l 1,43,-1
 402 694 l 2,44,45
 406 700 406 700 418 700 c 2,0,-1
EndSplineSet
Position2: "'cpsp' Capital Spacing lookup 0 subtable" dx=5 dy=0 dh=10 dv=0
EndChar

StartChar: Y
Encoding: 89 89 61
Width: 436
GlyphClass: 2
Flags: W
LayerCount: 2
Fore
SplineSet
391 700 m 2,0,-1
 402 700 l 2,1,2
 414 700 414 700 418 692.5 c 128,-1,3
 422 685 422 685 422 680 c 128,-1,4
 422 675 422 675 419 670 c 1,5,-1
 419 671 l 1,6,-1
 250 363 l 1,7,8
 242 351 242 351 239 348 c 1,9,-1
 239 20 l 2,10,11
 239 12 239 12 233 6 c 128,-1,12
 227 0 227 0 219 0 c 2,13,-1
 209 0 l 2,14,15
 201 0 201 0 195 6 c 128,-1,16
 189 12 189 12 189 20 c 2,17,-1
 189 349 l 1,18,19
 184 354 184 354 180 361 c 2,20,-1
 -2 670 l 2,21,22
 -5 675 -5 675 -5 680 c 128,-1,23
 -5 685 -5 685 -1 692.5 c 128,-1,24
 3 700 3 700 15 700 c 2,25,-1
 27 700 l 2,26,27
 37 700 37 700 44 691 c 1,28,-1
 214 399 l 1,29,-1
 375 694 l 2,30,31
 379 700 379 700 391 700 c 2,0,-1
EndSplineSet
Position2: "'cpsp' Capital Spacing lookup 0 subtable" dx=5 dy=0 dh=10 dv=0
EndChar

StartChar: Z
Encoding: 90 90 62
Width: 552
GlyphClass: 2
Flags: W
LayerCount: 2
Fore
SplineSet
43 37 m 0,0,1
 43 50 43 50 59 74 c 1,2,-1
 59 75 l 1,3,-1
 423 651 l 1,4,-1
 51 651 l 2,5,6
 43 651 43 651 37 656.5 c 128,-1,7
 31 662 31 662 31 671 c 2,8,-1
 31 680 l 2,9,10
 31 688 31 688 37 694 c 128,-1,11
 43 700 43 700 51 700 c 2,12,-1
 441 700 l 2,13,14
 483 700 483 700 483 665 c 0,15,16
 483 647 483 647 469 629 c 1,17,-1
 469 630 l 1,18,-1
 466 627 l 1,19,-1
 467 625 l 1,20,-1
 101 49 l 1,21,-1
 494 49 l 2,22,23
 502 49 502 49 508 43.5 c 128,-1,24
 514 38 514 38 514 29 c 2,25,-1
 514 20 l 2,26,27
 514 12 514 12 508 6 c 128,-1,28
 502 0 502 0 494 0 c 2,29,-1
 83 0 l 2,30,31
 43 0 43 0 43 37 c 0,0,1
EndSplineSet
Position2: "'cpsp' Capital Spacing lookup 0 subtable" dx=5 dy=0 dh=10 dv=0
EndChar

StartChar: bracketleft
Encoding: 91 91 63
Width: 400
GlyphClass: 2
Flags: W
LayerCount: 2
Fore
SplineSet
146 699 m 2,0,-1
 286 699 l 2,1,2
 305 699 305 699 305 680 c 2,3,-1
 305 670 l 2,4,5
 305 651 305 651 286 651 c 2,6,-1
 157 651 l 1,7,-1
 157 48 l 1,8,-1
 286 48 l 2,9,10
 305 48 305 48 305 29 c 2,11,-1
 305 20 l 2,12,13
 305 0 305 0 286 0 c 2,14,-1
 147 0 l 2,15,16
 109 0 109 0 109 38 c 2,17,-1
 108 659 l 2,18,19
 108 699 108 699 146 699 c 2,0,-1
EndSplineSet
EndChar

StartChar: backslash
Encoding: 92 92 64
Width: 307
GlyphClass: 2
Flags: W
LayerCount: 2
Fore
SplineSet
15 684 m 2,0,-1
 26 684 l 2,1,2
 38 684 38 684 45 671 c 1,3,-1
 294 26 l 2,4,5
 295 22 295 22 295 17.5 c 128,-1,6
 295 13 295 13 291 6.5 c 128,-1,7
 287 0 287 0 276 0 c 2,8,-1
 266 0 l 2,9,10
 253 0 253 0 247 13 c 2,11,-1
 -4 658 l 2,12,13
 -5 662 -5 662 -5 666.5 c 128,-1,14
 -5 671 -5 671 -0.5 677.5 c 128,-1,15
 4 684 4 684 15 684 c 2,0,-1
EndSplineSet
EndChar

StartChar: bracketright
Encoding: 93 93 65
Width: 403
GlyphClass: 2
Flags: W
LayerCount: 2
Fore
SplineSet
127 699 m 2,0,-1
 267 699 l 2,1,2
 305 699 305 699 305 659 c 2,3,-1
 305 39 l 2,4,5
 305 0 305 0 266 0 c 2,6,-1
 127 0 l 2,7,8
 108 0 108 0 108 20 c 2,9,-1
 108 29 l 2,10,11
 108 48 108 48 127 48 c 2,12,-1
 256 48 l 1,13,-1
 256 651 l 1,14,-1
 127 651 l 2,15,16
 108 651 108 651 108 670 c 2,17,-1
 108 680 l 2,18,19
 108 699 108 699 127 699 c 2,0,-1
EndSplineSet
EndChar

StartChar: asciicircum
Encoding: 94 94 66
Width: 405
GlyphClass: 2
Flags: W
LayerCount: 2
Fore
SplineSet
165 711 m 2,0,1
 172 732 172 732 202 732 c 128,-1,2
 232 732 232 732 239 711 c 2,3,-1
 389 288 l 2,4,5
 393 278 393 278 393 272 c 0,6,7
 393 256 393 256 374 256 c 2,8,-1
 362 256 l 2,9,10
 353 256 353 256 347 272 c 2,11,-1
 202 667 l 1,12,-1
 58 272 l 2,13,14
 53 256 53 256 43 256 c 2,15,-1
 31 256 l 2,16,17
 12 256 12 256 12 272 c 0,18,19
 12 278 12 278 16 288 c 2,20,-1
 165 711 l 2,0,1
EndSplineSet
EndChar

StartChar: underscore
Encoding: 95 95 67
Width: 459
GlyphClass: 2
Flags: W
LayerCount: 2
Fore
SplineSet
55 39 m 2,0,-1
 398 39 l 2,1,2
 406 39 406 39 412 33.5 c 128,-1,3
 418 28 418 28 418 20 c 2,4,-1
 418 10 l 2,5,6
 418 2 418 2 412 -3.5 c 128,-1,7
 406 -9 406 -9 398 -9 c 2,8,-1
 55 -9 l 2,9,10
 47 -9 47 -9 41 -3.5 c 128,-1,11
 35 2 35 2 35 10 c 2,12,-1
 35 20 l 2,13,14
 35 28 35 28 41 33.5 c 128,-1,15
 47 39 47 39 55 39 c 2,0,-1
EndSplineSet
EndChar

StartChar: grave
Encoding: 96 96 68
Width: 368
GlyphClass: 2
Flags: W
LayerCount: 2
Fore
SplineSet
98 712 m 0,0,1
 98 732 98 732 125 732 c 0,2,3
 139 732 139 732 143.5 727.5 c 128,-1,4
 148 723 148 723 155 714 c 2,5,-1
 262 578 l 2,6,7
 267 572 267 572 267 566.5 c 128,-1,8
 267 561 267 561 262 553.5 c 128,-1,9
 257 546 257 546 241.5 546 c 128,-1,10
 226 546 226 546 212 563 c 2,11,-1
 105 696 l 2,12,13
 98 704 98 704 98 712 c 0,0,1
EndSplineSet
EndChar

StartChar: a
Encoding: 97 97 69
Width: 504
GlyphClass: 2
Flags: W
LayerCount: 2
Fore
SplineSet
121 459 m 128,-1,1
 169 502 169 502 246 502 c 128,-1,2
 323 502 323 502 370 458.5 c 128,-1,3
 417 415 417 415 417 337 c 2,4,-1
 417 117 l 2,5,6
 417 78 417 78 423.5 63.5 c 128,-1,7
 430 49 430 49 449 44 c 2,8,-1
 460 41 l 1,9,10
 475 38 475 38 475 28 c 2,11,-1
 475 17 l 2,12,13
 475 0 475 0 455 0 c 0,14,15
 406 0 406 0 388 29 c 128,-1,16
 370 58 370 58 370 118 c 2,17,-1
 370 337 l 2,18,19
 370 394 370 394 335 424.5 c 128,-1,20
 300 455 300 455 246 455 c 128,-1,21
 192 455 192 455 156 424.5 c 128,-1,22
 120 394 120 394 120 337 c 2,23,-1
 120 166 l 2,24,25
 120 107 120 107 149.5 77 c 128,-1,26
 179 47 179 47 234.5 47 c 128,-1,27
 290 47 290 47 326 92 c 0,28,29
 333 101 333 101 345.5 101 c 128,-1,30
 358 101 358 101 363 86 c 0,31,32
 366 74 366 74 360 65 c 0,33,34
 317 0 317 0 236.5 0 c 128,-1,35
 156 0 156 0 114.5 43 c 128,-1,36
 73 86 73 86 73 165 c 2,37,-1
 73 337 l 2,38,0
 73 416 73 416 121 459 c 128,-1,1
EndSplineSet
Substitution2: "Single Substitution lookup 8 subtable" ordfeminine
Substitution2: "'aalt' Access All Alternates lookup 0 subtable" ordfeminine
EndChar

StartChar: b
Encoding: 98 98 70
Width: 461
GlyphClass: 2
Flags: W
LayerCount: 2
Fore
SplineSet
69 730 m 2,0,-1
 77 730 l 2,1,2
 85 730 85 730 91 724.5 c 128,-1,3
 97 719 97 719 97 711 c 2,4,-1
 97 452 l 1,5,6
 149 502 149 502 227 502 c 128,-1,7
 305 502 305 502 349.5 458.5 c 128,-1,8
 394 415 394 415 394 337 c 2,9,-1
 394 163 l 2,10,11
 394 84 394 84 346 41 c 128,-1,12
 298 -2 298 -2 221 -2 c 128,-1,13
 144 -2 144 -2 96.5 41.5 c 128,-1,14
 49 85 49 85 49 163 c 2,15,-1
 49 711 l 2,16,17
 49 719 49 719 55 724.5 c 128,-1,18
 61 730 61 730 69 730 c 2,0,-1
229 454 m 0,19,20
 143 454 143 454 97 393 c 1,21,-1
 97 164 l 2,22,23
 97 107 97 107 132 76.5 c 128,-1,24
 167 46 167 46 221 46 c 128,-1,25
 275 46 275 46 310.5 76 c 128,-1,26
 346 106 346 106 346 164 c 2,27,-1
 346 335 l 2,28,29
 346 393 346 393 314 423.5 c 128,-1,30
 282 454 282 454 229 454 c 0,19,20
EndSplineSet
EndChar

StartChar: c
Encoding: 99 99 71
Width: 505
GlyphClass: 2
Flags: W
LayerCount: 2
Fore
SplineSet
118 459 m 128,-1,1
 166 502 166 502 243 502 c 128,-1,2
 320 502 320 502 367 458.5 c 128,-1,3
 414 415 414 415 414 337 c 0,4,5
 414 318 414 318 394 318 c 2,6,-1
 386 318 l 2,7,8
 367 318 367 318 367 337 c 0,9,10
 367 394 367 394 332 424 c 128,-1,11
 297 454 297 454 243 454 c 128,-1,12
 189 454 189 454 153.5 423.5 c 128,-1,13
 118 393 118 393 118 336 c 2,14,-1
 118 164 l 2,15,16
 118 107 118 107 153.5 76.5 c 128,-1,17
 189 46 189 46 243 46 c 128,-1,18
 297 46 297 46 331.5 75.5 c 128,-1,19
 366 105 366 105 367 160 c 0,20,21
 367 168 367 168 372.5 174 c 128,-1,22
 378 180 378 180 386 180 c 2,23,-1
 394 180 l 2,24,25
 403 180 403 180 408.5 174 c 128,-1,26
 414 168 414 168 414 160 c 0,27,28
 412 84 412 84 365 41 c 128,-1,29
 318 -2 318 -2 242.5 -2 c 128,-1,30
 167 -2 167 -2 118.5 41.5 c 128,-1,31
 70 85 70 85 70 163 c 2,32,-1
 70 337 l 2,33,0
 70 416 70 416 118 459 c 128,-1,1
EndSplineSet
EndChar

StartChar: d
Encoding: 100 100 72
Width: 510
GlyphClass: 2
Flags: W
LayerCount: 2
Fore
SplineSet
388 732 m 2,0,-1
 400 732 l 2,1,2
 418 732 418 732 418 713 c 2,3,-1
 418 163 l 2,4,5
 418 85 418 85 370.5 41.5 c 128,-1,6
 323 -2 323 -2 246 -2 c 128,-1,7
 169 -2 169 -2 121 41 c 128,-1,8
 73 84 73 84 73 163 c 2,9,-1
 73 337 l 2,10,11
 73 414 73 414 121 457 c 128,-1,12
 169 500 169 500 246 500 c 0,13,14
 278 500 278 500 314.5 488 c 128,-1,15
 351 476 351 476 370 461 c 1,16,-1
 370 713 l 2,17,18
 370 732 370 732 388 732 c 2,0,-1
370 406 m 1,19,20
 312 452 312 452 252 452 c 128,-1,21
 192 452 192 452 156.5 422 c 128,-1,22
 121 392 121 392 121 335 c 2,23,-1
 121 164 l 2,24,25
 121 106 121 106 156.5 76 c 128,-1,26
 192 46 192 46 246 46 c 128,-1,27
 300 46 300 46 335 76.5 c 128,-1,28
 370 107 370 107 370 164 c 2,29,-1
 370 406 l 1,19,20
EndSplineSet
EndChar

StartChar: e
Encoding: 101 101 73
Width: 490
GlyphClass: 2
Flags: W
LayerCount: 2
Fore
SplineSet
118 459 m 128,-1,1
 166 502 166 502 243 502 c 128,-1,2
 320 502 320 502 367 458.5 c 128,-1,3
 414 415 414 415 414 337 c 2,4,-1
 414 277 l 2,5,6
 414 234 414 234 373 234 c 2,7,-1
 157 234 l 2,8,9
 148 234 148 234 142.5 240 c 128,-1,10
 137 246 137 246 137 254 c 2,11,-1
 137 262 l 2,12,13
 137 270 137 270 142.5 276 c 128,-1,14
 148 282 148 282 157 282 c 2,15,-1
 367 282 l 1,16,-1
 367 336 l 2,17,18
 367 393 367 393 332 423.5 c 128,-1,19
 297 454 297 454 243 454 c 128,-1,20
 189 454 189 454 153.5 423.5 c 128,-1,21
 118 393 118 393 118 336 c 2,22,-1
 118 164 l 2,23,24
 118 107 118 107 153.5 76.5 c 128,-1,25
 189 46 189 46 242.5 46 c 128,-1,26
 296 46 296 46 331.5 75.5 c 128,-1,27
 367 105 367 105 367 160 c 0,28,29
 367 168 367 168 372.5 174 c 128,-1,30
 378 180 378 180 386 180 c 2,31,-1
 394 180 l 2,32,33
 403 180 403 180 408.5 174 c 128,-1,34
 414 168 414 168 414 160 c 0,35,36
 413 83 413 83 366 40.5 c 128,-1,37
 319 -2 319 -2 243 -2 c 128,-1,38
 167 -2 167 -2 118.5 41.5 c 128,-1,39
 70 85 70 85 70 163 c 2,40,-1
 70 337 l 2,41,0
 70 416 70 416 118 459 c 128,-1,1
EndSplineSet
EndChar

StartChar: f
Encoding: 102 102 74
Width: 336
GlyphClass: 2
Flags: W
LayerCount: 2
Fore
SplineSet
158 500 m 1,0,-1
 264 500 l 2,1,2
 272 500 272 500 277.5 494 c 128,-1,3
 283 488 283 488 283 480 c 2,4,-1
 283 476 l 2,5,6
 283 468 283 468 277.5 462 c 128,-1,7
 272 456 272 456 264 456 c 2,8,-1
 158 456 l 1,9,-1
 157 19 l 2,10,11
 157 0 157 0 138 0 c 2,12,-1
 130 0 l 2,13,14
 110 0 110 0 110 19 c 2,15,-1
 111 577 l 1,16,17
 110 651 110 651 149.5 691.5 c 128,-1,18
 189 732 189 732 258 732 c 0,19,20
 303 732 303 732 303 712 c 2,21,-1
 303 704 l 2,22,23
 303 697 303 697 297.5 691 c 128,-1,24
 292 685 292 685 284 685 c 2,25,-1
 259 685 l 2,26,27
 212 685 212 685 185 657 c 128,-1,28
 158 629 158 629 158 576 c 2,29,-1
 158 500 l 1,0,-1
46 500 m 2,30,-1
 70 500 l 2,31,32
 79 500 79 500 84.5 494 c 128,-1,33
 90 488 90 488 90 480 c 2,34,-1
 90 476 l 2,35,36
 90 468 90 468 84.5 462 c 128,-1,37
 79 456 79 456 70 456 c 2,38,-1
 46 456 l 2,39,40
 37 456 37 456 31.5 462 c 128,-1,41
 26 468 26 468 26 476 c 2,42,-1
 26 480 l 2,43,44
 26 488 26 488 31.5 494 c 128,-1,45
 37 500 37 500 46 500 c 2,30,-1
EndSplineSet
EndChar

StartChar: g
Encoding: 103 103 75
Width: 518
GlyphClass: 2
Flags: W
LayerCount: 2
Fore
SplineSet
118 458 m 128,-1,1
 166 501 166 501 243.5 501 c 128,-1,2
 321 501 321 501 367.5 458 c 128,-1,3
 414 415 414 415 414 336 c 2,4,-1
 414 -76 l 2,5,6
 414 -161 414 -161 369 -205.5 c 128,-1,7
 324 -250 324 -250 248.5 -250 c 128,-1,8
 173 -250 173 -250 127 -208 c 128,-1,9
 81 -166 81 -166 80 -90 c 0,10,11
 80 -72 80 -72 99 -72 c 2,12,-1
 107 -72 l 2,13,14
 127 -72 127 -72 127 -90 c 0,15,16
 129 -145 129 -145 162.5 -174 c 128,-1,17
 196 -203 196 -203 249 -203 c 128,-1,18
 302 -203 302 -203 334.5 -171 c 128,-1,19
 367 -139 367 -139 367 -75 c 2,20,-1
 367 36 l 1,21,22
 313 -3 313 -3 239.5 -3 c 128,-1,23
 166 -3 166 -3 118 40 c 128,-1,24
 70 83 70 83 70 162 c 2,25,-1
 70 336 l 2,26,0
 70 415 70 415 118 458 c 128,-1,1
332 423.5 m 128,-1,28
 297 454 297 454 242.5 454 c 128,-1,29
 188 454 188 454 153 423.5 c 128,-1,30
 118 393 118 393 118 335 c 2,31,-1
 118 163 l 2,32,33
 118 106 118 106 154.5 75.5 c 128,-1,34
 191 45 191 45 241.5 45 c 128,-1,35
 292 45 292 45 324.5 61.5 c 128,-1,36
 357 78 357 78 367 98 c 1,37,-1
 367 336 l 2,38,27
 367 393 367 393 332 423.5 c 128,-1,28
EndSplineSet
EndChar

StartChar: h
Encoding: 104 104 76
Width: 476
GlyphClass: 2
Flags: W
LayerCount: 2
Fore
SplineSet
244 502 m 0,0,1
 313 502 313 502 356.5 458 c 128,-1,2
 400 414 400 414 400 337 c 2,3,-1
 400 20 l 2,4,5
 400 0 400 0 381 0 c 2,6,-1
 372 0 l 2,7,8
 352 0 352 0 352 20 c 2,9,-1
 352 336 l 2,10,11
 352 393 352 393 321 424 c 128,-1,12
 290 455 290 455 237.5 455 c 128,-1,13
 185 455 185 455 147 417 c 0,14,15
 138 408 138 408 130 408 c 0,16,17
 112 408 112 408 111 428 c 0,18,19
 111 435 111 435 115 443 c 0,20,21
 128 467 128 467 165 484.5 c 128,-1,22
 202 502 202 502 244 502 c 0,0,1
78 731 m 2,23,-1
 86 731 l 2,24,25
 94 731 94 731 100 725.5 c 128,-1,26
 106 720 106 720 106 711 c 2,27,-1
 106 20 l 2,28,29
 106 11 106 11 100 5.5 c 128,-1,30
 94 0 94 0 86 0 c 2,31,-1
 78 0 l 2,32,33
 70 0 70 0 64 5.5 c 128,-1,34
 58 11 58 11 58 20 c 2,35,-1
 58 711 l 2,36,37
 58 720 58 720 64 725.5 c 128,-1,38
 70 731 70 731 78 731 c 2,23,-1
EndSplineSet
EndChar

StartChar: i
Encoding: 105 105 77
Width: 204
GlyphClass: 2
Flags: W
LayerCount: 2
Fore
SplineSet
91 501 m 2,0,-1
 108 501 l 2,1,2
 120 501 120 501 124 496 c 128,-1,3
 128 491 128 491 128 481 c 2,4,-1
 128 20 l 2,5,6
 128 11 128 11 122 5.5 c 128,-1,7
 116 0 116 0 108 0 c 2,8,-1
 91 0 l 2,9,10
 83 0 83 0 77 5.5 c 128,-1,11
 71 11 71 11 71 20 c 2,12,-1
 71 481 l 2,13,14
 71 494 71 494 76.5 497.5 c 128,-1,15
 82 501 82 501 91 501 c 2,0,-1
98 732 m 128,-1,17
 134 732 134 732 145 722.5 c 128,-1,18
 156 713 156 713 156 683 c 2,19,-1
 156 670 l 2,20,21
 156 636 156 636 145 627 c 128,-1,22
 134 618 134 618 98 618 c 128,-1,23
 62 618 62 618 52 627 c 128,-1,24
 42 636 42 636 42 670 c 2,25,-1
 42 683 l 2,26,27
 42 715 42 715 52 723.5 c 128,-1,16
 62 732 62 732 98 732 c 128,-1,17
116.5 693.5 m 128,-1,29
 112 697 112 697 98.5 697 c 128,-1,30
 85 697 85 697 81 694 c 128,-1,31
 77 691 77 691 77 680 c 2,32,-1
 77 670 l 2,33,34
 77 659 77 659 81 656 c 128,-1,35
 85 653 85 653 99 653 c 128,-1,36
 113 653 113 653 117 656 c 128,-1,37
 121 659 121 659 121 670 c 2,38,-1
 121 680 l 2,39,28
 121 690 121 690 116.5 693.5 c 128,-1,29
EndSplineSet
EndChar

StartChar: j
Encoding: 106 106 78
Width: 248
GlyphClass: 2
Flags: W
LayerCount: 2
Fore
SplineSet
1 -203 m 0,0,1
 111 -203 111 -203 111 -86 c 2,2,-1
 111 480 l 2,3,4
 111 489 111 489 117 494.5 c 128,-1,5
 123 500 123 500 131 500 c 2,6,-1
 139 500 l 2,7,8
 147 500 147 500 153 494.5 c 128,-1,9
 159 489 159 489 159 480 c 2,10,-1
 159 -86 l 2,11,12
 159 -250 159 -250 2 -250 c 0,13,14
 -2 -250 -2 -250 -7 -250 c 0,15,16
 -26 -250 -26 -250 -26 -231 c 2,17,-1
 -26 -223 l 2,18,19
 -26 -214 -26 -214 -20 -208.5 c 128,-1,20
 -14 -203 -14 -203 -8 -203 c 128,-1,21
 -2 -203 -2 -203 1 -203 c 0,0,1
137 732 m 128,-1,23
 173 732 173 732 184 722.5 c 128,-1,24
 195 713 195 713 195 683 c 2,25,-1
 195 670 l 2,26,27
 195 636 195 636 184 627 c 128,-1,28
 173 618 173 618 137 618 c 128,-1,29
 101 618 101 618 91 627 c 128,-1,30
 81 636 81 636 81 670 c 2,31,-1
 81 683 l 2,32,33
 81 715 81 715 91 723.5 c 128,-1,22
 101 732 101 732 137 732 c 128,-1,23
155.5 693.5 m 128,-1,35
 151 697 151 697 137.5 697 c 128,-1,36
 124 697 124 697 120 694 c 128,-1,37
 116 691 116 691 116 680 c 2,38,-1
 116 670 l 2,39,40
 116 659 116 659 120 656 c 128,-1,41
 124 653 124 653 138 653 c 128,-1,42
 152 653 152 653 156 656 c 128,-1,43
 160 659 160 659 160 670 c 2,44,-1
 160 680 l 2,45,34
 160 690 160 690 155.5 693.5 c 128,-1,35
EndSplineSet
EndChar

StartChar: k
Encoding: 107 107 79
Width: 471
GlyphClass: 2
Flags: W
LayerCount: 2
Fore
SplineSet
78 730 m 2,0,-1
 87 730 l 2,1,2
 106 730 106 730 106 711 c 2,3,-1
 106 70 l 1,4,5
 128 104 128 104 237 289 c 128,-1,6
 346 474 346 474 358 494 c 0,7,8
 362 500 362 500 373 500 c 2,9,-1
 395 500 l 2,10,11
 408 500 408 500 408 490 c 256,12,13
 408 480 408 480 334 358 c 2,14,-1
 277 264 l 1,15,-1
 408 24 l 2,16,17
 413 16 413 16 413 10 c 0,18,19
 413 0 413 0 400 0 c 2,20,-1
 378 0 l 2,21,22
 370 0 370 0 362 10 c 1,23,-1
 249 216 l 1,24,25
 145 42 145 42 133.5 26 c 128,-1,26
 122 10 122 10 113.5 5 c 128,-1,27
 105 0 105 0 94 0 c 0,28,29
 59 0 59 0 59 39 c 2,30,-1
 59 711 l 2,31,32
 59 730 59 730 78 730 c 2,0,-1
EndSplineSet
EndChar

StartChar: l
Encoding: 108 108 80
Width: 294
GlyphClass: 2
Flags: W
LayerCount: 2
Fore
SplineSet
90 730 m 2,0,-1
 98 730 l 2,1,2
 117 730 117 730 117 711 c 2,3,-1
 117 154 l 2,4,5
 117 47 117 47 208 47 c 2,6,-1
 224 47 l 2,7,8
 232 47 232 47 237.5 41 c 128,-1,9
 243 35 243 35 243 28 c 2,10,-1
 243 20 l 2,11,12
 243 0 243 0 207 0 c 0,13,14
 139 0 139 0 104 39 c 128,-1,15
 69 78 69 78 70 153 c 1,16,-1
 70 711 l 2,17,18
 70 730 70 730 90 730 c 2,0,-1
EndSplineSet
EndChar

StartChar: m
Encoding: 109 109 81
Width: 779
GlyphClass: 2
Flags: W
LayerCount: 2
Fore
SplineSet
545 502 m 0,0,1
 619 502 619 502 659 459 c 128,-1,2
 699 416 699 416 699 337 c 2,3,-1
 699 20 l 2,4,5
 699 0 699 0 680 0 c 2,6,-1
 672 0 l 2,7,8
 652 0 652 0 652 20 c 2,9,-1
 652 336 l 2,10,11
 652 395 652 395 624 425 c 128,-1,12
 596 455 596 455 541.5 455 c 128,-1,13
 487 455 487 455 446 410 c 1,14,15
 435 401 435 401 427 401 c 0,16,17
 409 401 409 401 408 421 c 0,18,19
 408 429 408 429 412 437 c 1,20,21
 433 466 433 466 468 484 c 128,-1,22
 503 502 503 502 545 502 c 0,0,1
85 499 m 2,23,-1
 93 499 l 2,24,25
 101 499 101 499 107 493.5 c 128,-1,26
 113 488 113 488 113 479 c 2,27,-1
 113 20 l 2,28,29
 113 11 113 11 107 5.5 c 128,-1,30
 101 0 101 0 93 0 c 2,31,-1
 85 0 l 2,32,33
 66 0 66 0 66 20 c 2,34,-1
 66 479 l 2,35,36
 66 499 66 499 85 499 c 2,23,-1
122 437 m 1,37,38
 168 502 168 502 247 502 c 128,-1,39
 326 502 326 502 366 459 c 128,-1,40
 406 416 406 416 406 337 c 2,41,-1
 406 20 l 2,42,43
 406 0 406 0 387 0 c 2,44,-1
 379 0 l 2,45,46
 359 0 359 0 359 20 c 2,47,-1
 359 336 l 2,48,49
 359 395 359 395 331 425 c 128,-1,50
 303 455 303 455 249.5 455 c 128,-1,51
 196 455 196 455 156 410 c 1,52,53
 145 401 145 401 137 401 c 0,54,55
 119 401 119 401 118 421 c 0,56,57
 118 429 118 429 122 437 c 1,37,38
EndSplineSet
EndChar

StartChar: n
Encoding: 110 110 82
Width: 479
GlyphClass: 2
Flags: W
LayerCount: 2
Fore
SplineSet
248 502 m 0,0,1
 323 502 323 502 363 462.5 c 128,-1,2
 403 423 403 423 403 347 c 2,3,-1
 403 20 l 2,4,5
 403 0 403 0 384 0 c 2,6,-1
 376 0 l 2,7,8
 356 0 356 0 356 20 c 2,9,-1
 356 336 l 2,10,11
 356 455 356 455 247 455 c 0,12,13
 190 455 190 455 150 410 c 1,14,15
 139 401 139 401 131 401 c 0,16,17
 113 401 113 401 112 421 c 0,18,19
 112 429 112 429 116 437 c 1,20,21
 137 466 137 466 172 484 c 128,-1,22
 207 502 207 502 248 502 c 0,0,1
79 499 m 2,23,-1
 87 499 l 2,24,25
 95 499 95 499 101 493.5 c 128,-1,26
 107 488 107 488 107 479 c 2,27,-1
 107 20 l 2,28,29
 107 11 107 11 101 5.5 c 128,-1,30
 95 0 95 0 87 0 c 2,31,-1
 79 0 l 2,32,33
 71 0 71 0 65 5.5 c 128,-1,34
 59 11 59 11 59 20 c 2,35,-1
 59 479 l 2,36,37
 59 488 59 488 65 493.5 c 128,-1,38
 71 499 71 499 79 499 c 2,23,-1
EndSplineSet
EndChar

StartChar: o
Encoding: 111 111 83
Width: 504
GlyphClass: 2
Flags: W
LayerCount: 2
Fore
SplineSet
118 459 m 128,-1,1
 166 502 166 502 243 502 c 128,-1,2
 320 502 320 502 367 458.5 c 128,-1,3
 414 415 414 415 414 337 c 2,4,-1
 414 163 l 2,5,6
 414 85 414 85 367 41.5 c 128,-1,7
 320 -2 320 -2 243.5 -2 c 128,-1,8
 167 -2 167 -2 118.5 41.5 c 128,-1,9
 70 85 70 85 70 163 c 2,10,-1
 70 337 l 2,11,0
 70 416 70 416 118 459 c 128,-1,1
332 424.5 m 128,-1,13
 297 455 297 455 243 455 c 128,-1,14
 189 455 189 455 153 424.5 c 128,-1,15
 117 394 117 394 117 337 c 2,16,-1
 117 163 l 2,17,18
 117 106 117 106 153 75.5 c 128,-1,19
 189 45 189 45 243 45 c 128,-1,20
 297 45 297 45 332 75.5 c 128,-1,21
 367 106 367 106 367 163 c 2,22,-1
 367 337 l 2,23,12
 367 394 367 394 332 424.5 c 128,-1,13
EndSplineSet
Substitution2: "Single Substitution lookup 8 subtable" ordmasculine
Substitution2: "'aalt' Access All Alternates lookup 0 subtable" ordmasculine
EndChar

StartChar: p
Encoding: 112 112 84
Width: 510
GlyphClass: 2
Flags: W
LayerCount: 2
Fore
SplineSet
105.5 458.5 m 128,-1,1
 153 502 153 502 229.5 502 c 128,-1,2
 306 502 306 502 354 459 c 128,-1,3
 402 416 402 416 402 337 c 2,4,-1
 402 163 l 2,5,6
 402 86 402 86 354 42 c 128,-1,7
 306 -2 306 -2 229.5 -2 c 128,-1,8
 153 -2 153 -2 105 39 c 1,9,-1
 105 -231 l 2,10,11
 105 -250 105 -250 86 -250 c 2,12,-1
 77 -250 l 2,13,14
 58 -250 58 -250 58 -231 c 2,15,-1
 58 337 l 2,16,0
 58 415 58 415 105.5 458.5 c 128,-1,1
230 454 m 128,-1,18
 176 454 176 454 140.5 423.5 c 128,-1,19
 105 393 105 393 105 336 c 2,20,-1
 105 93 l 1,21,22
 166 46 166 46 225 46 c 128,-1,23
 284 46 284 46 319.5 77 c 128,-1,24
 355 108 355 108 355 165 c 2,25,-1
 355 336 l 2,26,27
 355 394 355 394 319.5 424 c 128,-1,17
 284 454 284 454 230 454 c 128,-1,18
EndSplineSet
EndChar

StartChar: q
Encoding: 113 113 85
Width: 516
GlyphClass: 2
Flags: W
LayerCount: 2
Fore
SplineSet
221 502 m 128,-1,1
 298 502 298 502 345.5 458.5 c 128,-1,2
 393 415 393 415 393 337 c 2,3,-1
 393 -231 l 2,4,5
 393 -239 393 -239 387 -244.5 c 128,-1,6
 381 -250 381 -250 373 -250 c 2,7,-1
 365 -250 l 2,8,9
 357 -250 357 -250 351 -244.5 c 128,-1,10
 345 -239 345 -239 345 -231 c 2,11,-1
 345 39 l 1,12,13
 292 -2 292 -2 218.5 -2 c 128,-1,14
 145 -2 145 -2 96.5 42 c 128,-1,15
 48 86 48 86 48 163 c 2,16,-1
 48 337 l 2,17,18
 48 416 48 416 96 459 c 128,-1,0
 144 502 144 502 221 502 c 128,-1,1
221 454 m 128,-1,20
 167 454 167 454 131.5 424 c 128,-1,21
 96 394 96 394 96 336 c 2,22,-1
 96 165 l 2,23,24
 96 108 96 108 131.5 77 c 128,-1,25
 167 46 167 46 227 46 c 128,-1,26
 287 46 287 46 328 87 c 1,27,28
 333 95 333 95 345 93 c 1,29,-1
 345 336 l 2,30,31
 345 393 345 393 310 423.5 c 128,-1,19
 275 454 275 454 221 454 c 128,-1,20
EndSplineSet
EndChar

StartChar: r
Encoding: 114 114 86
Width: 291
GlyphClass: 2
Flags: W
LayerCount: 2
Fore
SplineSet
240 502 m 0,0,1
 259 502 259 502 259 482 c 2,2,-1
 259 475 l 2,3,4
 259 467 259 467 253.5 461 c 128,-1,5
 248 455 248 455 240 455 c 0,6,7
 183 455 183 455 149 426 c 128,-1,8
 115 397 115 397 115 337 c 2,9,-1
 115 20 l 2,10,11
 115 11 115 11 109 5.5 c 128,-1,12
 103 0 103 0 95 0 c 2,13,-1
 88 0 l 2,14,15
 80 0 80 0 74 5.5 c 128,-1,16
 68 11 68 11 68 20 c 2,17,-1
 68 337 l 2,18,19
 68 419 68 419 114 460.5 c 128,-1,20
 160 502 160 502 240 502 c 0,0,1
EndSplineSet
EndChar

StartChar: s
Encoding: 115 115 87
Width: 455
GlyphClass: 2
Flags: W
LayerCount: 2
Fore
SplineSet
113.5 464 m 128,-1,1
 152 502 152 502 228.5 502 c 128,-1,2
 305 502 305 502 346 464.5 c 128,-1,3
 387 427 387 427 387 354 c 0,4,5
 387 346 387 346 381.5 340.5 c 128,-1,6
 376 335 376 335 368 335 c 2,7,-1
 359 335 l 2,8,9
 351 335 351 335 345.5 340.5 c 128,-1,10
 340 346 340 346 340 353 c 0,11,12
 340 454 340 454 227 454 c 0,13,14
 175 454 175 454 148.5 429 c 128,-1,15
 122 404 122 404 122 366 c 128,-1,16
 122 328 122 328 147.5 305.5 c 128,-1,17
 173 283 173 283 244 269 c 128,-1,18
 315 255 315 255 355 225 c 128,-1,19
 395 195 395 195 395 135.5 c 128,-1,20
 395 76 395 76 351.5 36.5 c 128,-1,21
 308 -3 308 -3 230.5 -3 c 128,-1,22
 153 -3 153 -3 105 36.5 c 128,-1,23
 57 76 57 76 57 153 c 0,24,25
 57 174 57 174 77 174 c 2,26,-1
 85 174 l 2,27,28
 104 174 104 174 104 154 c 0,29,30
 104 45 104 45 233 45 c 0,31,32
 291 45 291 45 319.5 71.5 c 128,-1,33
 348 98 348 98 348 137 c 128,-1,34
 348 176 348 176 318 193.5 c 128,-1,35
 288 211 288 211 213.5 227 c 128,-1,36
 139 243 139 243 107 278 c 128,-1,37
 75 313 75 313 75 369.5 c 128,-1,0
 75 426 75 426 113.5 464 c 128,-1,1
EndSplineSet
EndChar

StartChar: t
Encoding: 116 116 88
Width: 336
GlyphClass: 2
Flags: W
LayerCount: 2
Fore
SplineSet
113 730 m 2,0,-1
 121 730 l 2,1,2
 140 730 140 730 140 711 c 2,3,-1
 137 154 l 1,4,5
 138 103 138 103 165.5 75 c 128,-1,6
 193 47 193 47 238 47 c 2,7,-1
 263 47 l 2,8,9
 271 47 271 47 276.5 41 c 128,-1,10
 282 35 282 35 282 28 c 2,11,-1
 282 20 l 2,12,13
 282 0 282 0 237 0 c 0,14,15
 171 0 171 0 131 40.5 c 128,-1,16
 91 81 91 81 90 153 c 1,17,-1
 93 711 l 1,18,19
 95 730 95 730 113 730 c 2,0,-1
36 500 m 2,20,-1
 60 500 l 2,21,22
 69 500 69 500 74.5 494 c 128,-1,23
 80 488 80 488 80 480 c 2,24,-1
 80 474 l 2,25,26
 80 466 80 466 74.5 460 c 128,-1,27
 69 454 69 454 60 454 c 2,28,-1
 36 454 l 2,29,30
 27 454 27 454 21.5 460 c 128,-1,31
 16 466 16 466 16 474 c 2,32,-1
 16 480 l 2,33,34
 16 488 16 488 21.5 494 c 128,-1,35
 27 500 27 500 36 500 c 2,20,-1
170 500 m 2,36,-1
 244 500 l 2,37,38
 252 500 252 500 257.5 494 c 128,-1,39
 263 488 263 488 263 480 c 2,40,-1
 263 474 l 2,41,42
 263 466 263 466 257.5 460 c 128,-1,43
 252 454 252 454 244 454 c 2,44,-1
 170 454 l 2,45,46
 162 454 162 454 156 460 c 128,-1,47
 150 466 150 466 150 474 c 2,48,-1
 150 480 l 2,49,50
 150 488 150 488 156 494 c 128,-1,51
 162 500 162 500 170 500 c 2,36,-1
EndSplineSet
EndChar

StartChar: u
Encoding: 117 117 89
Width: 498
GlyphClass: 2
Flags: W
LayerCount: 2
Fore
SplineSet
90 502 m 2,0,-1
 98 502 l 2,1,2
 118 502 118 502 118 482 c 2,3,-1
 118 166 l 2,4,5
 118 107 118 107 147.5 77 c 128,-1,6
 177 47 177 47 231 47 c 128,-1,7
 285 47 285 47 324 90 c 0,8,9
 333 101 333 101 343 101 c 0,10,11
 362 101 362 101 362 79 c 0,12,13
 362 70 362 70 357 63 c 0,14,15
 337 35 337 35 301 17.5 c 128,-1,16
 265 0 265 0 225 0 c 0,17,18
 156 0 156 0 113.5 43.5 c 128,-1,19
 71 87 71 87 71 165 c 2,20,-1
 71 482 l 2,21,22
 71 502 71 502 90 502 c 2,0,-1
386 500 m 2,23,-1
 396 500 l 2,24,25
 415 500 415 500 415 480 c 2,26,-1
 415 117 l 2,27,28
 415 78 415 78 421.5 63.5 c 128,-1,29
 428 49 428 49 447 44 c 2,30,-1
 458 41 l 1,31,32
 473 38 473 38 473 28 c 2,33,-1
 473 17 l 2,34,35
 473 0 473 0 453 0 c 0,36,37
 404 0 404 0 385.5 29 c 128,-1,38
 367 58 367 58 367 118 c 2,39,-1
 367 480 l 2,40,41
 367 500 367 500 386 500 c 2,23,-1
EndSplineSet
EndChar

StartChar: v
Encoding: 118 118 90
Width: 488
GlyphClass: 2
Flags: W
LayerCount: 2
Fore
SplineSet
409 500 m 2,0,-1
 418 500 l 2,1,2
 429 500 429 500 433.5 493.5 c 128,-1,3
 438 487 438 487 438 482.5 c 128,-1,4
 438 478 438 478 437 474 c 2,5,-1
 272 27 l 1,6,7
 260 -1 260 -1 233 -1 c 128,-1,8
 206 -1 206 -1 197 26 c 2,9,-1
 32 474 l 2,10,11
 31 478 31 478 31 482.5 c 128,-1,12
 31 487 31 487 35.5 493.5 c 128,-1,13
 40 500 40 500 51 500 c 2,14,-1
 60 500 l 2,15,16
 72 500 72 500 79 487 c 1,17,-1
 235 60 l 1,18,-1
 390 487 l 1,19,20
 396 500 396 500 409 500 c 2,0,-1
EndSplineSet
EndChar

StartChar: w
Encoding: 119 119 91
Width: 585
GlyphClass: 2
Flags: W
LayerCount: 2
Fore
SplineSet
530 500 m 2,0,-1
 539 500 l 2,1,2
 548 500 548 500 553 493.5 c 128,-1,3
 558 487 558 487 558 482.5 c 128,-1,4
 558 478 558 478 549 440 c 128,-1,5
 540 402 540 402 503.5 249.5 c 128,-1,6
 467 97 467 97 448 23 c 1,7,8
 440 -2 440 -2 411 -2 c 128,-1,9
 382 -2 382 -2 371 28 c 1,10,-1
 281 322 l 1,11,12
 217 118 217 118 191 28 c 1,13,14
 180 -2 180 -2 151 -2 c 128,-1,15
 122 -2 122 -2 114 23 c 1,16,-1
 4 476 l 2,17,18
 3 479 3 479 3 483.5 c 128,-1,19
 3 488 3 488 7.5 494 c 128,-1,20
 12 500 12 500 22 500 c 2,21,-1
 31 500 l 2,22,23
 47 500 47 500 50 485 c 2,24,-1
 152 62 l 1,25,-1
 250 379 l 1,26,27
 256 407 256 407 280.5 407 c 128,-1,28
 305 407 305 407 314 380 c 1,29,30
 346 269 346 269 410 62 c 1,31,-1
 513 485 l 2,32,33
 517 500 517 500 530 500 c 2,0,-1
EndSplineSet
EndChar

StartChar: x
Encoding: 120 120 92
Width: 442
GlyphClass: 2
Flags: W
LayerCount: 2
Fore
SplineSet
351 500 m 2,0,-1
 362 500 l 2,1,2
 373 500 373 500 378 489.5 c 128,-1,3
 383 479 383 479 378 469 c 1,4,5
 356 435 356 435 310.5 365 c 128,-1,6
 265 295 265 295 244 261 c 1,7,-1
 244 262 l 1,8,9
 238 253 238 253 237 252 c 1,10,-1
 243 242 l 1,11,-1
 243 243 l 1,12,-1
 385 31 l 2,13,14
 388 26 388 26 388 21 c 0,15,16
 388 0 388 0 368 0 c 2,17,-1
 358 0 l 2,18,19
 349 0 349 0 341 8 c 1,20,-1
 209 209 l 1,21,22
 187 175 187 175 142.5 108.5 c 128,-1,23
 98 42 98 42 76 8 c 1,24,25
 68 0 68 0 59 0 c 2,26,-1
 49 0 l 2,27,28
 36 0 36 0 32.5 7.5 c 128,-1,29
 29 15 29 15 29 20 c 128,-1,30
 29 25 29 25 32 31 c 2,31,-1
 174 244 l 1,32,-1
 174 243 l 1,33,-1
 180 252 l 1,34,35
 175 259 175 259 173 262 c 2,36,-1
 39 469 l 1,37,38
 34 479 34 479 39 489.5 c 128,-1,39
 44 500 44 500 55 500 c 2,40,-1
 65 500 l 2,41,42
 74 500 74 500 82 492 c 1,43,-1
 209 296 l 1,44,-1
 335 492 l 1,45,46
 343 500 343 500 351 500 c 2,0,-1
EndSplineSet
EndChar

StartChar: y
Encoding: 121 121 93
Width: 508
GlyphClass: 2
Flags: W
LayerCount: 2
Fore
SplineSet
383 500 m 2,0,-1
 392 500 l 2,1,2
 411 500 411 500 411 480 c 2,3,-1
 411 -54 l 2,4,5
 411 -140 411 -140 365.5 -185 c 128,-1,6
 320 -230 320 -230 242 -230 c 128,-1,7
 164 -230 164 -230 121.5 -188.5 c 128,-1,8
 79 -147 79 -147 77 -70 c 0,9,10
 77 -51 77 -51 96 -51 c 2,11,-1
 105 -51 l 2,12,13
 124 -51 124 -51 124 -70 c 0,14,15
 126 -125 126 -125 159.5 -154 c 128,-1,16
 193 -183 193 -183 245 -183 c 0,17,18
 364 -183 364 -183 364 -55 c 2,19,-1
 364 480 l 2,20,21
 364 500 364 500 383 500 c 2,0,-1
87 502 m 2,22,-1
 95 502 l 2,23,24
 115 502 115 502 115 482 c 2,25,-1
 115 166 l 2,26,27
 115 107 115 107 144.5 77 c 128,-1,28
 174 47 174 47 228 47 c 128,-1,29
 282 47 282 47 321 90 c 0,30,31
 330 101 330 101 340 101 c 0,32,33
 359 101 359 101 359 79 c 0,34,35
 359 70 359 70 354 63 c 0,36,37
 334 35 334 35 298 17.5 c 128,-1,38
 262 0 262 0 222 0 c 0,39,40
 153 0 153 0 110.5 43.5 c 128,-1,41
 68 87 68 87 68 165 c 2,42,-1
 68 482 l 2,43,44
 68 502 68 502 87 502 c 2,22,-1
EndSplineSet
EndChar

StartChar: z
Encoding: 122 122 94
Width: 456
GlyphClass: 2
Flags: W
LayerCount: 2
Fore
SplineSet
74 500 m 2,0,-1
 339 500 l 2,1,2
 379 500 379 500 379 465 c 0,3,4
 379 450 379 450 362 427 c 1,5,-1
 110 47 l 1,6,-1
 365 47 l 2,7,8
 384 47 384 47 384 28 c 2,9,-1
 384 20 l 2,10,11
 384 0 384 0 365 0 c 2,12,-1
 91 0 l 2,13,14
 74 0 74 0 64 10 c 128,-1,15
 54 20 54 20 54 35 c 128,-1,16
 54 50 54 50 71 74 c 1,17,-1
 320 453 l 1,18,-1
 74 453 l 2,19,20
 55 453 55 453 55 472 c 2,21,-1
 55 480 l 2,22,23
 55 500 55 500 74 500 c 2,0,-1
EndSplineSet
EndChar

StartChar: braceleft
Encoding: 123 123 95
Width: 339
GlyphClass: 2
Flags: W
LayerCount: 2
Fore
SplineSet
291 687 m 0,0,1
 302 687 302 687 306.5 681 c 128,-1,2
 311 675 311 675 311 671 c 0,3,4
 311 652 311 652 302 645.5 c 128,-1,5
 293 639 293 639 288 639 c 0,6,7
 151 636 151 636 151 515 c 2,8,-1
 151 487 l 2,9,10
 151 481 151 481 151 475 c 0,11,12
 151 372 151 372 103 341 c 1,13,14
 139 318 139 318 146 271 c 0,15,16
 151 233 151 233 151 197 c 2,17,-1
 151 170 l 2,18,19
 151 49 151 49 291 46 c 0,20,21
 299 46 299 46 305 40.5 c 128,-1,22
 311 35 311 35 311 27 c 1,23,-1
 307 12 l 2,24,25
 303 -2 303 -2 288 -2 c 0,26,27
 103 1 103 1 103 170 c 2,28,-1
 103 195 l 2,29,30
 103 200 103 200 103 205 c 0,31,32
 103 309 103 309 40 309 c 2,33,-1
 35 309 l 2,34,35
 21 309 21 309 9.5 317.5 c 128,-1,36
 -2 326 -2 326 -2 342 c 128,-1,37
 -2 358 -2 358 9.5 366 c 128,-1,38
 21 374 21 374 35 374 c 2,39,-1
 40 374 l 2,40,41
 103 374 103 374 103 477 c 0,42,43
 103 482 103 482 103 487 c 2,44,-1
 103 515 l 2,45,46
 103 684 103 684 291 687 c 0,0,1
EndSplineSet
EndChar

StartChar: bar
Encoding: 124 124 96
Width: 211
GlyphClass: 2
Flags: W
LayerCount: 2
Fore
SplineSet
95 730 m 2,0,-1
 107 730 l 2,1,2
 126 730 126 730 126 711 c 2,3,-1
 126 -72 l 2,4,5
 126 -80 126 -80 120.5 -86 c 128,-1,6
 115 -92 115 -92 107 -92 c 2,7,-1
 95 -92 l 2,8,9
 87 -92 87 -92 81.5 -86 c 128,-1,10
 76 -80 76 -80 76 -72 c 2,11,-1
 76 711 l 2,12,13
 76 730 76 730 95 730 c 2,0,-1
EndSplineSet
EndChar

StartChar: braceright
Encoding: 125 125 97
Width: 339
GlyphClass: 2
Flags: W
LayerCount: 2
Fore
SplineSet
222 515 m 2,0,-1
 222 487 l 2,1,2
 222 482 222 482 222 477 c 0,3,4
 222 374 222 374 285 374 c 2,5,-1
 291 374 l 2,6,7
 304 374 304 374 315.5 366 c 128,-1,8
 327 358 327 358 327 342 c 128,-1,9
 327 326 327 326 315.5 317.5 c 128,-1,10
 304 309 304 309 291 309 c 2,11,-1
 285 309 l 2,12,13
 222 309 222 309 222 205 c 0,14,15
 222 200 222 200 222 195 c 2,16,-1
 222 170 l 2,17,18
 222 1 222 1 34 -2 c 0,19,20
 15 -2 15 -2 15 18 c 1,21,-1
 19 32 l 2,22,23
 20 38 20 38 26 42 c 128,-1,24
 32 46 32 46 37 46 c 0,25,26
 175 49 175 49 175 170 c 2,27,-1
 175 197 l 2,28,29
 175 309 175 309 222 341 c 1,30,31
 199 355 199 355 187.5 385.5 c 128,-1,32
 176 416 176 416 175 430 c 128,-1,33
 174 444 174 444 174 457 c 128,-1,34
 174 470 174 470 175 487 c 1,35,-1
 175 515 l 2,36,37
 175 636 175 636 34 639 c 0,38,39
 23 639 23 639 18.5 645 c 128,-1,40
 14 651 14 651 14 655 c 256,41,42
 14 659 14 659 19 673 c 256,43,44
 24 687 24 687 37 687 c 0,45,46
 222 684 222 684 222 515 c 2,0,-1
EndSplineSet
EndChar

StartChar: asciitilde
Encoding: 126 126 98
Width: 600
GlyphClass: 2
Flags: W
LayerCount: 2
Fore
SplineSet
453 508 m 2,0,-1
 477 508 l 2,1,2
 490 508 490 508 490 491 c 0,3,4
 490 436 490 436 460 407 c 128,-1,5
 430 378 430 378 388 378 c 128,-1,6
 346 378 346 378 306 399.5 c 128,-1,7
 266 421 266 421 230 442 c 128,-1,8
 194 463 194 463 171 463 c 128,-1,9
 148 463 148 463 128.5 447 c 128,-1,10
 109 431 109 431 109 396 c 0,11,12
 109 378 109 378 94 378 c 2,13,-1
 79 378 l 2,14,15
 66 378 66 378 66 396 c 0,16,17
 66 447 66 447 96 476.5 c 128,-1,18
 126 506 126 506 169.5 506 c 128,-1,19
 213 506 213 506 281.5 464 c 128,-1,20
 350 422 350 422 378 422 c 0,21,22
 444 422 444 422 444 491 c 0,23,24
 444 508 444 508 453 508 c 2,0,-1
EndSplineSet
EndChar

StartChar: exclamdown
Encoding: 161 161 99
Width: 222
GlyphClass: 2
Flags: W
LayerCount: 2
Fore
SplineSet
112 -200 m 2,0,-1
 102 -200 l 2,1,2
 83 -200 83 -200 83 -181 c 2,3,-1
 83 298 l 2,4,5
 83 317 83 317 102 317 c 2,6,-1
 112 317 l 2,7,8
 120 317 120 317 126 311.5 c 128,-1,9
 132 306 132 306 132 298 c 2,10,-1
 132 -181 l 2,11,12
 132 -189 132 -189 126 -194.5 c 128,-1,13
 120 -200 120 -200 112 -200 c 2,0,-1
106 389 m 128,-1,15
 70 389 70 389 60 397.5 c 128,-1,16
 50 406 50 406 50 438 c 2,17,-1
 50 451 l 2,18,19
 50 485 50 485 60 494 c 128,-1,20
 70 503 70 503 106 503 c 128,-1,21
 142 503 142 503 153 494 c 128,-1,22
 164 485 164 485 164 451 c 2,23,-1
 164 438 l 2,24,25
 164 408 164 408 153 398.5 c 128,-1,14
 142 389 142 389 106 389 c 128,-1,15
89 427 m 128,-1,27
 93 424 93 424 106.5 424 c 128,-1,28
 120 424 120 424 124.5 427.5 c 128,-1,29
 129 431 129 431 129 441 c 2,30,-1
 129 451 l 2,31,32
 129 462 129 462 125 465 c 128,-1,33
 121 468 121 468 107 468 c 128,-1,34
 93 468 93 468 89 465 c 128,-1,35
 85 462 85 462 85 451 c 2,36,-1
 85 441 l 2,37,26
 85 430 85 430 89 427 c 128,-1,27
EndSplineSet
EndChar

StartChar: cent
Encoding: 162 162 100
Width: 505
GlyphClass: 2
Flags: W
LayerCount: 2
Fore
SplineSet
242 684 m 2,0,-1
 249 684 l 2,1,2
 257 684 257 684 263 678.5 c 128,-1,3
 269 673 269 673 269 665 c 2,4,-1
 269 501 l 1,5,6
 335 494 335 494 374.5 451.5 c 128,-1,7
 414 409 414 409 414 337 c 0,8,9
 414 318 414 318 394 318 c 2,10,-1
 386 318 l 2,11,12
 367 318 367 318 367 337 c 0,13,14
 367 386 367 386 340 415.5 c 128,-1,15
 313 445 313 445 269 452 c 1,16,-1
 269 47 l 1,17,18
 312 54 312 54 339 83 c 128,-1,19
 366 112 366 112 367 160 c 0,20,21
 367 168 367 168 372.5 174 c 128,-1,22
 378 180 378 180 386 180 c 2,23,-1
 394 180 l 2,24,25
 403 180 403 180 408.5 174 c 128,-1,26
 414 168 414 168 414 160 c 0,27,28
 412 90 412 90 372.5 48 c 128,-1,29
 333 6 333 6 269 -1 c 1,30,-1
 269 -164 l 2,31,32
 269 -172 269 -172 263 -177.5 c 128,-1,33
 257 -183 257 -183 249 -183 c 2,34,-1
 242 -183 l 2,35,36
 234 -183 234 -183 228 -177.5 c 128,-1,37
 222 -172 222 -172 222 -164 c 2,38,-1
 222 -1 l 1,39,40
 153 5 153 5 111.5 48 c 128,-1,41
 70 91 70 91 70 163 c 2,42,-1
 70 337 l 2,43,44
 70 410 70 410 111.5 452.5 c 128,-1,45
 153 495 153 495 222 501 c 1,46,-1
 222 665 l 2,47,48
 222 673 222 673 228 678.5 c 128,-1,49
 234 684 234 684 242 684 c 2,0,-1
118 164 m 2,50,51
 118 112 118 112 146.5 82.5 c 128,-1,52
 175 53 175 53 222 47 c 1,53,-1
 222 453 l 1,54,55
 175 447 175 447 146.5 417 c 128,-1,56
 118 387 118 387 118 336 c 2,57,-1
 118 164 l 2,50,51
EndSplineSet
EndChar

StartChar: sterling
Encoding: 163 163 101
Width: 600
GlyphClass: 2
Flags: W
LayerCount: 2
Fore
SplineSet
214.5 628.5 m 128,-1,1
 186 606 186 606 176 575.5 c 128,-1,2
 166 545 166 545 166 507 c 2,3,-1
 166 50 l 1,4,-1
 476 51 l 2,5,6
 484 51 484 51 490 45 c 128,-1,7
 496 39 496 39 496 30 c 2,8,-1
 496 20 l 1,9,10
 494 2 494 2 476 0 c 1,11,-1
 160 1 l 2,12,13
 133 1 133 1 124.5 10 c 128,-1,14
 116 19 116 19 116 45 c 2,15,-1
 115 512 l 2,16,17
 115 596 115 596 157.5 648 c 128,-1,18
 200 700 200 700 292 700 c 0,19,20
 351 700 351 700 413 669 c 0,21,22
 435 658 435 658 442 650 c 128,-1,23
 449 642 449 642 443 633 c 2,24,-1
 430 612 l 1,25,26
 425 602 425 602 392 620 c 0,27,28
 338 651 338 651 290.5 651 c 128,-1,0
 243 651 243 651 214.5 628.5 c 128,-1,1
47 379 m 2,29,-1
 93 379 l 2,30,31
 101 379 101 379 107 373 c 128,-1,32
 113 367 113 367 113 359 c 2,33,-1
 113 350 l 2,34,35
 113 342 113 342 107 336.5 c 128,-1,36
 101 331 101 331 93 331 c 2,37,-1
 47 331 l 2,38,39
 28 331 28 331 28 350 c 2,40,-1
 28 359 l 2,41,42
 28 367 28 367 33.5 373 c 128,-1,43
 39 379 39 379 47 379 c 2,29,-1
198 379 m 2,44,-1
 395 379 l 2,45,46
 404 379 404 379 409.5 373 c 128,-1,47
 415 367 415 367 415 359 c 2,48,-1
 415 350 l 2,49,50
 415 331 415 331 395 331 c 2,51,-1
 198 331 l 2,52,53
 190 331 190 331 184 336.5 c 128,-1,54
 178 342 178 342 178 350 c 2,55,-1
 178 359 l 2,56,57
 178 367 178 367 184 373 c 128,-1,58
 190 379 190 379 198 379 c 2,44,-1
EndSplineSet
EndChar

StartChar: currency
Encoding: 164 164 102
Width: 609
GlyphClass: 2
Flags: W
LayerCount: 2
Fore
SplineSet
65 536 m 1,0,1
 60 543 60 543 60 550.5 c 128,-1,2
 60 558 60 558 68.5 566.5 c 128,-1,3
 77 575 77 575 84.5 575 c 128,-1,4
 92 575 92 575 99 570 c 1,5,-1
 174 493 l 1,6,7
 230 539 230 539 304 539 c 128,-1,8
 378 539 378 539 434 494 c 1,9,-1
 510 570 l 2,10,11
 515 575 515 575 524.5 575 c 128,-1,12
 534 575 534 575 541.5 567.5 c 128,-1,13
 549 560 549 560 549 550.5 c 128,-1,14
 549 541 549 541 544 536 c 2,15,-1
 467 460 l 1,16,17
 512 404 512 404 512 331 c 128,-1,18
 512 258 512 258 467 201 c 1,19,-1
 544 125 l 1,20,21
 549 118 549 118 549 110.5 c 128,-1,22
 549 103 549 103 540.5 94.5 c 128,-1,23
 532 86 532 86 524.5 86 c 128,-1,24
 517 86 517 86 510 91 c 1,25,-1
 434 168 l 1,26,27
 378 124 378 124 305.5 124 c 128,-1,28
 233 124 233 124 175 168 c 1,29,-1
 99 91 l 1,30,31
 92 86 92 86 85 86 c 0,32,33
 75 86 75 86 65 96 c 1,34,35
 60 104 60 104 60 111 c 128,-1,36
 60 118 60 118 65 125 c 1,37,-1
 142 201 l 1,38,39
 97 258 97 258 97 331 c 128,-1,40
 97 404 97 404 141 460 c 1,41,-1
 65 536 l 1,0,1
417 444 m 128,-1,43
 370 491 370 491 304.5 491 c 128,-1,44
 239 491 239 491 192.5 444.5 c 128,-1,45
 146 398 146 398 146 331.5 c 128,-1,46
 146 265 146 265 192 219 c 128,-1,47
 238 173 238 173 304.5 173 c 128,-1,48
 371 173 371 173 417.5 219.5 c 128,-1,49
 464 266 464 266 464 331.5 c 128,-1,42
 464 397 464 397 417 444 c 128,-1,43
EndSplineSet
EndChar

StartChar: yen
Encoding: 165 165 103
Width: 436
GlyphClass: 2
Flags: W
LayerCount: 2
Fore
SplineSet
43 357 m 2,0,-1
 176 357 l 1,1,-1
 0 654 l 2,2,3
 -3 659 -3 659 -3 664 c 128,-1,4
 -3 669 -3 669 1 676.5 c 128,-1,5
 5 684 5 684 17 684 c 2,6,-1
 28 684 l 2,7,8
 40 684 40 684 45 675 c 2,9,-1
 212 391 l 1,10,-1
 367 674 l 2,11,12
 372 684 372 684 385 684 c 2,13,-1
 396 684 l 2,14,15
 408 684 408 684 412 677 c 128,-1,16
 416 670 416 670 416 665 c 128,-1,17
 416 660 416 660 413 655 c 2,18,-1
 247 357 l 1,19,-1
 376 357 l 2,20,21
 396 357 396 357 396 338 c 2,22,-1
 396 329 l 2,23,24
 396 321 396 321 390.5 315 c 128,-1,25
 385 309 385 309 376 309 c 2,26,-1
 235 309 l 1,27,-1
 235 280 l 1,28,-1
 376 280 l 2,29,30
 385 280 385 280 390.5 274 c 128,-1,31
 396 268 396 268 396 260 c 2,32,-1
 396 251 l 2,33,34
 396 243 396 243 390.5 237 c 128,-1,35
 385 231 385 231 376 231 c 2,36,-1
 235 231 l 1,37,-1
 235 20 l 2,38,39
 235 0 235 0 216 0 c 2,40,-1
 207 0 l 2,41,42
 199 0 199 0 193 5.5 c 128,-1,43
 187 11 187 11 187 20 c 2,44,-1
 187 231 l 1,45,-1
 43 231 l 2,46,47
 35 231 35 231 29.5 237 c 128,-1,48
 24 243 24 243 24 251 c 2,49,-1
 24 260 l 2,50,51
 24 268 24 268 29.5 274 c 128,-1,52
 35 280 35 280 43 280 c 2,53,-1
 187 280 l 1,54,-1
 187 309 l 1,55,-1
 43 309 l 2,56,57
 35 309 35 309 29.5 315 c 128,-1,58
 24 321 24 321 24 329 c 2,59,-1
 24 338 l 2,60,61
 24 357 24 357 43 357 c 2,0,-1
EndSplineSet
EndChar

StartChar: brokenbar
Encoding: 166 166 104
Width: 200
GlyphClass: 2
Flags: W
LayerCount: 2
Fore
SplineSet
93 684 m 2,0,-1
 102 684 l 2,1,2
 121 684 121 684 121 665 c 2,3,-1
 121 425 l 2,4,5
 121 417 121 417 115.5 411 c 128,-1,6
 110 405 110 405 102 405 c 2,7,-1
 93 405 l 2,8,9
 84 405 84 405 78.5 411 c 128,-1,10
 73 417 73 417 73 425 c 2,11,-1
 73 665 l 2,12,13
 73 684 73 684 93 684 c 2,0,-1
93 282 m 2,14,-1
 102 282 l 2,15,16
 110 282 110 282 115.5 276 c 128,-1,17
 121 270 121 270 121 262 c 2,18,-1
 121 22 l 2,19,20
 121 3 121 3 102 3 c 2,21,-1
 93 3 l 2,22,23
 73 3 73 3 73 22 c 2,24,-1
 73 262 l 2,25,26
 73 270 73 270 78.5 276 c 128,-1,27
 84 282 84 282 93 282 c 2,14,-1
EndSplineSet
EndChar

StartChar: section
Encoding: 167 167 105
Width: 474
GlyphClass: 2
Flags: W
LayerCount: 2
Fore
SplineSet
119.5 690 m 128,-1,1
 164 732 164 732 250 732 c 128,-1,2
 336 732 336 732 385 689 c 128,-1,3
 434 646 434 646 434 563 c 0,4,5
 434 555 434 555 428.5 549 c 128,-1,6
 423 543 423 543 415 543 c 2,7,-1
 406 543 l 2,8,9
 386 543 386 543 386 566 c 0,10,11
 386 624 386 624 350 653.5 c 128,-1,12
 314 683 314 683 255 683 c 128,-1,13
 196 683 196 683 161.5 657 c 128,-1,14
 127 631 127 631 127 590 c 0,15,16
 127 540 127 540 174 506 c 0,17,18
 206 483 206 483 255 456 c 128,-1,19
 304 429 304 429 311.5 424.5 c 128,-1,20
 319 420 319 420 343.5 405.5 c 128,-1,21
 368 391 368 391 375.5 384 c 128,-1,22
 383 377 383 377 398.5 362.5 c 128,-1,23
 414 348 414 348 419 336 c 0,24,25
 434 298 434 298 434 269 c 0,26,27
 434 216 434 216 400 175.5 c 128,-1,28
 366 135 366 135 308 120 c 1,29,30
 367 87 367 87 389.5 55.5 c 128,-1,31
 412 24 412 24 412 -20 c 0,32,33
 412 -88 412 -88 360 -128 c 128,-1,34
 308 -168 308 -168 230.5 -168 c 128,-1,35
 153 -168 153 -168 96.5 -124 c 128,-1,36
 40 -80 40 -80 40 0 c 0,37,38
 40 8 40 8 45.5 14 c 128,-1,39
 51 20 51 20 59 20 c 2,40,-1
 68 20 l 2,41,42
 88 20 88 20 88 -3 c 0,43,44
 88 -55 88 -55 130 -88.5 c 128,-1,45
 172 -122 172 -122 228.5 -122 c 128,-1,46
 285 -122 285 -122 325 -95.5 c 128,-1,47
 365 -69 365 -69 365 -22 c 0,48,49
 365 27 365 27 320 60 c 1,50,51
 284 85 284 85 211 118.5 c 128,-1,52
 138 152 138 152 92.5 196 c 128,-1,53
 47 240 47 240 47 296.5 c 128,-1,54
 47 353 47 353 77.5 395 c 128,-1,55
 108 437 108 437 163 454 c 1,56,57
 115 487 115 487 95 518 c 128,-1,58
 75 549 75 549 75 598.5 c 128,-1,0
 75 648 75 648 119.5 690 c 128,-1,1
96 307 m 0,59,60
 96 247 96 247 146 208 c 1,61,62
 184 180 184 180 243 153 c 1,63,64
 307 156 307 156 347 187.5 c 128,-1,65
 387 219 387 219 387 268 c 0,66,67
 387 321 387 321 344 352 c 1,68,69
 317 370 317 370 290 384 c 2,70,-1
 216 422 l 1,71,72
 165 420 165 420 130.5 386.5 c 128,-1,73
 96 353 96 353 96 307 c 0,59,60
EndSplineSet
EndChar

StartChar: dieresis
Encoding: 168 168 106
Width: 361
GlyphClass: 2
Flags: W
LayerCount: 2
Fore
SplineSet
214 659 m 128,-1,1
 223 667 223 667 255.5 667 c 128,-1,2
 288 667 288 667 298 658.5 c 128,-1,3
 308 650 308 650 308 622 c 2,4,-1
 308 610 l 2,5,6
 308 580 308 580 298 571.5 c 128,-1,7
 288 563 288 563 255.5 563 c 128,-1,8
 223 563 223 563 214 571.5 c 128,-1,9
 205 580 205 580 205 610 c 2,10,-1
 205 622 l 2,11,0
 205 651 205 651 214 659 c 128,-1,1
48 659 m 128,-1,13
 57 667 57 667 89.5 667 c 128,-1,14
 122 667 122 667 132 658.5 c 128,-1,15
 142 650 142 650 142 622 c 2,16,-1
 142 610 l 2,17,18
 142 580 142 580 132 571.5 c 128,-1,19
 122 563 122 563 89.5 563 c 128,-1,20
 57 563 57 563 48 571 c 128,-1,21
 39 579 39 579 39 610 c 2,22,-1
 39 622 l 2,23,12
 39 651 39 651 48 659 c 128,-1,13
106 632 m 128,-1,25
 102 635 102 635 90 635 c 128,-1,26
 78 635 78 635 74.5 632.5 c 128,-1,27
 71 630 71 630 71 620 c 2,28,-1
 71 610 l 2,29,30
 71 600 71 600 74.5 597.5 c 128,-1,31
 78 595 78 595 90.5 595 c 128,-1,32
 103 595 103 595 106.5 597.5 c 128,-1,33
 110 600 110 600 110 610 c 2,34,-1
 110 620 l 2,35,24
 110 629 110 629 106 632 c 128,-1,25
272 632 m 128,-1,37
 268 635 268 635 256 635 c 128,-1,38
 244 635 244 635 240.5 632.5 c 128,-1,39
 237 630 237 630 237 620 c 2,40,-1
 237 610 l 2,41,42
 237 600 237 600 240.5 597.5 c 128,-1,43
 244 595 244 595 256.5 595 c 128,-1,44
 269 595 269 595 272.5 597.5 c 128,-1,45
 276 600 276 600 276 610 c 2,46,-1
 276 620 l 2,47,36
 276 629 276 629 272 632 c 128,-1,37
EndSplineSet
EndChar

StartChar: copyright
Encoding: 169 169 107
Width: 620
GlyphClass: 2
Flags: W
LayerCount: 2
Fore
SplineSet
312 756 m 128,-1,1
 445 756 445 756 522.5 679.5 c 128,-1,2
 600 603 600 603 600 478 c 2,3,-1
 600 278 l 2,4,5
 600 153 600 153 522.5 76.5 c 128,-1,6
 445 0 445 0 313 0 c 128,-1,7
 181 0 181 0 100.5 77 c 128,-1,8
 20 154 20 154 20 278 c 2,9,-1
 20 478 l 2,10,11
 20 607 20 607 99.5 681.5 c 128,-1,0
 179 756 179 756 312 756 c 128,-1,1
195.5 566 m 128,-1,13
 239 605 239 605 309 605 c 128,-1,14
 379 605 379 605 421.5 565.5 c 128,-1,15
 464 526 464 526 464 455 c 0,16,17
 464 438 464 438 446 438 c 2,18,-1
 438 438 l 2,19,20
 431 438 431 438 426 443 c 128,-1,21
 421 448 421 448 421 455 c 0,22,23
 421 506 421 506 389.5 533.5 c 128,-1,24
 358 561 358 561 309 561 c 128,-1,25
 260 561 260 561 228 533.5 c 128,-1,26
 196 506 196 506 196 454 c 2,27,-1
 196 298 l 2,28,29
 196 246 196 246 228 218.5 c 128,-1,30
 260 191 260 191 309 191 c 128,-1,31
 358 191 358 191 389 217.5 c 128,-1,32
 420 244 420 244 421 294 c 0,33,34
 421 312 421 312 438 312 c 2,35,-1
 446 312 l 2,36,37
 464 312 464 312 464 294 c 0,38,39
 462 225 462 225 419.5 186 c 128,-1,40
 377 147 377 147 308.5 147 c 128,-1,41
 240 147 240 147 196 187 c 128,-1,42
 152 227 152 227 152 297 c 2,43,-1
 152 455 l 2,44,12
 152 527 152 527 195.5 566 c 128,-1,13
312 708 m 128,-1,46
 212 708 212 708 140 651.5 c 128,-1,47
 68 595 68 595 68 492 c 2,48,-1
 68 264 l 2,49,50
 68 161 68 161 140 104.5 c 128,-1,51
 212 48 212 48 312 48 c 128,-1,52
 412 48 412 48 482 104 c 128,-1,53
 552 160 552 160 552 264 c 2,54,-1
 552 492 l 2,55,56
 552 596 552 596 482 652 c 128,-1,45
 412 708 412 708 312 708 c 128,-1,46
EndSplineSet
EndChar

StartChar: ordfeminine
Encoding: 170 170 108
Width: 504
GlyphClass: 2
Flags: W
LayerCount: 2
Fore
SplineSet
376 399 m 0,0,1
 322 399 322 399 322 465 c 2,2,-1
 322 616 l 2,3,4
 322 651 322 651 302 671 c 128,-1,5
 282 691 282 691 246.5 691 c 128,-1,6
 211 691 211 691 191 670 c 128,-1,7
 171 649 171 649 171 614 c 2,8,-1
 171 517 l 2,9,10
 171 435 171 435 247 435 c 0,11,12
 270 435 270 435 293 449 c 0,13,14
 298 453 298 453 301 447 c 2,15,-1
 310 424 l 1,16,17
 314 417 314 417 310 414 c 0,18,19
 280 394 280 394 236 394 c 128,-1,20
 192 394 192 394 161 423.5 c 128,-1,21
 130 453 130 453 130 507 c 2,22,-1
 130 624 l 2,23,24
 130 678 130 678 161.5 705 c 128,-1,25
 193 732 193 732 247 732 c 0,26,27
 363 732 363 732 363 617 c 2,28,-1
 363 488 l 2,29,30
 363 448 363 448 372 441 c 0,31,32
 383 432 383 432 396 437 c 128,-1,33
 409 442 409 442 409 435 c 2,34,-1
 409 410 l 2,35,36
 409 406 409 406 400.5 402.5 c 128,-1,37
 392 399 392 399 376 399 c 0,0,1
EndSplineSet
EndChar

StartChar: guillemotleft
Encoding: 171 171 109
Width: 558
GlyphClass: 2
Flags: W
LayerCount: 2
Fore
SplineSet
481 530 m 1,0,1
 487 533 487 533 495 533 c 128,-1,2
 503 533 503 533 510 526 c 128,-1,3
 517 519 517 519 517 508 c 128,-1,4
 517 497 517 497 505 488 c 2,5,-1
 280 320 l 1,6,-1
 505 152 l 2,7,8
 518 143 518 143 518 134 c 0,9,10
 518 106 518 106 494 106 c 0,11,12
 486 106 486 106 481 110 c 2,13,-1
 251 283 l 2,14,15
 231 298 231 298 231 319 c 128,-1,16
 231 340 231 340 252 356 c 2,17,-1
 481 530 l 1,0,1
310 530 m 1,18,19
 316 533 316 533 324 533 c 128,-1,20
 332 533 332 533 339 526 c 128,-1,21
 346 519 346 519 346 508 c 128,-1,22
 346 497 346 497 334 488 c 2,23,-1
 109 320 l 1,24,-1
 334 152 l 2,25,26
 347 143 347 143 347 134 c 0,27,28
 347 106 347 106 323 106 c 0,29,30
 315 106 315 106 310 110 c 2,31,-1
 80 283 l 2,32,33
 60 298 60 298 60 319 c 128,-1,34
 60 340 60 340 81 356 c 2,35,-1
 310 530 l 1,18,19
EndSplineSet
EndChar

StartChar: logicalnot
Encoding: 172 172 110
Width: 480
GlyphClass: 2
Flags: W
LayerCount: 2
Fore
SplineSet
12 500 m 2,0,-1
 466 500 l 2,1,2
 484 500 484 500 486.5 497 c 128,-1,3
 489 494 489 494 490 493 c 128,-1,4
 491 492 491 492 491.5 488 c 128,-1,5
 492 484 492 484 492 482 c 2,6,-1
 492 313 l 2,7,8
 492 294 492 294 473 294 c 2,9,-1
 463 294 l 2,10,11
 444 294 444 294 444 313 c 2,12,-1
 444 452 l 1,13,-1
 12 452 l 2,14,15
 -8 452 -8 452 -8 471 c 2,16,-1
 -8 480 l 2,17,18
 -8 500 -8 500 12 500 c 2,0,-1
EndSplineSet
EndChar

StartChar: softhyphen
Encoding: 173 173 111
Width: 351
GlyphClass: 2
Flags: W
LayerCount: 2
Fore
SplineSet
51 346 m 2,0,-1
 300 346 l 2,1,2
 320 346 320 346 320 327 c 2,3,-1
 320 317 l 2,4,5
 320 298 320 298 300 298 c 2,6,-1
 51 298 l 2,7,8
 31 298 31 298 31 317 c 2,9,-1
 31 327 l 2,10,11
 31 346 31 346 51 346 c 2,0,-1
EndSplineSet
EndChar

StartChar: registered
Encoding: 174 174 112
Width: 600
GlyphClass: 2
Flags: W
LayerCount: 2
Fore
SplineSet
312 756 m 128,-1,1
 445 756 445 756 522.5 679.5 c 128,-1,2
 600 603 600 603 600 478 c 2,3,-1
 600 278 l 2,4,5
 600 153 600 153 522.5 76.5 c 128,-1,6
 445 0 445 0 313 0 c 128,-1,7
 181 0 181 0 100.5 77 c 128,-1,8
 20 154 20 154 20 278 c 2,9,-1
 20 478 l 2,10,11
 20 607 20 607 99.5 681.5 c 128,-1,0
 179 756 179 756 312 756 c 128,-1,1
312 708 m 128,-1,13
 212 708 212 708 140 651.5 c 128,-1,14
 68 595 68 595 68 492 c 2,15,-1
 68 264 l 2,16,17
 68 161 68 161 140 104.5 c 128,-1,18
 212 48 212 48 312 48 c 128,-1,19
 412 48 412 48 482 104 c 128,-1,20
 552 160 552 160 552 264 c 2,21,-1
 552 492 l 2,22,23
 552 596 552 596 482 652 c 128,-1,12
 412 708 412 708 312 708 c 128,-1,13
208 615 m 2,24,-1
 319 615 l 2,25,26
 386 615 386 615 427 581.5 c 128,-1,27
 468 548 468 548 468 482 c 0,28,29
 468 430 468 430 436 396 c 0,30,31
 423 382 423 382 394 371 c 128,-1,32
 365 360 365 360 326 360 c 2,33,-1
 316 360 l 1,34,-1
 445 164 l 1,35,36
 458 142 458 142 458 139 c 0,37,38
 458 128 458 128 442 128 c 2,39,-1
 429 128 l 2,40,41
 415 128 415 128 410 136 c 2,42,-1
 271 347 l 1,43,44
 258 369 258 369 258 377 c 0,45,46
 258 398 258 398 284 398 c 2,47,-1
 315 398 l 2,48,49
 424 398 424 398 424 480 c 0,50,51
 424 508 424 508 412.5 528 c 128,-1,52
 401 548 401 548 382 556 c 1,53,54
 349 572 349 572 318 572 c 2,55,-1
 216 572 l 1,56,-1
 216 144 l 2,57,58
 216 129 216 129 197 129 c 2,59,-1
 192 129 l 2,60,61
 173 129 173 129 173 144 c 2,62,-1
 173 580 l 2,63,64
 173 605 173 605 178.5 610 c 128,-1,65
 184 615 184 615 208 615 c 2,24,-1
EndSplineSet
EndChar

StartChar: macron
Encoding: 175 175 113
Width: 509
GlyphClass: 2
Flags: W
LayerCount: 2
Fore
SplineSet
70 601 m 2,0,-1
 440 601 l 2,1,2
 459 601 459 601 459 582 c 2,3,-1
 459 573 l 2,4,5
 459 553 459 553 440 553 c 2,6,-1
 70 553 l 2,7,8
 50 553 50 553 50 573 c 2,9,-1
 50 582 l 2,10,11
 50 601 50 601 70 601 c 2,0,-1
EndSplineSet
EndChar

StartChar: degree
Encoding: 176 176 114
Width: 438
GlyphClass: 2
Flags: W
LayerCount: 2
Fore
SplineSet
219 758 m 128,-1,1
 272 758 272 758 310 720 c 128,-1,2
 348 682 348 682 348 629 c 128,-1,3
 348 576 348 576 310 538 c 128,-1,4
 272 500 272 500 219 500 c 128,-1,5
 166 500 166 500 128 538 c 128,-1,6
 90 576 90 576 90 629 c 128,-1,7
 90 682 90 682 128 720 c 128,-1,0
 166 758 166 758 219 758 c 128,-1,1
219 708 m 128,-1,9
 185 708 185 708 162.5 685.5 c 128,-1,10
 140 663 140 663 140 629 c 128,-1,11
 140 595 140 595 162.5 572.5 c 128,-1,12
 185 550 185 550 219 550 c 128,-1,13
 253 550 253 550 275.5 572.5 c 128,-1,14
 298 595 298 595 298 629 c 128,-1,15
 298 663 298 663 275.5 685.5 c 128,-1,8
 253 708 253 708 219 708 c 128,-1,9
EndSplineSet
EndChar

StartChar: plusminus
Encoding: 177 177 115
Width: 366
GlyphClass: 2
Flags: W
LayerCount: 2
Fore
SplineSet
-15 366 m 2,0,-1
 156 366 l 1,1,-1
 156 538 l 2,2,3
 156 557 156 557 175 557 c 2,4,-1
 183 557 l 1,5,6
 202 555 202 555 204 538 c 1,7,-1
 204 366 l 1,8,-1
 375 366 l 2,9,10
 394 366 394 366 394 347 c 2,11,-1
 394 338 l 2,12,13
 394 330 394 330 388.5 324 c 128,-1,14
 383 318 383 318 375 318 c 2,15,-1
 204 318 l 1,16,-1
 204 147 l 1,17,18
 202 127 202 127 184 127 c 2,19,-1
 174 127 l 1,20,21
 156 129 156 129 156 147 c 2,22,-1
 156 318 l 1,23,-1
 -15 318 l 2,24,25
 -24 318 -24 318 -29.5 324 c 128,-1,26
 -35 330 -35 330 -35 338 c 2,27,-1
 -35 347 l 2,28,29
 -35 366 -35 366 -15 366 c 2,0,-1
-16 49 m 2,30,-1
 374 49 l 2,31,32
 393 49 393 49 393 30 c 2,33,-1
 393 21 l 2,34,35
 393 13 393 13 387.5 7 c 128,-1,36
 382 1 382 1 374 1 c 2,37,-1
 -16 1 l 2,38,39
 -25 1 -25 1 -30.5 7 c 128,-1,40
 -36 13 -36 13 -36 21 c 2,41,-1
 -36 30 l 2,42,43
 -36 49 -36 49 -16 49 c 2,30,-1
EndSplineSet
EndChar

StartChar: twosuperior
Encoding: 178 178 116
Width: 500
GlyphClass: 2
Flags: W
LayerCount: 2
Fore
SplineSet
321 774 m 0,0,1
 321 842 321 842 244 842 c 0,2,3
 181 842 181 842 162 782 c 0,4,5
 160 775 160 775 150 775 c 2,6,-1
 143 775 l 2,7,8
 128 775 128 775 128 784 c 0,9,10
 128 797 128 797 131 800 c 1,11,12
 143 837 143 837 174.5 857.5 c 128,-1,13
 206 878 206 878 252.5 878 c 128,-1,14
 299 878 299 878 330 848.5 c 128,-1,15
 361 819 361 819 361 773 c 0,16,17
 361 711 361 711 285 614 c 0,18,19
 270 595 270 595 222 538 c 2,20,-1
 174 481 l 1,21,-1
 353 481 l 2,22,23
 366 481 366 481 366 469 c 2,24,-1
 366 455 l 2,25,26
 366 443 366 443 353 443 c 0,27,28
 250 443 250 443 146 443 c 0,29,30
 119 443 119 443 119 466 c 0,31,32
 119 477 119 477 155 519 c 0,33,34
 239 617 239 617 255 639 c 0,35,36
 321 724 321 724 321 774 c 0,0,1
EndSplineSet
EndChar

StartChar: threesuperior
Encoding: 179 179 117
Width: 535
GlyphClass: 2
Flags: W
LayerCount: 2
Fore
SplineSet
187 861.5 m 128,-1,1
 218 887 218 887 267 887 c 128,-1,2
 316 887 316 887 346 854 c 128,-1,3
 376 821 376 821 376 771 c 0,4,5
 376 740 376 740 359.5 712.5 c 128,-1,6
 343 685 343 685 310 671 c 1,7,8
 386 648 386 648 386 564 c 0,9,10
 386 504 386 504 347 474 c 128,-1,11
 308 444 308 444 259 444 c 0,12,13
 155 444 155 444 135 540 c 0,14,15
 133 546 133 546 133 549 c 128,-1,16
 133 552 133 552 139 552 c 2,17,-1
 163 553 l 1,18,-1
 166 553 l 2,19,20
 167 553 167 553 169 546 c 0,21,22
 186 480 186 480 259 480 c 0,23,24
 299 480 299 480 324.5 502 c 128,-1,25
 350 524 350 524 350 564 c 128,-1,26
 350 604 350 604 325 628.5 c 128,-1,27
 300 653 300 653 246 653 c 2,28,-1
 209 653 l 2,29,30
 202 653 202 653 201.5 654.5 c 128,-1,31
 201 656 201 656 201 671 c 1,32,33
 206 687 206 687 210 688 c 1,34,-1
 244 688 l 2,35,36
 292 688 292 688 316 711 c 128,-1,37
 340 734 340 734 340 771 c 128,-1,38
 340 808 340 808 320 830 c 128,-1,39
 300 852 300 852 258 852 c 0,40,41
 200 852 200 852 190 795 c 0,42,43
 189 791 189 791 185 791 c 2,44,-1
 154 791 l 2,45,46
 148 791 148 791 151 802 c 1,47,0
 156 836 156 836 187 861.5 c 128,-1,1
EndSplineSet
EndChar

StartChar: acute
Encoding: 180 180 118
Width: 358
GlyphClass: 2
Flags: W
LayerCount: 2
Fore
SplineSet
241 732 m 0,0,1
 267 732 267 732 267 709 c 0,2,3
 267 704 267 704 260 696 c 2,4,-1
 153 563 l 2,5,6
 139 546 139 546 123.5 546 c 128,-1,7
 108 546 108 546 103 553.5 c 128,-1,8
 98 561 98 561 98 566.5 c 128,-1,9
 98 572 98 572 103 578 c 2,10,-1
 210 714 l 2,11,12
 214 718 214 718 215 720 c 128,-1,13
 216 722 216 722 218.5 724.5 c 128,-1,14
 221 727 221 727 222 727.5 c 128,-1,15
 223 728 223 728 226 730 c 128,-1,16
 229 732 229 732 231 731.5 c 128,-1,17
 233 731 233 731 236 731.5 c 128,-1,18
 239 732 239 732 241 732 c 0,0,1
EndSplineSet
EndChar

StartChar: mu
Encoding: 181 181 119
Width: 474
GlyphClass: 2
Flags: W
LayerCount: 2
Fore
SplineSet
78 500 m 2,0,-1
 87 500 l 2,1,2
 106 500 106 500 106 480 c 2,3,-1
 106 106 l 1,4,5
 115 106 115 106 123 96 c 1,6,7
 154 46 154 46 229 46 c 0,8,9
 283 46 283 46 318.5 76.5 c 128,-1,10
 354 107 354 107 354 164 c 2,11,-1
 354 480 l 2,12,13
 354 500 354 500 374 500 c 2,14,-1
 382 500 l 2,15,16
 401 500 401 500 401 480 c 2,17,-1
 401 163 l 2,18,19
 401 86 401 86 353 42 c 128,-1,20
 305 -2 305 -2 230 -2 c 128,-1,21
 155 -2 155 -2 106 42 c 1,22,-1
 106 -211 l 2,23,24
 106 -230 106 -230 87 -230 c 2,25,-1
 78 -230 l 2,26,27
 59 -230 59 -230 59 -211 c 2,28,-1
 59 480 l 2,29,30
 59 500 59 500 78 500 c 2,0,-1
EndSplineSet
EndChar

StartChar: paragraph
Encoding: 182 182 120
Width: 600
GlyphClass: 2
Flags: W
LayerCount: 2
Fore
SplineSet
254 700 m 2,0,-1
 305 700 l 2,1,2
 321 700 321 700 321 680 c 2,3,-1
 321 671 l 2,4,5
 321 653 321 653 305 653 c 2,6,-1
 256 652 l 1,7,8
 111 648 111 648 111 518 c 0,9,10
 111 455 111 455 154 420 c 128,-1,11
 197 385 197 385 263 385 c 2,12,-1
 305 385 l 2,13,14
 320 385 320 385 320 365 c 2,15,-1
 320 358 l 2,16,17
 320 338 320 338 305 338 c 2,18,-1
 260 338 l 2,19,20
 168 338 168 338 115.5 390 c 128,-1,21
 63 442 63 442 63 523 c 128,-1,22
 63 604 63 604 116 652 c 128,-1,23
 169 700 169 700 254 700 c 2,0,-1
381 730 m 2,24,-1
 393 730 l 2,25,26
 412 730 412 730 412 711 c 2,27,-1
 412 -72 l 2,28,29
 412 -80 412 -80 406.5 -86 c 128,-1,30
 401 -92 401 -92 393 -92 c 2,31,-1
 381 -92 l 2,32,33
 373 -92 373 -92 367.5 -86 c 128,-1,34
 362 -80 362 -80 362 -72 c 2,35,-1
 362 711 l 2,36,37
 362 730 362 730 381 730 c 2,24,-1
473 730 m 2,38,-1
 485 730 l 2,39,40
 504 730 504 730 504 711 c 2,41,-1
 504 -72 l 2,42,43
 504 -80 504 -80 498.5 -86 c 128,-1,44
 493 -92 493 -92 485 -92 c 2,45,-1
 473 -92 l 2,46,47
 465 -92 465 -92 459.5 -86 c 128,-1,48
 454 -80 454 -80 454 -72 c 2,49,-1
 454 711 l 2,50,51
 454 730 454 730 473 730 c 2,38,-1
EndSplineSet
EndChar

StartChar: periodcentered
Encoding: 183 183 121
Width: 228
GlyphClass: 2
Flags: W
LayerCount: 2
Fore
SplineSet
113 354 m 128,-1,1
 156 354 156 354 169.5 343 c 128,-1,2
 183 332 183 332 183 295 c 2,3,-1
 183 280 l 2,4,5
 183 238 183 238 170 227 c 128,-1,6
 157 216 157 216 113 216 c 128,-1,7
 69 216 69 216 57 227 c 128,-1,8
 45 238 45 238 45 280 c 2,9,-1
 45 295 l 2,10,11
 45 333 45 333 57.5 343.5 c 128,-1,0
 70 354 70 354 113 354 c 128,-1,1
135 307 m 128,-1,13
 130 311 130 311 113.5 311 c 128,-1,14
 97 311 97 311 92.5 307.5 c 128,-1,15
 88 304 88 304 88 290 c 2,16,-1
 88 280 l 2,17,18
 88 266 88 266 92.5 262.5 c 128,-1,19
 97 259 97 259 114 259 c 128,-1,20
 131 259 131 259 135.5 262.5 c 128,-1,21
 140 266 140 266 140 280 c 2,22,-1
 140 290 l 2,23,12
 140 303 140 303 135 307 c 128,-1,13
EndSplineSet
EndChar

StartChar: cedilla
Encoding: 184 184 122
Width: 600
GlyphClass: 2
Flags: W
LayerCount: 2
Fore
SplineSet
366 -123 m 2,0,-1
 366 -165 l 2,1,2
 366 -205 366 -205 338.5 -227.5 c 128,-1,3
 311 -250 311 -250 278.5 -250 c 128,-1,4
 246 -250 246 -250 220.5 -239.5 c 128,-1,5
 195 -229 195 -229 183 -215 c 1,6,-1
 206 -177 l 1,7,8
 217 -192 217 -192 236.5 -199.5 c 128,-1,9
 256 -207 256 -207 274.5 -207 c 128,-1,10
 293 -207 293 -207 308.5 -194.5 c 128,-1,11
 324 -182 324 -182 324 -158 c 2,12,-1
 324 -130 l 2,13,14
 324 -107 324 -107 308 -94 c 128,-1,15
 292 -81 292 -81 264 -81 c 128,-1,16
 236 -81 236 -81 227 -84 c 1,17,-1
 227 -83 l 1,18,-1
 265 30 l 1,19,-1
 307 29 l 1,20,-1
 283 -38 l 1,21,22
 321 -41 321 -41 343.5 -63 c 128,-1,23
 366 -85 366 -85 366 -123 c 2,0,-1
EndSplineSet
EndChar

StartChar: onesuperior
Encoding: 185 185 123
Width: 383
GlyphClass: 2
Flags: W
LayerCount: 2
Fore
SplineSet
231 851 m 2,0,-1
 231 457 l 2,1,2
 231 443 231 443 219 443 c 2,3,-1
 202 443 l 2,4,5
 190 443 190 443 190 456 c 2,6,-1
 190 843 l 1,7,-1
 85 760 l 2,8,9
 75 752 75 752 69 761 c 2,10,-1
 62 770 l 2,11,12
 59 773 59 773 59 777 c 128,-1,13
 59 781 59 781 65 786 c 2,14,-1
 174 876 l 2,15,16
 188 888 188 888 204 888 c 0,17,18
 231 887 231 887 231 851 c 2,0,-1
EndSplineSet
EndChar

StartChar: ordmasculine
Encoding: 186 186 124
Width: 504
GlyphClass: 2
Flags: W
LayerCount: 2
Fore
SplineSet
167.5 703 m 128,-1,1
 200 732 200 732 253 732 c 128,-1,2
 306 732 306 732 338 702 c 128,-1,3
 370 672 370 672 370 619 c 2,4,-1
 370 500 l 2,5,6
 370 447 370 447 338 417.5 c 128,-1,7
 306 388 306 388 253.5 388 c 128,-1,8
 201 388 201 388 168 417.5 c 128,-1,9
 135 447 135 447 135 500 c 2,10,-1
 135 619 l 2,11,0
 135 674 135 674 167.5 703 c 128,-1,1
254 691 m 0,12,13
 213 691 213 691 194 668.5 c 128,-1,14
 175 646 175 646 175 609 c 2,15,-1
 175 510 l 2,16,17
 175 474 175 474 194.5 451.5 c 128,-1,18
 214 429 214 429 254 429 c 0,19,20
 327 429 327 429 327 510 c 2,21,-1
 327 609 l 2,22,23
 327 691 327 691 254 691 c 0,12,13
EndSplineSet
EndChar

StartChar: guillemotright
Encoding: 187 187 125
Width: 538
GlyphClass: 2
Flags: W
LayerCount: 2
Fore
SplineSet
209 526 m 128,-1,1
 216 533 216 533 224 533 c 128,-1,2
 232 533 232 533 238 530 c 1,3,-1
 467 356 l 2,4,5
 488 340 488 340 488 319 c 128,-1,6
 488 298 488 298 468 283 c 2,7,-1
 238 110 l 2,8,9
 233 106 233 106 221 106 c 128,-1,10
 209 106 209 106 205 116 c 128,-1,11
 201 126 201 126 201 134.5 c 128,-1,12
 201 143 201 143 214 152 c 2,13,-1
 438 320 l 1,14,-1
 214 488 l 2,15,16
 202 497 202 497 202 508 c 128,-1,0
 202 519 202 519 209 526 c 128,-1,1
38 526 m 128,-1,18
 45 533 45 533 53 533 c 128,-1,19
 61 533 61 533 67 530 c 1,20,-1
 296 356 l 2,21,22
 317 340 317 340 317 319 c 128,-1,23
 317 298 317 298 297 283 c 2,24,-1
 67 110 l 2,25,26
 62 106 62 106 50 106 c 128,-1,27
 38 106 38 106 34 116 c 128,-1,28
 30 126 30 126 30 134.5 c 128,-1,29
 30 143 30 143 43 152 c 2,30,-1
 267 320 l 1,31,-1
 43 488 l 2,32,33
 31 497 31 497 31 508 c 128,-1,17
 31 519 31 519 38 526 c 128,-1,18
EndSplineSet
EndChar

StartChar: onequarter
Encoding: 188 188 126
Width: 700
GlyphClass: 3
Flags: W
LayerCount: 2
Fore
SplineSet
193 692 m 2,0,-1
 193 298 l 2,1,2
 193 284 193 284 181 284 c 2,3,-1
 164 284 l 2,4,5
 152 284 152 284 152 297 c 2,6,-1
 152 684 l 1,7,-1
 47 601 l 2,8,9
 37 593 37 593 31 602 c 2,10,-1
 24 611 l 2,11,12
 21 614 21 614 21 618 c 128,-1,13
 21 622 21 622 27 627 c 2,14,-1
 136 717 l 2,15,16
 150 729 150 729 166 729 c 0,17,18
 193 728 193 728 193 692 c 2,0,-1
65 0 m 2,19,20
 50 0 50 0 50 15 c 0,21,22
 50 21 50 21 54 26 c 2,23,-1
 622 725 l 2,24,25
 632 738 632 738 643 738 c 2,26,-1
 646 738 l 2,27,28
 657 738 657 738 662.5 729 c 128,-1,29
 668 720 668 720 661 712 c 2,30,-1
 94 13 l 1,31,32
 86 0 86 0 76 0 c 2,33,-1
 65 0 l 2,19,20
550 427 m 2,34,35
 562 444 562 444 579.5 444 c 128,-1,36
 597 444 597 444 606.5 436 c 128,-1,37
 616 428 616 428 616 415 c 2,38,-1
 616 187 l 1,39,-1
 677 187 l 2,40,41
 682 187 682 187 685.5 182.5 c 128,-1,42
 689 178 689 178 689 173 c 2,43,-1
 689 166 l 2,44,45
 689 149 689 149 677 149 c 2,46,-1
 616 149 l 1,47,-1
 616 12 l 2,48,49
 616 0 616 0 604 0 c 2,50,-1
 590 0 l 2,51,52
 577 0 577 0 577 12 c 2,53,-1
 577 149 l 1,54,-1
 416 149 l 2,55,56
 390 149 390 149 384 170 c 0,57,58
 383 174 383 174 383 180 c 128,-1,59
 383 186 383 186 388 194 c 2,60,-1
 550 427 l 2,34,35
577 187 m 1,61,-1
 577 403 l 1,62,-1
 429 187 l 1,63,-1
 577 187 l 1,61,-1
EndSplineSet
Ligature2: "'frac' Diagonal Fractions lookup 5 subtable" one slash four
EndChar

StartChar: onehalf
Encoding: 189 189 127
Width: 500
GlyphClass: 3
Flags: W
LayerCount: 2
Fore
SplineSet
193 699 m 2,0,-1
 193 305 l 2,1,2
 193 291 193 291 181 291 c 2,3,-1
 164 291 l 2,4,5
 152 291 152 291 152 304 c 2,6,-1
 152 691 l 1,7,-1
 47 608 l 2,8,9
 37 600 37 600 31 609 c 2,10,-1
 24 618 l 2,11,12
 21 621 21 621 21 625 c 128,-1,13
 21 629 21 629 27 634 c 2,14,-1
 136 724 l 2,15,16
 150 736 150 736 166 736 c 0,17,18
 193 735 193 735 193 699 c 2,0,-1
67 0 m 2,19,20
 52 0 52 0 52 15 c 0,21,22
 52 21 52 21 56 26 c 2,23,-1
 624 725 l 2,24,25
 634 738 634 738 645 738 c 2,26,-1
 648 738 l 2,27,28
 659 738 659 738 664.5 729 c 128,-1,29
 670 720 670 720 663 712 c 2,30,-1
 96 13 l 1,31,32
 88 0 88 0 78 0 c 2,33,-1
 67 0 l 2,19,20
658 331 m 0,34,35
 658 399 658 399 581 399 c 0,36,37
 518 399 518 399 499 339 c 0,38,39
 497 332 497 332 487 332 c 2,40,-1
 480 332 l 2,41,42
 465 332 465 332 465 341 c 0,43,44
 465 354 465 354 468 357 c 1,45,46
 480 394 480 394 511 414.5 c 128,-1,47
 542 435 542 435 589 435 c 128,-1,48
 636 435 636 435 667 405.5 c 128,-1,49
 698 376 698 376 698 330 c 0,50,51
 698 268 698 268 622 171 c 0,52,53
 607 152 607 152 559 95 c 2,54,-1
 511 38 l 1,55,-1
 690 38 l 2,56,57
 703 38 703 38 703 26 c 2,58,-1
 703 12 l 2,59,60
 703 0 703 0 690 0 c 0,61,62
 587 0 587 0 484 0 c 0,63,64
 456 0 456 0 456 23 c 0,65,66
 456 34 456 34 492 76 c 0,67,68
 576 174 576 174 592 196 c 0,69,70
 658 281 658 281 658 331 c 0,34,35
EndSplineSet
Ligature2: "'frac' Diagonal Fractions lookup 5 subtable" one slash two
EndChar

StartChar: threequarters
Encoding: 190 190 128
Width: 700
GlyphClass: 3
Flags: W
LayerCount: 2
Fore
SplineSet
67 706.5 m 128,-1,1
 98 732 98 732 147 732 c 128,-1,2
 196 732 196 732 226 699 c 128,-1,3
 256 666 256 666 256 616 c 0,4,5
 256 585 256 585 239.5 557.5 c 128,-1,6
 223 530 223 530 190 516 c 1,7,8
 266 493 266 493 266 409 c 0,9,10
 266 349 266 349 227 319 c 128,-1,11
 188 289 188 289 139 289 c 0,12,13
 35 289 35 289 15 385 c 0,14,15
 13 391 13 391 13 394 c 128,-1,16
 13 397 13 397 19 397 c 2,17,-1
 43 398 l 1,18,-1
 46 398 l 2,19,20
 47 398 47 398 49 391 c 0,21,22
 66 325 66 325 139 325 c 0,23,24
 179 325 179 325 204.5 347 c 128,-1,25
 230 369 230 369 230 409 c 128,-1,26
 230 449 230 449 205 473.5 c 128,-1,27
 180 498 180 498 126 498 c 2,28,-1
 89 498 l 2,29,30
 82 498 82 498 81.5 499.5 c 128,-1,31
 81 501 81 501 81 516 c 1,32,33
 86 532 86 532 90 533 c 1,34,-1
 124 533 l 2,35,36
 172 533 172 533 196 556 c 128,-1,37
 220 579 220 579 220 616 c 128,-1,38
 220 653 220 653 200 675 c 128,-1,39
 180 697 180 697 138 697 c 0,40,41
 80 697 80 697 70 640 c 0,42,43
 69 636 69 636 65 636 c 2,44,-1
 34 636 l 2,45,46
 28 636 28 636 31 647 c 1,47,0
 36 681 36 681 67 706.5 c 128,-1,1
76 0 m 2,48,49
 61 0 61 0 61 15 c 0,50,51
 61 21 61 21 65 26 c 2,52,-1
 633 725 l 2,53,54
 643 738 643 738 654 738 c 2,55,-1
 657 738 l 2,56,57
 668 738 668 738 673.5 729 c 128,-1,58
 679 720 679 720 672 712 c 2,59,-1
 105 13 l 1,60,61
 97 0 97 0 87 0 c 2,62,-1
 76 0 l 2,48,49
545 427 m 2,63,64
 557 444 557 444 574.5 444 c 128,-1,65
 592 444 592 444 601.5 436 c 128,-1,66
 611 428 611 428 611 415 c 2,67,-1
 611 187 l 1,68,-1
 672 187 l 2,69,70
 677 187 677 187 680.5 182.5 c 128,-1,71
 684 178 684 178 684 173 c 2,72,-1
 684 166 l 2,73,74
 684 149 684 149 672 149 c 2,75,-1
 611 149 l 1,76,-1
 611 12 l 2,77,78
 611 0 611 0 599 0 c 2,79,-1
 585 0 l 2,80,81
 572 0 572 0 572 12 c 2,82,-1
 572 149 l 1,83,-1
 411 149 l 2,84,85
 385 149 385 149 379 170 c 0,86,87
 378 174 378 174 378 180 c 128,-1,88
 378 186 378 186 383 194 c 2,89,-1
 545 427 l 2,63,64
572 187 m 1,90,-1
 572 403 l 1,91,-1
 424 187 l 1,92,-1
 572 187 l 1,90,-1
EndSplineSet
Ligature2: "'frac' Diagonal Fractions lookup 5 subtable" three slash four
EndChar

StartChar: questiondown
Encoding: 191 191 129
Width: 442
GlyphClass: 2
Flags: W
LayerCount: 2
Fore
SplineSet
217 -177 m 0,0,1
 127 -177 127 -177 83 -124.5 c 128,-1,2
 39 -72 39 -72 39 -3 c 128,-1,3
 39 66 39 66 84 114 c 128,-1,4
 129 162 129 162 204 172 c 0,5,6
 205 172 205 172 206 171 c 1,7,-1
 206 314 l 2,8,9
 206 333 206 333 225 333 c 2,10,-1
 234 333 l 2,11,12
 254 333 254 333 254 314 c 2,13,-1
 254 166 l 2,14,15
 254 143 254 143 244 135 c 128,-1,16
 234 127 234 127 208 125 c 0,17,18
 156 120 156 120 121.5 86 c 128,-1,19
 87 52 87 52 87 -2 c 128,-1,20
 87 -56 87 -56 120.5 -92.5 c 128,-1,21
 154 -129 154 -129 217 -129 c 0,22,23
 307 -129 307 -129 338 -57 c 0,24,25
 344 -45 344 -45 356 -45 c 2,26,-1
 365 -45 l 2,27,28
 385 -45 385 -45 385 -61 c 0,29,30
 385 -65 385 -65 384 -70 c 0,31,32
 364 -125 364 -125 318.5 -151 c 128,-1,33
 273 -177 273 -177 217 -177 c 0,0,1
233 398 m 128,-1,35
 197 398 197 398 186 407.5 c 128,-1,36
 175 417 175 417 175 447 c 2,37,-1
 175 460 l 2,38,39
 175 494 175 494 186 503 c 128,-1,40
 197 512 197 512 233 512 c 128,-1,41
 269 512 269 512 279 503 c 128,-1,42
 289 494 289 494 289 460 c 2,43,-1
 289 447 l 2,44,45
 289 415 289 415 279 406.5 c 128,-1,34
 269 398 269 398 233 398 c 128,-1,35
214.5 436.5 m 128,-1,47
 219 433 219 433 232.5 433 c 128,-1,48
 246 433 246 433 250 436 c 128,-1,49
 254 439 254 439 254 450 c 2,50,-1
 254 460 l 2,51,52
 254 471 254 471 250 474 c 128,-1,53
 246 477 246 477 232 477 c 128,-1,54
 218 477 218 477 214 474 c 128,-1,55
 210 471 210 471 210 460 c 2,56,-1
 210 450 l 2,57,46
 210 440 210 440 214.5 436.5 c 128,-1,47
EndSplineSet
EndChar

StartChar: Agrave
Encoding: 192 192 130
Width: 588
GlyphClass: 2
Flags: W
LayerCount: 2
Fore
SplineSet
246 674 m 2,0,1
 255 701 255 701 284.5 701 c 128,-1,2
 314 701 314 701 324 673 c 2,3,-1
 554 27 l 2,4,5
 555 24 555 24 555 20 c 0,6,7
 555 0 555 0 535 0 c 2,8,-1
 523 0 l 2,9,10
 510 0 510 0 504 13 c 1,11,-1
 286 634 l 1,12,-1
 67 13 l 1,13,14
 61 0 61 0 48 0 c 2,15,-1
 36 0 l 2,16,17
 16 0 16 0 16 20 c 0,18,19
 16 24 16 24 17 27 c 2,20,-1
 246 674 l 2,0,1
199 308 m 2,21,-1
 372 308 l 2,22,23
 380 308 380 308 386 302.5 c 128,-1,24
 392 297 392 297 392 288 c 2,25,-1
 392 279 l 2,26,27
 392 270 392 270 386 264.5 c 128,-1,28
 380 259 380 259 372 259 c 2,29,-1
 199 259 l 2,30,31
 180 259 180 259 180 279 c 2,32,-1
 180 288 l 2,33,34
 180 308 180 308 199 308 c 2,21,-1
221 912 m 0,35,36
 221 932 221 932 248 932 c 0,37,38
 262 932 262 932 266.5 927.5 c 128,-1,39
 271 923 271 923 278 914 c 2,40,-1
 385 778 l 2,41,42
 390 772 390 772 390 766.5 c 128,-1,43
 390 761 390 761 385 753.5 c 128,-1,44
 380 746 380 746 364.5 746 c 128,-1,45
 349 746 349 746 335 763 c 2,46,-1
 228 896 l 2,47,48
 221 904 221 904 221 912 c 0,35,36
EndSplineSet
Position2: "'cpsp' Capital Spacing lookup 0 subtable" dx=5 dy=0 dh=10 dv=0
EndChar

StartChar: Aacute
Encoding: 193 193 131
Width: 588
GlyphClass: 2
Flags: W
LayerCount: 2
Fore
SplineSet
246 674 m 2,0,1
 255 701 255 701 284.5 701 c 128,-1,2
 314 701 314 701 324 673 c 2,3,-1
 554 27 l 2,4,5
 555 24 555 24 555 20 c 0,6,7
 555 0 555 0 535 0 c 2,8,-1
 523 0 l 2,9,10
 510 0 510 0 504 13 c 1,11,-1
 286 634 l 1,12,-1
 67 13 l 1,13,14
 61 0 61 0 48 0 c 2,15,-1
 36 0 l 2,16,17
 16 0 16 0 16 20 c 0,18,19
 16 24 16 24 17 27 c 2,20,-1
 246 674 l 2,0,1
199 308 m 2,21,-1
 372 308 l 2,22,23
 380 308 380 308 386 302.5 c 128,-1,24
 392 297 392 297 392 288 c 2,25,-1
 392 279 l 2,26,27
 392 270 392 270 386 264.5 c 128,-1,28
 380 259 380 259 372 259 c 2,29,-1
 199 259 l 2,30,31
 180 259 180 259 180 279 c 2,32,-1
 180 288 l 2,33,34
 180 308 180 308 199 308 c 2,21,-1
345 932 m 0,35,36
 371 932 371 932 371 909 c 0,37,38
 371 904 371 904 364 896 c 2,39,-1
 257 763 l 2,40,41
 243 746 243 746 227.5 746 c 128,-1,42
 212 746 212 746 207 753.5 c 128,-1,43
 202 761 202 761 202 766.5 c 128,-1,44
 202 772 202 772 207 778 c 2,45,-1
 314 914 l 2,46,47
 318 918 318 918 319 920 c 128,-1,48
 320 922 320 922 322.5 924.5 c 128,-1,49
 325 927 325 927 326 927.5 c 128,-1,50
 327 928 327 928 330 930 c 128,-1,51
 333 932 333 932 335 931.5 c 128,-1,52
 337 931 337 931 340 931.5 c 128,-1,53
 343 932 343 932 345 932 c 0,35,36
EndSplineSet
Position2: "'cpsp' Capital Spacing lookup 0 subtable" dx=5 dy=0 dh=10 dv=0
EndChar

StartChar: Acircumflex
Encoding: 194 194 132
Width: 588
GlyphClass: 2
Flags: W
LayerCount: 2
Fore
SplineSet
246 674 m 2,0,1
 255 701 255 701 284.5 701 c 128,-1,2
 314 701 314 701 324 673 c 2,3,-1
 554 27 l 2,4,5
 555 24 555 24 555 20 c 0,6,7
 555 0 555 0 535 0 c 2,8,-1
 523 0 l 2,9,10
 510 0 510 0 504 13 c 1,11,-1
 286 634 l 1,12,-1
 67 13 l 1,13,14
 61 0 61 0 48 0 c 2,15,-1
 36 0 l 2,16,17
 16 0 16 0 16 20 c 0,18,19
 16 24 16 24 17 27 c 2,20,-1
 246 674 l 2,0,1
199 308 m 2,21,-1
 372 308 l 2,22,23
 380 308 380 308 386 302.5 c 128,-1,24
 392 297 392 297 392 288 c 2,25,-1
 392 279 l 2,26,27
 392 270 392 270 386 264.5 c 128,-1,28
 380 259 380 259 372 259 c 2,29,-1
 199 259 l 2,30,31
 180 259 180 259 180 279 c 2,32,-1
 180 288 l 2,33,34
 180 308 180 308 199 308 c 2,21,-1
248 933 m 2,35,36
 262 952 262 952 285 952 c 128,-1,37
 308 952 308 952 322 933 c 2,38,-1
 443 781 l 2,39,40
 448 775 448 775 448 767 c 0,41,42
 448 749 448 749 428 749 c 2,43,-1
 415 749 l 2,44,45
 404 749 404 749 400 755 c 2,46,-1
 287 900 l 1,47,-1
 285 902 l 1,48,-1
 174 755 l 2,49,50
 170 749 170 749 160 749 c 2,51,-1
 147 749 l 2,52,53
 127 749 127 749 127 767 c 0,54,55
 127 773 127 773 132 781 c 2,56,-1
 248 933 l 2,35,36
EndSplineSet
Position2: "'cpsp' Capital Spacing lookup 0 subtable" dx=5 dy=0 dh=10 dv=0
EndChar

StartChar: Atilde
Encoding: 195 195 133
Width: 588
GlyphClass: 2
Flags: W
LayerCount: 2
Fore
SplineSet
246 674 m 2,0,1
 255 701 255 701 284.5 701 c 128,-1,2
 314 701 314 701 324 673 c 2,3,-1
 554 27 l 2,4,5
 555 24 555 24 555 20 c 0,6,7
 555 0 555 0 535 0 c 2,8,-1
 523 0 l 2,9,10
 510 0 510 0 504 13 c 1,11,-1
 286 634 l 1,12,-1
 67 13 l 1,13,14
 61 0 61 0 48 0 c 2,15,-1
 36 0 l 2,16,17
 16 0 16 0 16 20 c 0,18,19
 16 24 16 24 17 27 c 2,20,-1
 246 674 l 2,0,1
199 308 m 2,21,-1
 372 308 l 2,22,23
 380 308 380 308 386 302.5 c 128,-1,24
 392 297 392 297 392 288 c 2,25,-1
 392 279 l 2,26,27
 392 270 392 270 386 264.5 c 128,-1,28
 380 259 380 259 372 259 c 2,29,-1
 199 259 l 2,30,31
 180 259 180 259 180 279 c 2,32,-1
 180 288 l 2,33,34
 180 308 180 308 199 308 c 2,21,-1
421 888 m 2,35,-1
 445 888 l 2,36,37
 458 888 458 888 458 871 c 0,38,39
 458 815 458 815 434 786.5 c 128,-1,40
 410 758 410 758 366 758 c 0,41,42
 342 758 342 758 321 770 c 128,-1,43
 300 782 300 782 275.5 803.5 c 128,-1,44
 251 825 251 825 237 834 c 128,-1,45
 223 843 223 843 204 843 c 128,-1,46
 185 843 185 843 170 826.5 c 128,-1,47
 155 810 155 810 155 774 c 0,48,49
 155 758 155 758 140 758 c 2,50,-1
 125 758 l 2,51,52
 112 758 112 758 112 778 c 0,53,54
 112 830 112 830 137.5 858 c 128,-1,55
 163 886 163 886 207 886 c 0,56,57
 243 886 243 886 288 850 c 0,58,59
 293 846 293 846 306.5 835 c 128,-1,60
 320 824 320 824 325 820 c 0,61,62
 347 802 347 802 364 802 c 0,63,64
 412 802 412 802 412 870 c 0,65,66
 412 873 412 873 412 876 c 0,67,68
 412 888 412 888 421 888 c 2,35,-1
EndSplineSet
Position2: "'cpsp' Capital Spacing lookup 0 subtable" dx=5 dy=0 dh=10 dv=0
EndChar

StartChar: Adieresis
Encoding: 196 196 134
Width: 588
GlyphClass: 2
Flags: W
LayerCount: 2
Fore
SplineSet
246 674 m 2,0,1
 255 701 255 701 284.5 701 c 128,-1,2
 314 701 314 701 324 673 c 2,3,-1
 554 27 l 2,4,5
 555 24 555 24 555 20 c 0,6,7
 555 0 555 0 535 0 c 2,8,-1
 523 0 l 2,9,10
 510 0 510 0 504 13 c 1,11,-1
 286 634 l 1,12,-1
 67 13 l 1,13,14
 61 0 61 0 48 0 c 2,15,-1
 36 0 l 2,16,17
 16 0 16 0 16 20 c 0,18,19
 16 24 16 24 17 27 c 2,20,-1
 246 674 l 2,0,1
199 308 m 2,21,-1
 372 308 l 2,22,23
 380 308 380 308 386 302.5 c 128,-1,24
 392 297 392 297 392 288 c 2,25,-1
 392 279 l 2,26,27
 392 270 392 270 386 264.5 c 128,-1,28
 380 259 380 259 372 259 c 2,29,-1
 199 259 l 2,30,31
 180 259 180 259 180 279 c 2,32,-1
 180 288 l 2,33,34
 180 308 180 308 199 308 c 2,21,-1
327 859 m 128,-1,36
 336 867 336 867 368.5 867 c 128,-1,37
 401 867 401 867 411 858.5 c 128,-1,38
 421 850 421 850 421 822 c 2,39,-1
 421 810 l 2,40,41
 421 780 421 780 411 771.5 c 128,-1,42
 401 763 401 763 368.5 763 c 128,-1,43
 336 763 336 763 327 771.5 c 128,-1,44
 318 780 318 780 318 810 c 2,45,-1
 318 822 l 2,46,35
 318 851 318 851 327 859 c 128,-1,36
161 859 m 128,-1,48
 170 867 170 867 202.5 867 c 128,-1,49
 235 867 235 867 245 858.5 c 128,-1,50
 255 850 255 850 255 822 c 2,51,-1
 255 810 l 2,52,53
 255 780 255 780 245 771.5 c 128,-1,54
 235 763 235 763 202.5 763 c 128,-1,55
 170 763 170 763 161 771 c 128,-1,56
 152 779 152 779 152 810 c 2,57,-1
 152 822 l 2,58,47
 152 851 152 851 161 859 c 128,-1,48
219 832 m 128,-1,60
 215 835 215 835 203 835 c 128,-1,61
 191 835 191 835 187.5 832.5 c 128,-1,62
 184 830 184 830 184 820 c 2,63,-1
 184 810 l 2,64,65
 184 800 184 800 187.5 797.5 c 128,-1,66
 191 795 191 795 203.5 795 c 128,-1,67
 216 795 216 795 219.5 797.5 c 128,-1,68
 223 800 223 800 223 810 c 2,69,-1
 223 820 l 2,70,59
 223 829 223 829 219 832 c 128,-1,60
385 832 m 128,-1,72
 381 835 381 835 369 835 c 128,-1,73
 357 835 357 835 353.5 832.5 c 128,-1,74
 350 830 350 830 350 820 c 2,75,-1
 350 810 l 2,76,77
 350 800 350 800 353.5 797.5 c 128,-1,78
 357 795 357 795 369.5 795 c 128,-1,79
 382 795 382 795 385.5 797.5 c 128,-1,80
 389 800 389 800 389 810 c 2,81,-1
 389 820 l 2,82,71
 389 829 389 829 385 832 c 128,-1,72
EndSplineSet
Position2: "'cpsp' Capital Spacing lookup 0 subtable" dx=5 dy=0 dh=10 dv=0
EndChar

StartChar: Aring
Encoding: 197 197 135
Width: 588
GlyphClass: 2
Flags: W
LayerCount: 2
Fore
SplineSet
246 674 m 2,0,1
 255 701 255 701 284.5 701 c 128,-1,2
 314 701 314 701 324 673 c 2,3,-1
 554 27 l 2,4,5
 555 24 555 24 555 20 c 0,6,7
 555 0 555 0 535 0 c 2,8,-1
 523 0 l 2,9,10
 510 0 510 0 504 13 c 1,11,-1
 286 634 l 1,12,-1
 67 13 l 1,13,14
 61 0 61 0 48 0 c 2,15,-1
 36 0 l 2,16,17
 16 0 16 0 16 20 c 0,18,19
 16 24 16 24 17 27 c 2,20,-1
 246 674 l 2,0,1
199 308 m 2,21,-1
 372 308 l 2,22,23
 380 308 380 308 386 302.5 c 128,-1,24
 392 297 392 297 392 288 c 2,25,-1
 392 279 l 2,26,27
 392 270 392 270 386 264.5 c 128,-1,28
 380 259 380 259 372 259 c 2,29,-1
 199 259 l 2,30,31
 180 259 180 259 180 279 c 2,32,-1
 180 288 l 2,33,34
 180 308 180 308 199 308 c 2,21,-1
214 911 m 128,-1,36
 240 933 240 933 285.5 933 c 128,-1,37
 331 933 331 933 355.5 911 c 128,-1,38
 380 889 380 889 380 848 c 2,39,-1
 380 786 l 2,40,41
 380 745 380 745 355.5 723 c 128,-1,42
 331 701 331 701 285.5 701 c 128,-1,43
 240 701 240 701 214 723 c 128,-1,44
 188 745 188 745 188 786 c 2,45,-1
 188 848 l 2,46,35
 188 889 188 889 214 911 c 128,-1,36
323 877 m 128,-1,48
 308 890 308 890 285 890 c 128,-1,49
 262 890 262 890 246 877.5 c 128,-1,50
 230 865 230 865 230 841 c 2,51,-1
 230 793 l 2,52,53
 230 769 230 769 246 756.5 c 128,-1,54
 262 744 262 744 285 744 c 128,-1,55
 308 744 308 744 323 757 c 128,-1,56
 338 770 338 770 338 793 c 2,57,-1
 338 841 l 2,58,47
 338 864 338 864 323 877 c 128,-1,48
EndSplineSet
Position2: "'cpsp' Capital Spacing lookup 0 subtable" dx=5 dy=0 dh=10 dv=0
EndChar

StartChar: AE
Encoding: 198 198 136
Width: 1088
GlyphClass: 2
Flags: W
LayerCount: 2
Fore
SplineSet
540 700 m 2,0,1
 518 700 518 700 509 690.5 c 128,-1,2
 500 681 500 681 500 661 c 2,3,-1
 500 40 l 2,4,5
 500 21 500 21 507.5 10.5 c 128,-1,6
 515 0 515 0 539 0 c 2,7,-1
 889 0 l 2,8,9
 897 0 897 0 903 6 c 128,-1,10
 909 12 909 12 909 20 c 2,11,-1
 909 29 l 2,12,13
 909 38 909 38 903 43.5 c 128,-1,14
 897 49 897 49 889 49 c 2,15,-1
 550 49 l 1,16,-1
 550 651 l 1,17,-1
 889 651 l 2,18,19
 897 651 897 651 903 656.5 c 128,-1,20
 909 662 909 662 909 671 c 2,21,-1
 909 680 l 2,22,23
 909 688 909 688 903 694 c 128,-1,24
 897 700 897 700 889 700 c 2,25,-1
 540 700 l 2,0,1
610 388 m 2,26,-1
 824 388 l 2,27,28
 833 388 833 388 838.5 382 c 128,-1,29
 844 376 844 376 844 368 c 2,30,-1
 844 359 l 2,31,32
 844 339 844 339 824 339 c 2,33,-1
 610 339 l 2,34,35
 590 339 590 339 590 359 c 2,36,-1
 590 368 l 2,37,38
 590 376 590 376 595.5 382 c 128,-1,39
 601 388 601 388 610 388 c 2,26,-1
246 674 m 2,40,41
 255 701 255 701 284.5 701 c 128,-1,42
 314 701 314 701 324 673 c 2,43,-1
 554 27 l 2,44,45
 555 24 555 24 555 20 c 0,46,47
 555 0 555 0 535 0 c 2,48,-1
 523 0 l 2,49,50
 510 0 510 0 504 13 c 1,51,-1
 286 634 l 1,52,-1
 67 13 l 1,53,54
 61 0 61 0 48 0 c 2,55,-1
 36 0 l 2,56,57
 16 0 16 0 16 20 c 0,58,59
 16 24 16 24 17 27 c 2,60,-1
 246 674 l 2,40,41
199 308 m 2,61,-1
 372 308 l 2,62,63
 380 308 380 308 386 302.5 c 128,-1,64
 392 297 392 297 392 288 c 2,65,-1
 392 279 l 2,66,67
 392 270 392 270 386 264.5 c 128,-1,68
 380 259 380 259 372 259 c 2,69,-1
 199 259 l 2,70,71
 180 259 180 259 180 279 c 2,72,-1
 180 288 l 2,73,74
 180 308 180 308 199 308 c 2,61,-1
EndSplineSet
Position2: "'cpsp' Capital Spacing lookup 0 subtable" dx=5 dy=0 dh=10 dv=0
EndChar

StartChar: Ccedilla
Encoding: 199 199 137
Width: 564
GlyphClass: 2
Flags: W
LayerCount: 2
Fore
SplineSet
228.5 701.5 m 128,-1,1
 201 697 201 697 165.5 680.5 c 128,-1,2
 130 664 130 664 103.5 638.5 c 128,-1,3
 77 613 77 613 58.5 565 c 128,-1,4
 40 517 40 517 40 454 c 2,5,-1
 40 251 l 2,6,7
 40 190 40 190 59 142.5 c 128,-1,8
 78 95 78 95 105.5 69 c 128,-1,9
 133 43 133 43 169.5 26 c 128,-1,10
 206 9 206 9 235.5 4 c 128,-1,11
 265 -1 265 -1 305.5 -1 c 128,-1,12
 346 -1 346 -1 400 20 c 0,13,14
 435 34 435 34 461 57.5 c 128,-1,15
 487 81 487 81 506.5 127 c 128,-1,16
 526 173 526 173 526 234 c 0,17,18
 526 254 526 254 506 254 c 2,19,-1
 498 254 l 2,20,21
 489 254 489 254 483.5 249 c 128,-1,22
 478 244 478 244 478 227 c 0,23,24
 478 121 478 121 416 82 c 0,25,26
 387 63 387 63 357.5 55.5 c 128,-1,27
 328 48 328 48 286 48 c 128,-1,28
 244 48 244 48 196 69 c 0,29,30
 166 82 166 82 143.5 103.5 c 128,-1,31
 121 125 121 125 105 164 c 128,-1,32
 89 203 89 203 89 254 c 2,33,-1
 89 450 l 2,34,35
 89 501 89 501 103.5 540 c 128,-1,36
 118 579 118 579 139 600.5 c 128,-1,37
 160 622 160 622 188 635 c 128,-1,38
 216 648 216 648 238.5 652 c 128,-1,39
 261 656 261 656 295.5 656 c 128,-1,40
 330 656 330 656 370 639 c 0,41,42
 397 628 397 628 418 611 c 128,-1,43
 439 594 439 594 455 562 c 128,-1,44
 471 530 471 530 476 488 c 0,45,46
 478 470 478 470 496 470 c 2,47,-1
 505 470 l 2,48,49
 525 470 525 470 525 492 c 1,50,51
 520 544 520 544 500 583.5 c 128,-1,52
 480 623 480 623 454 645.5 c 128,-1,53
 428 668 428 668 395.5 682.5 c 128,-1,54
 363 697 363 697 336 701.5 c 128,-1,55
 309 706 309 706 282.5 706 c 128,-1,0
 256 706 256 706 228.5 701.5 c 128,-1,1
366 -142 m 2,56,-1
 366 -184 l 2,57,58
 366 -224 366 -224 338.5 -246.5 c 128,-1,59
 311 -269 311 -269 278.5 -269 c 128,-1,60
 246 -269 246 -269 220.5 -258.5 c 128,-1,61
 195 -248 195 -248 183 -234 c 1,62,-1
 206 -196 l 1,63,64
 217 -211 217 -211 236.5 -218.5 c 128,-1,65
 256 -226 256 -226 274.5 -226 c 128,-1,66
 293 -226 293 -226 308.5 -213.5 c 128,-1,67
 324 -201 324 -201 324 -177 c 2,68,-1
 324 -149 l 2,69,70
 324 -126 324 -126 308 -113 c 128,-1,71
 292 -100 292 -100 264 -100 c 128,-1,72
 236 -100 236 -100 227 -103 c 1,73,-1
 227 -102 l 1,74,-1
 265 11 l 1,75,-1
 307 10 l 1,76,-1
 283 -57 l 1,77,78
 321 -60 321 -60 343.5 -82 c 128,-1,79
 366 -104 366 -104 366 -142 c 2,56,-1
EndSplineSet
Position2: "'cpsp' Capital Spacing lookup 0 subtable" dx=5 dy=0 dh=10 dv=0
EndChar

StartChar: Egrave
Encoding: 200 200 138
Width: 500
GlyphClass: 2
Flags: W
LayerCount: 2
Fore
SplineSet
102 700 m 2,0,-1
 451 700 l 2,1,2
 459 700 459 700 465 694 c 128,-1,3
 471 688 471 688 471 680 c 2,4,-1
 471 671 l 2,5,6
 471 662 471 662 465 656.5 c 128,-1,7
 459 651 459 651 451 651 c 2,8,-1
 112 651 l 1,9,-1
 112 49 l 1,10,-1
 451 49 l 2,11,12
 459 49 459 49 465 43.5 c 128,-1,13
 471 38 471 38 471 29 c 2,14,-1
 471 20 l 2,15,16
 471 12 471 12 465 6 c 128,-1,17
 459 0 459 0 451 0 c 2,18,-1
 101 0 l 2,19,20
 77 0 77 0 69.5 10.5 c 128,-1,21
 62 21 62 21 62 40 c 2,22,-1
 62 661 l 2,23,24
 62 681 62 681 71 690.5 c 128,-1,25
 80 700 80 700 102 700 c 2,0,-1
172 388 m 2,26,-1
 386 388 l 2,27,28
 395 388 395 388 400.5 382 c 128,-1,29
 406 376 406 376 406 368 c 2,30,-1
 406 359 l 2,31,32
 406 339 406 339 386 339 c 2,33,-1
 172 339 l 2,34,35
 152 339 152 339 152 359 c 2,36,-1
 152 368 l 2,37,38
 152 376 152 376 157.5 382 c 128,-1,39
 163 388 163 388 172 388 c 2,26,-1
185 912 m 0,40,41
 185 932 185 932 212 932 c 0,42,43
 226 932 226 932 230.5 927.5 c 128,-1,44
 235 923 235 923 242 914 c 2,45,-1
 349 778 l 2,46,47
 354 772 354 772 354 766.5 c 128,-1,48
 354 761 354 761 349 753.5 c 128,-1,49
 344 746 344 746 328.5 746 c 128,-1,50
 313 746 313 746 299 763 c 2,51,-1
 192 896 l 2,52,53
 185 904 185 904 185 912 c 0,40,41
EndSplineSet
Position2: "'cpsp' Capital Spacing lookup 0 subtable" dx=5 dy=0 dh=10 dv=0
EndChar

StartChar: Eacute
Encoding: 201 201 139
Width: 500
GlyphClass: 2
Flags: W
LayerCount: 2
Fore
SplineSet
102 700 m 2,0,-1
 451 700 l 2,1,2
 459 700 459 700 465 694 c 128,-1,3
 471 688 471 688 471 680 c 2,4,-1
 471 671 l 2,5,6
 471 662 471 662 465 656.5 c 128,-1,7
 459 651 459 651 451 651 c 2,8,-1
 112 651 l 1,9,-1
 112 49 l 1,10,-1
 451 49 l 2,11,12
 459 49 459 49 465 43.5 c 128,-1,13
 471 38 471 38 471 29 c 2,14,-1
 471 20 l 2,15,16
 471 12 471 12 465 6 c 128,-1,17
 459 0 459 0 451 0 c 2,18,-1
 101 0 l 2,19,20
 77 0 77 0 69.5 10.5 c 128,-1,21
 62 21 62 21 62 40 c 2,22,-1
 62 661 l 2,23,24
 62 681 62 681 71 690.5 c 128,-1,25
 80 700 80 700 102 700 c 2,0,-1
172 388 m 2,26,-1
 386 388 l 2,27,28
 395 388 395 388 400.5 382 c 128,-1,29
 406 376 406 376 406 368 c 2,30,-1
 406 359 l 2,31,32
 406 339 406 339 386 339 c 2,33,-1
 172 339 l 2,34,35
 152 339 152 339 152 359 c 2,36,-1
 152 368 l 2,37,38
 152 376 152 376 157.5 382 c 128,-1,39
 163 388 163 388 172 388 c 2,26,-1
309 932 m 0,40,41
 335 932 335 932 335 909 c 0,42,43
 335 904 335 904 328 896 c 2,44,-1
 221 763 l 2,45,46
 207 746 207 746 191.5 746 c 128,-1,47
 176 746 176 746 171 753.5 c 128,-1,48
 166 761 166 761 166 766.5 c 128,-1,49
 166 772 166 772 171 778 c 2,50,-1
 278 914 l 2,51,52
 282 918 282 918 283 920 c 128,-1,53
 284 922 284 922 286.5 924.5 c 128,-1,54
 289 927 289 927 290 927.5 c 128,-1,55
 291 928 291 928 294 930 c 128,-1,56
 297 932 297 932 299 931.5 c 128,-1,57
 301 931 301 931 304 931.5 c 128,-1,58
 307 932 307 932 309 932 c 0,40,41
EndSplineSet
Position2: "'cpsp' Capital Spacing lookup 0 subtable" dx=5 dy=0 dh=10 dv=0
EndChar

StartChar: Ecircumflex
Encoding: 202 202 140
Width: 500
GlyphClass: 2
Flags: W
LayerCount: 2
Fore
SplineSet
102 700 m 2,0,-1
 451 700 l 2,1,2
 459 700 459 700 465 694 c 128,-1,3
 471 688 471 688 471 680 c 2,4,-1
 471 671 l 2,5,6
 471 662 471 662 465 656.5 c 128,-1,7
 459 651 459 651 451 651 c 2,8,-1
 112 651 l 1,9,-1
 112 49 l 1,10,-1
 451 49 l 2,11,12
 459 49 459 49 465 43.5 c 128,-1,13
 471 38 471 38 471 29 c 2,14,-1
 471 20 l 2,15,16
 471 12 471 12 465 6 c 128,-1,17
 459 0 459 0 451 0 c 2,18,-1
 101 0 l 2,19,20
 77 0 77 0 69.5 10.5 c 128,-1,21
 62 21 62 21 62 40 c 2,22,-1
 62 661 l 2,23,24
 62 681 62 681 71 690.5 c 128,-1,25
 80 700 80 700 102 700 c 2,0,-1
172 388 m 2,26,-1
 386 388 l 2,27,28
 395 388 395 388 400.5 382 c 128,-1,29
 406 376 406 376 406 368 c 2,30,-1
 406 359 l 2,31,32
 406 339 406 339 386 339 c 2,33,-1
 172 339 l 2,34,35
 152 339 152 339 152 359 c 2,36,-1
 152 368 l 2,37,38
 152 376 152 376 157.5 382 c 128,-1,39
 163 388 163 388 172 388 c 2,26,-1
212 933 m 2,40,41
 226 952 226 952 249 952 c 128,-1,42
 272 952 272 952 286 933 c 2,43,-1
 407 781 l 2,44,45
 412 775 412 775 412 767 c 0,46,47
 412 749 412 749 392 749 c 2,48,-1
 379 749 l 2,49,50
 368 749 368 749 364 755 c 2,51,-1
 251 900 l 1,52,-1
 249 902 l 1,53,-1
 138 755 l 2,54,55
 134 749 134 749 124 749 c 2,56,-1
 111 749 l 2,57,58
 91 749 91 749 91 767 c 0,59,60
 91 773 91 773 96 781 c 2,61,-1
 212 933 l 2,40,41
EndSplineSet
Position2: "'cpsp' Capital Spacing lookup 0 subtable" dx=5 dy=0 dh=10 dv=0
EndChar

StartChar: Edieresis
Encoding: 203 203 141
Width: 500
GlyphClass: 2
Flags: W
LayerCount: 2
Fore
SplineSet
102 700 m 2,0,-1
 451 700 l 2,1,2
 459 700 459 700 465 694 c 128,-1,3
 471 688 471 688 471 680 c 2,4,-1
 471 671 l 2,5,6
 471 662 471 662 465 656.5 c 128,-1,7
 459 651 459 651 451 651 c 2,8,-1
 112 651 l 1,9,-1
 112 49 l 1,10,-1
 451 49 l 2,11,12
 459 49 459 49 465 43.5 c 128,-1,13
 471 38 471 38 471 29 c 2,14,-1
 471 20 l 2,15,16
 471 12 471 12 465 6 c 128,-1,17
 459 0 459 0 451 0 c 2,18,-1
 101 0 l 2,19,20
 77 0 77 0 69.5 10.5 c 128,-1,21
 62 21 62 21 62 40 c 2,22,-1
 62 661 l 2,23,24
 62 681 62 681 71 690.5 c 128,-1,25
 80 700 80 700 102 700 c 2,0,-1
172 388 m 2,26,-1
 386 388 l 2,27,28
 395 388 395 388 400.5 382 c 128,-1,29
 406 376 406 376 406 368 c 2,30,-1
 406 359 l 2,31,32
 406 339 406 339 386 339 c 2,33,-1
 172 339 l 2,34,35
 152 339 152 339 152 359 c 2,36,-1
 152 368 l 2,37,38
 152 376 152 376 157.5 382 c 128,-1,39
 163 388 163 388 172 388 c 2,26,-1
291 859 m 128,-1,41
 300 867 300 867 332.5 867 c 128,-1,42
 365 867 365 867 375 858.5 c 128,-1,43
 385 850 385 850 385 822 c 2,44,-1
 385 810 l 2,45,46
 385 780 385 780 375 771.5 c 128,-1,47
 365 763 365 763 332.5 763 c 128,-1,48
 300 763 300 763 291 771.5 c 128,-1,49
 282 780 282 780 282 810 c 2,50,-1
 282 822 l 2,51,40
 282 851 282 851 291 859 c 128,-1,41
125 859 m 128,-1,53
 134 867 134 867 166.5 867 c 128,-1,54
 199 867 199 867 209 858.5 c 128,-1,55
 219 850 219 850 219 822 c 2,56,-1
 219 810 l 2,57,58
 219 780 219 780 209 771.5 c 128,-1,59
 199 763 199 763 166.5 763 c 128,-1,60
 134 763 134 763 125 771 c 128,-1,61
 116 779 116 779 116 810 c 2,62,-1
 116 822 l 2,63,52
 116 851 116 851 125 859 c 128,-1,53
183 832 m 128,-1,65
 179 835 179 835 167 835 c 128,-1,66
 155 835 155 835 151.5 832.5 c 128,-1,67
 148 830 148 830 148 820 c 2,68,-1
 148 810 l 2,69,70
 148 800 148 800 151.5 797.5 c 128,-1,71
 155 795 155 795 167.5 795 c 128,-1,72
 180 795 180 795 183.5 797.5 c 128,-1,73
 187 800 187 800 187 810 c 2,74,-1
 187 820 l 2,75,64
 187 829 187 829 183 832 c 128,-1,65
349 832 m 128,-1,77
 345 835 345 835 333 835 c 128,-1,78
 321 835 321 835 317.5 832.5 c 128,-1,79
 314 830 314 830 314 820 c 2,80,-1
 314 810 l 2,81,82
 314 800 314 800 317.5 797.5 c 128,-1,83
 321 795 321 795 333.5 795 c 128,-1,84
 346 795 346 795 349.5 797.5 c 128,-1,85
 353 800 353 800 353 810 c 2,86,-1
 353 820 l 2,87,76
 353 829 353 829 349 832 c 128,-1,77
EndSplineSet
Position2: "'cpsp' Capital Spacing lookup 0 subtable" dx=5 dy=0 dh=10 dv=0
EndChar

StartChar: Igrave
Encoding: 204 204 142
Width: 200
GlyphClass: 2
Flags: W
LayerCount: 2
Fore
SplineSet
94 700 m 2,0,-1
 103 700 l 2,1,2
 111 700 111 700 117 694 c 128,-1,3
 123 688 123 688 123 680 c 2,4,-1
 123 20 l 2,5,6
 123 12 123 12 117 6 c 128,-1,7
 111 0 111 0 103 0 c 2,8,-1
 94 0 l 2,9,10
 85 0 85 0 79.5 6 c 128,-1,11
 74 12 74 12 74 20 c 2,12,-1
 74 680 l 2,13,14
 74 688 74 688 79.5 694 c 128,-1,15
 85 700 85 700 94 700 c 2,0,-1
35 912 m 0,16,17
 35 932 35 932 62 932 c 0,18,19
 76 932 76 932 80.5 927.5 c 128,-1,20
 85 923 85 923 92 914 c 2,21,-1
 199 778 l 2,22,23
 204 772 204 772 204 766.5 c 128,-1,24
 204 761 204 761 199 753.5 c 128,-1,25
 194 746 194 746 178.5 746 c 128,-1,26
 163 746 163 746 149 763 c 2,27,-1
 42 896 l 2,28,29
 35 904 35 904 35 912 c 0,16,17
EndSplineSet
Position2: "'cpsp' Capital Spacing lookup 0 subtable" dx=5 dy=0 dh=10 dv=0
EndChar

StartChar: Iacute
Encoding: 205 205 143
Width: 200
GlyphClass: 2
Flags: W
LayerCount: 2
Fore
SplineSet
94 700 m 2,0,-1
 103 700 l 2,1,2
 111 700 111 700 117 694 c 128,-1,3
 123 688 123 688 123 680 c 2,4,-1
 123 20 l 2,5,6
 123 12 123 12 117 6 c 128,-1,7
 111 0 111 0 103 0 c 2,8,-1
 94 0 l 2,9,10
 85 0 85 0 79.5 6 c 128,-1,11
 74 12 74 12 74 20 c 2,12,-1
 74 680 l 2,13,14
 74 688 74 688 79.5 694 c 128,-1,15
 85 700 85 700 94 700 c 2,0,-1
159 932 m 0,16,17
 185 932 185 932 185 909 c 0,18,19
 185 904 185 904 178 896 c 2,20,-1
 71 763 l 2,21,22
 57 746 57 746 41.5 746 c 128,-1,23
 26 746 26 746 21 753.5 c 128,-1,24
 16 761 16 761 16 766.5 c 128,-1,25
 16 772 16 772 21 778 c 2,26,-1
 128 914 l 2,27,28
 132 918 132 918 133 920 c 128,-1,29
 134 922 134 922 136.5 924.5 c 128,-1,30
 139 927 139 927 140 927.5 c 128,-1,31
 141 928 141 928 144 930 c 128,-1,32
 147 932 147 932 149 931.5 c 128,-1,33
 151 931 151 931 154 931.5 c 128,-1,34
 157 932 157 932 159 932 c 0,16,17
EndSplineSet
Position2: "'cpsp' Capital Spacing lookup 0 subtable" dx=5 dy=0 dh=10 dv=0
EndChar

StartChar: Icircumflex
Encoding: 206 206 144
Width: 200
GlyphClass: 2
Flags: W
LayerCount: 2
Fore
SplineSet
94 700 m 2,0,-1
 103 700 l 2,1,2
 111 700 111 700 117 694 c 128,-1,3
 123 688 123 688 123 680 c 2,4,-1
 123 20 l 2,5,6
 123 12 123 12 117 6 c 128,-1,7
 111 0 111 0 103 0 c 2,8,-1
 94 0 l 2,9,10
 85 0 85 0 79.5 6 c 128,-1,11
 74 12 74 12 74 20 c 2,12,-1
 74 680 l 2,13,14
 74 688 74 688 79.5 694 c 128,-1,15
 85 700 85 700 94 700 c 2,0,-1
62 933 m 2,16,17
 76 952 76 952 99 952 c 128,-1,18
 122 952 122 952 136 933 c 2,19,-1
 257 781 l 2,20,21
 262 775 262 775 262 767 c 0,22,23
 262 749 262 749 242 749 c 2,24,-1
 229 749 l 2,25,26
 218 749 218 749 214 755 c 2,27,-1
 101 900 l 1,28,-1
 99 902 l 1,29,-1
 -12 755 l 2,30,31
 -16 749 -16 749 -26 749 c 2,32,-1
 -39 749 l 2,33,34
 -59 749 -59 749 -59 767 c 0,35,36
 -59 773 -59 773 -54 781 c 2,37,-1
 62 933 l 2,16,17
EndSplineSet
Position2: "'cpsp' Capital Spacing lookup 0 subtable" dx=5 dy=0 dh=10 dv=0
EndChar

StartChar: Idieresis
Encoding: 207 207 145
Width: 200
GlyphClass: 2
Flags: W
LayerCount: 2
Fore
SplineSet
94 700 m 2,0,-1
 103 700 l 2,1,2
 111 700 111 700 117 694 c 128,-1,3
 123 688 123 688 123 680 c 2,4,-1
 123 20 l 2,5,6
 123 12 123 12 117 6 c 128,-1,7
 111 0 111 0 103 0 c 2,8,-1
 94 0 l 2,9,10
 85 0 85 0 79.5 6 c 128,-1,11
 74 12 74 12 74 20 c 2,12,-1
 74 680 l 2,13,14
 74 688 74 688 79.5 694 c 128,-1,15
 85 700 85 700 94 700 c 2,0,-1
141 859 m 128,-1,17
 150 867 150 867 182.5 867 c 128,-1,18
 215 867 215 867 225 858.5 c 128,-1,19
 235 850 235 850 235 822 c 2,20,-1
 235 810 l 2,21,22
 235 780 235 780 225 771.5 c 128,-1,23
 215 763 215 763 182.5 763 c 128,-1,24
 150 763 150 763 141 771.5 c 128,-1,25
 132 780 132 780 132 810 c 2,26,-1
 132 822 l 2,27,16
 132 851 132 851 141 859 c 128,-1,17
-25 859 m 128,-1,29
 -16 867 -16 867 16.5 867 c 128,-1,30
 49 867 49 867 59 858.5 c 128,-1,31
 69 850 69 850 69 822 c 2,32,-1
 69 810 l 2,33,34
 69 780 69 780 59 771.5 c 128,-1,35
 49 763 49 763 16.5 763 c 128,-1,36
 -16 763 -16 763 -25 771 c 128,-1,37
 -34 779 -34 779 -34 810 c 2,38,-1
 -34 822 l 2,39,28
 -34 851 -34 851 -25 859 c 128,-1,29
33 832 m 128,-1,41
 29 835 29 835 17 835 c 128,-1,42
 5 835 5 835 1.5 832.5 c 128,-1,43
 -2 830 -2 830 -2 820 c 2,44,-1
 -2 810 l 2,45,46
 -2 800 -2 800 1.5 797.5 c 128,-1,47
 5 795 5 795 17.5 795 c 128,-1,48
 30 795 30 795 33.5 797.5 c 128,-1,49
 37 800 37 800 37 810 c 2,50,-1
 37 820 l 2,51,40
 37 829 37 829 33 832 c 128,-1,41
199 832 m 128,-1,53
 195 835 195 835 183 835 c 128,-1,54
 171 835 171 835 167.5 832.5 c 128,-1,55
 164 830 164 830 164 820 c 2,56,-1
 164 810 l 2,57,58
 164 800 164 800 167.5 797.5 c 128,-1,59
 171 795 171 795 183.5 795 c 128,-1,60
 196 795 196 795 199.5 797.5 c 128,-1,61
 203 800 203 800 203 810 c 2,62,-1
 203 820 l 2,63,52
 203 829 203 829 199 832 c 128,-1,53
EndSplineSet
Position2: "'cpsp' Capital Spacing lookup 0 subtable" dx=5 dy=0 dh=10 dv=0
EndChar

StartChar: Eth
Encoding: 208 208 146
Width: 576
GlyphClass: 2
Flags: W
LayerCount: 2
Fore
SplineSet
81 700 m 2,0,-1
 243 700 l 2,1,2
 391 700 391 700 440 628 c 0,3,4
 465 592 465 592 474 548.5 c 128,-1,5
 483 505 483 505 483 439 c 2,6,-1
 483 247 l 2,7,8
 483 119 483 119 429.5 59.5 c 128,-1,9
 376 0 376 0 249 0 c 2,10,-1
 82 0 l 2,11,12
 42 0 42 0 42 41 c 2,13,-1
 42 660 l 2,14,15
 42 682 42 682 50.5 691 c 128,-1,16
 59 700 59 700 81 700 c 2,0,-1
243 651 m 2,17,-1
 92 651 l 1,18,-1
 92 49 l 1,19,-1
 249 49 l 2,20,21
 344 49 344 49 389 94 c 128,-1,22
 434 139 434 139 434 241 c 2,23,-1
 434 442 l 2,24,25
 434 552 434 552 394 601.5 c 128,-1,26
 354 651 354 651 243 651 c 2,17,-1
-41 374 m 2,27,-1
 208 374 l 2,28,29
 228 374 228 374 228 355 c 2,30,-1
 228 345 l 2,31,32
 228 326 228 326 208 326 c 2,33,-1
 -41 326 l 2,34,35
 -61 326 -61 326 -61 345 c 2,36,-1
 -61 355 l 2,37,38
 -61 374 -61 374 -41 374 c 2,27,-1
EndSplineSet
Position2: "'cpsp' Capital Spacing lookup 0 subtable" dx=5 dy=0 dh=10 dv=0
EndChar

StartChar: Ntilde
Encoding: 209 209 147
Width: 600
GlyphClass: 2
Flags: W
LayerCount: 2
Fore
SplineSet
89 702 m 0,0,1
 116 702 116 702 131 678 c 0,2,3
 324 358 324 358 486 69 c 1,4,-1
 486 680 l 2,5,6
 486 688 486 688 491.5 694 c 128,-1,7
 497 700 497 700 506 700 c 2,8,-1
 516 700 l 2,9,10
 525 700 525 700 530.5 694 c 128,-1,11
 536 688 536 688 536 680 c 2,12,-1
 536 37 l 2,13,14
 536 17 536 17 524.5 7.5 c 128,-1,15
 513 -2 513 -2 492 -2 c 128,-1,16
 471 -2 471 -2 457 20 c 1,17,-1
 102 629 l 1,18,-1
 102 20 l 2,19,20
 102 12 102 12 96 6 c 128,-1,21
 90 0 90 0 82 0 c 2,22,-1
 71 0 l 2,23,24
 63 0 63 0 57.5 6 c 128,-1,25
 52 12 52 12 52 20 c 2,26,-1
 52 661 l 2,27,28
 52 702 52 702 89 702 c 0,0,1
435 888 m 2,29,-1
 459 888 l 2,30,31
 472 888 472 888 472 871 c 0,32,33
 472 815 472 815 448 786.5 c 128,-1,34
 424 758 424 758 380 758 c 0,35,36
 356 758 356 758 335 770 c 128,-1,37
 314 782 314 782 289.5 803.5 c 128,-1,38
 265 825 265 825 251 834 c 128,-1,39
 237 843 237 843 218 843 c 128,-1,40
 199 843 199 843 184 826.5 c 128,-1,41
 169 810 169 810 169 774 c 0,42,43
 169 758 169 758 154 758 c 2,44,-1
 139 758 l 2,45,46
 126 758 126 758 126 778 c 0,47,48
 126 830 126 830 151.5 858 c 128,-1,49
 177 886 177 886 221 886 c 0,50,51
 257 886 257 886 302 850 c 0,52,53
 307 846 307 846 320.5 835 c 128,-1,54
 334 824 334 824 339 820 c 0,55,56
 361 802 361 802 378 802 c 0,57,58
 426 802 426 802 426 870 c 0,59,60
 426 873 426 873 426 876 c 0,61,62
 426 888 426 888 435 888 c 2,29,-1
EndSplineSet
Position2: "'cpsp' Capital Spacing lookup 0 subtable" dx=5 dy=0 dh=10 dv=0
EndChar

StartChar: Ograve
Encoding: 210 210 148
Width: 606
GlyphClass: 2
Flags: W
LayerCount: 2
Fore
SplineSet
238 696 m 128,-1,1
 265 700 265 700 293.5 700 c 128,-1,2
 322 700 322 700 350 695.5 c 128,-1,3
 378 691 378 691 413.5 675 c 128,-1,4
 449 659 449 659 475 633.5 c 128,-1,5
 501 608 501 608 519 561.5 c 128,-1,6
 537 515 537 515 537 454 c 2,7,-1
 537 251 l 2,8,9
 537 188 537 188 518.5 140 c 128,-1,10
 500 92 500 92 473.5 66 c 128,-1,11
 447 40 447 40 412 24 c 0,12,13
 356 -1 356 -1 294 -1 c 0,14,15
 229 -1 229 -1 183.5 21 c 128,-1,16
 138 43 138 43 112 69 c 128,-1,17
 86 95 86 95 68 142.5 c 128,-1,18
 50 190 50 190 50 251 c 2,19,-1
 50 454 l 2,20,21
 50 517 50 517 68.5 564 c 128,-1,22
 87 611 87 611 113 636 c 128,-1,23
 139 661 139 661 175 676.5 c 128,-1,0
 211 692 211 692 238 696 c 128,-1,1
337.5 647.5 m 128,-1,25
 316 651 316 651 293.5 651 c 128,-1,26
 271 651 271 651 249 647.5 c 128,-1,27
 227 644 227 644 198.5 631.5 c 128,-1,28
 170 619 170 619 149 598.5 c 128,-1,29
 128 578 128 578 113.5 539.5 c 128,-1,30
 99 501 99 501 99 450 c 2,31,-1
 99 254 l 2,32,33
 99 203 99 203 113.5 164 c 128,-1,34
 128 125 128 125 149.5 103.5 c 128,-1,35
 171 82 171 82 199 69 c 128,-1,36
 227 56 227 56 249.5 52 c 128,-1,37
 272 48 272 48 294 48 c 128,-1,38
 316 48 316 48 338.5 52 c 128,-1,39
 361 56 361 56 389 69 c 128,-1,40
 417 82 417 82 438 103.5 c 128,-1,41
 459 125 459 125 473.5 164 c 128,-1,42
 488 203 488 203 488 254 c 2,43,-1
 488 450 l 2,44,45
 488 501 488 501 473 539.5 c 128,-1,46
 458 578 458 578 437 598.5 c 128,-1,47
 416 619 416 619 387.5 631.5 c 128,-1,24
 359 644 359 644 337.5 647.5 c 128,-1,25
238 912 m 0,48,49
 238 932 238 932 265 932 c 0,50,51
 279 932 279 932 283.5 927.5 c 128,-1,52
 288 923 288 923 295 914 c 2,53,-1
 402 778 l 2,54,55
 407 772 407 772 407 766.5 c 128,-1,56
 407 761 407 761 402 753.5 c 128,-1,57
 397 746 397 746 381.5 746 c 128,-1,58
 366 746 366 746 352 763 c 2,59,-1
 245 896 l 2,60,61
 238 904 238 904 238 912 c 0,48,49
EndSplineSet
Position2: "'cpsp' Capital Spacing lookup 0 subtable" dx=5 dy=0 dh=10 dv=0
EndChar

StartChar: Oacute
Encoding: 211 211 149
Width: 606
GlyphClass: 2
Flags: W
LayerCount: 2
Fore
SplineSet
238 696 m 128,-1,1
 265 700 265 700 293.5 700 c 128,-1,2
 322 700 322 700 350 695.5 c 128,-1,3
 378 691 378 691 413.5 675 c 128,-1,4
 449 659 449 659 475 633.5 c 128,-1,5
 501 608 501 608 519 561.5 c 128,-1,6
 537 515 537 515 537 454 c 2,7,-1
 537 251 l 2,8,9
 537 188 537 188 518.5 140 c 128,-1,10
 500 92 500 92 473.5 66 c 128,-1,11
 447 40 447 40 412 24 c 0,12,13
 356 -1 356 -1 294 -1 c 0,14,15
 229 -1 229 -1 183.5 21 c 128,-1,16
 138 43 138 43 112 69 c 128,-1,17
 86 95 86 95 68 142.5 c 128,-1,18
 50 190 50 190 50 251 c 2,19,-1
 50 454 l 2,20,21
 50 517 50 517 68.5 564 c 128,-1,22
 87 611 87 611 113 636 c 128,-1,23
 139 661 139 661 175 676.5 c 128,-1,0
 211 692 211 692 238 696 c 128,-1,1
337.5 647.5 m 128,-1,25
 316 651 316 651 293.5 651 c 128,-1,26
 271 651 271 651 249 647.5 c 128,-1,27
 227 644 227 644 198.5 631.5 c 128,-1,28
 170 619 170 619 149 598.5 c 128,-1,29
 128 578 128 578 113.5 539.5 c 128,-1,30
 99 501 99 501 99 450 c 2,31,-1
 99 254 l 2,32,33
 99 203 99 203 113.5 164 c 128,-1,34
 128 125 128 125 149.5 103.5 c 128,-1,35
 171 82 171 82 199 69 c 128,-1,36
 227 56 227 56 249.5 52 c 128,-1,37
 272 48 272 48 294 48 c 128,-1,38
 316 48 316 48 338.5 52 c 128,-1,39
 361 56 361 56 389 69 c 128,-1,40
 417 82 417 82 438 103.5 c 128,-1,41
 459 125 459 125 473.5 164 c 128,-1,42
 488 203 488 203 488 254 c 2,43,-1
 488 450 l 2,44,45
 488 501 488 501 473 539.5 c 128,-1,46
 458 578 458 578 437 598.5 c 128,-1,47
 416 619 416 619 387.5 631.5 c 128,-1,24
 359 644 359 644 337.5 647.5 c 128,-1,25
362 932 m 0,48,49
 388 932 388 932 388 909 c 0,50,51
 388 904 388 904 381 896 c 2,52,-1
 274 763 l 2,53,54
 260 746 260 746 244.5 746 c 128,-1,55
 229 746 229 746 224 753.5 c 128,-1,56
 219 761 219 761 219 766.5 c 128,-1,57
 219 772 219 772 224 778 c 2,58,-1
 331 914 l 2,59,60
 335 918 335 918 336 920 c 128,-1,61
 337 922 337 922 339.5 924.5 c 128,-1,62
 342 927 342 927 343 927.5 c 128,-1,63
 344 928 344 928 347 930 c 128,-1,64
 350 932 350 932 352 931.5 c 128,-1,65
 354 931 354 931 357 931.5 c 128,-1,66
 360 932 360 932 362 932 c 0,48,49
EndSplineSet
Position2: "'cpsp' Capital Spacing lookup 0 subtable" dx=5 dy=0 dh=10 dv=0
EndChar

StartChar: Ocircumflex
Encoding: 212 212 150
Width: 606
GlyphClass: 2
Flags: W
LayerCount: 2
Fore
SplineSet
238 696 m 128,-1,1
 265 700 265 700 293.5 700 c 128,-1,2
 322 700 322 700 350 695.5 c 128,-1,3
 378 691 378 691 413.5 675 c 128,-1,4
 449 659 449 659 475 633.5 c 128,-1,5
 501 608 501 608 519 561.5 c 128,-1,6
 537 515 537 515 537 454 c 2,7,-1
 537 251 l 2,8,9
 537 188 537 188 518.5 140 c 128,-1,10
 500 92 500 92 473.5 66 c 128,-1,11
 447 40 447 40 412 24 c 0,12,13
 356 -1 356 -1 294 -1 c 0,14,15
 229 -1 229 -1 183.5 21 c 128,-1,16
 138 43 138 43 112 69 c 128,-1,17
 86 95 86 95 68 142.5 c 128,-1,18
 50 190 50 190 50 251 c 2,19,-1
 50 454 l 2,20,21
 50 517 50 517 68.5 564 c 128,-1,22
 87 611 87 611 113 636 c 128,-1,23
 139 661 139 661 175 676.5 c 128,-1,0
 211 692 211 692 238 696 c 128,-1,1
337.5 647.5 m 128,-1,25
 316 651 316 651 293.5 651 c 128,-1,26
 271 651 271 651 249 647.5 c 128,-1,27
 227 644 227 644 198.5 631.5 c 128,-1,28
 170 619 170 619 149 598.5 c 128,-1,29
 128 578 128 578 113.5 539.5 c 128,-1,30
 99 501 99 501 99 450 c 2,31,-1
 99 254 l 2,32,33
 99 203 99 203 113.5 164 c 128,-1,34
 128 125 128 125 149.5 103.5 c 128,-1,35
 171 82 171 82 199 69 c 128,-1,36
 227 56 227 56 249.5 52 c 128,-1,37
 272 48 272 48 294 48 c 128,-1,38
 316 48 316 48 338.5 52 c 128,-1,39
 361 56 361 56 389 69 c 128,-1,40
 417 82 417 82 438 103.5 c 128,-1,41
 459 125 459 125 473.5 164 c 128,-1,42
 488 203 488 203 488 254 c 2,43,-1
 488 450 l 2,44,45
 488 501 488 501 473 539.5 c 128,-1,46
 458 578 458 578 437 598.5 c 128,-1,47
 416 619 416 619 387.5 631.5 c 128,-1,24
 359 644 359 644 337.5 647.5 c 128,-1,25
265 933 m 2,48,49
 279 952 279 952 302 952 c 128,-1,50
 325 952 325 952 339 933 c 2,51,-1
 460 781 l 2,52,53
 465 775 465 775 465 767 c 0,54,55
 465 749 465 749 445 749 c 2,56,-1
 432 749 l 2,57,58
 421 749 421 749 417 755 c 2,59,-1
 304 900 l 1,60,-1
 302 902 l 1,61,-1
 191 755 l 2,62,63
 187 749 187 749 177 749 c 2,64,-1
 164 749 l 2,65,66
 144 749 144 749 144 767 c 0,67,68
 144 773 144 773 149 781 c 2,69,-1
 265 933 l 2,48,49
EndSplineSet
Position2: "'cpsp' Capital Spacing lookup 0 subtable" dx=5 dy=0 dh=10 dv=0
EndChar

StartChar: Otilde
Encoding: 213 213 151
Width: 606
GlyphClass: 2
Flags: W
LayerCount: 2
Fore
SplineSet
238 696 m 128,-1,1
 265 700 265 700 293.5 700 c 128,-1,2
 322 700 322 700 350 695.5 c 128,-1,3
 378 691 378 691 413.5 675 c 128,-1,4
 449 659 449 659 475 633.5 c 128,-1,5
 501 608 501 608 519 561.5 c 128,-1,6
 537 515 537 515 537 454 c 2,7,-1
 537 251 l 2,8,9
 537 188 537 188 518.5 140 c 128,-1,10
 500 92 500 92 473.5 66 c 128,-1,11
 447 40 447 40 412 24 c 0,12,13
 356 -1 356 -1 294 -1 c 0,14,15
 229 -1 229 -1 183.5 21 c 128,-1,16
 138 43 138 43 112 69 c 128,-1,17
 86 95 86 95 68 142.5 c 128,-1,18
 50 190 50 190 50 251 c 2,19,-1
 50 454 l 2,20,21
 50 517 50 517 68.5 564 c 128,-1,22
 87 611 87 611 113 636 c 128,-1,23
 139 661 139 661 175 676.5 c 128,-1,0
 211 692 211 692 238 696 c 128,-1,1
337.5 647.5 m 128,-1,25
 316 651 316 651 293.5 651 c 128,-1,26
 271 651 271 651 249 647.5 c 128,-1,27
 227 644 227 644 198.5 631.5 c 128,-1,28
 170 619 170 619 149 598.5 c 128,-1,29
 128 578 128 578 113.5 539.5 c 128,-1,30
 99 501 99 501 99 450 c 2,31,-1
 99 254 l 2,32,33
 99 203 99 203 113.5 164 c 128,-1,34
 128 125 128 125 149.5 103.5 c 128,-1,35
 171 82 171 82 199 69 c 128,-1,36
 227 56 227 56 249.5 52 c 128,-1,37
 272 48 272 48 294 48 c 128,-1,38
 316 48 316 48 338.5 52 c 128,-1,39
 361 56 361 56 389 69 c 128,-1,40
 417 82 417 82 438 103.5 c 128,-1,41
 459 125 459 125 473.5 164 c 128,-1,42
 488 203 488 203 488 254 c 2,43,-1
 488 450 l 2,44,45
 488 501 488 501 473 539.5 c 128,-1,46
 458 578 458 578 437 598.5 c 128,-1,47
 416 619 416 619 387.5 631.5 c 128,-1,24
 359 644 359 644 337.5 647.5 c 128,-1,25
438 888 m 2,48,-1
 462 888 l 2,49,50
 475 888 475 888 475 871 c 0,51,52
 475 815 475 815 451 786.5 c 128,-1,53
 427 758 427 758 383 758 c 0,54,55
 359 758 359 758 338 770 c 128,-1,56
 317 782 317 782 292.5 803.5 c 128,-1,57
 268 825 268 825 254 834 c 128,-1,58
 240 843 240 843 221 843 c 128,-1,59
 202 843 202 843 187 826.5 c 128,-1,60
 172 810 172 810 172 774 c 0,61,62
 172 758 172 758 157 758 c 2,63,-1
 142 758 l 2,64,65
 129 758 129 758 129 778 c 0,66,67
 129 830 129 830 154.5 858 c 128,-1,68
 180 886 180 886 224 886 c 0,69,70
 260 886 260 886 305 850 c 0,71,72
 310 846 310 846 323.5 835 c 128,-1,73
 337 824 337 824 342 820 c 0,74,75
 364 802 364 802 381 802 c 0,76,77
 429 802 429 802 429 870 c 0,78,79
 429 873 429 873 429 876 c 0,80,81
 429 888 429 888 438 888 c 2,48,-1
EndSplineSet
Position2: "'cpsp' Capital Spacing lookup 0 subtable" dx=5 dy=0 dh=10 dv=0
EndChar

StartChar: Odieresis
Encoding: 214 214 152
Width: 606
GlyphClass: 2
Flags: W
LayerCount: 2
Fore
SplineSet
238 696 m 128,-1,1
 265 700 265 700 293.5 700 c 128,-1,2
 322 700 322 700 350 695.5 c 128,-1,3
 378 691 378 691 413.5 675 c 128,-1,4
 449 659 449 659 475 633.5 c 128,-1,5
 501 608 501 608 519 561.5 c 128,-1,6
 537 515 537 515 537 454 c 2,7,-1
 537 251 l 2,8,9
 537 188 537 188 518.5 140 c 128,-1,10
 500 92 500 92 473.5 66 c 128,-1,11
 447 40 447 40 412 24 c 0,12,13
 356 -1 356 -1 294 -1 c 0,14,15
 229 -1 229 -1 183.5 21 c 128,-1,16
 138 43 138 43 112 69 c 128,-1,17
 86 95 86 95 68 142.5 c 128,-1,18
 50 190 50 190 50 251 c 2,19,-1
 50 454 l 2,20,21
 50 517 50 517 68.5 564 c 128,-1,22
 87 611 87 611 113 636 c 128,-1,23
 139 661 139 661 175 676.5 c 128,-1,0
 211 692 211 692 238 696 c 128,-1,1
337.5 647.5 m 128,-1,25
 316 651 316 651 293.5 651 c 128,-1,26
 271 651 271 651 249 647.5 c 128,-1,27
 227 644 227 644 198.5 631.5 c 128,-1,28
 170 619 170 619 149 598.5 c 128,-1,29
 128 578 128 578 113.5 539.5 c 128,-1,30
 99 501 99 501 99 450 c 2,31,-1
 99 254 l 2,32,33
 99 203 99 203 113.5 164 c 128,-1,34
 128 125 128 125 149.5 103.5 c 128,-1,35
 171 82 171 82 199 69 c 128,-1,36
 227 56 227 56 249.5 52 c 128,-1,37
 272 48 272 48 294 48 c 128,-1,38
 316 48 316 48 338.5 52 c 128,-1,39
 361 56 361 56 389 69 c 128,-1,40
 417 82 417 82 438 103.5 c 128,-1,41
 459 125 459 125 473.5 164 c 128,-1,42
 488 203 488 203 488 254 c 2,43,-1
 488 450 l 2,44,45
 488 501 488 501 473 539.5 c 128,-1,46
 458 578 458 578 437 598.5 c 128,-1,47
 416 619 416 619 387.5 631.5 c 128,-1,24
 359 644 359 644 337.5 647.5 c 128,-1,25
344 859 m 128,-1,49
 353 867 353 867 385.5 867 c 128,-1,50
 418 867 418 867 428 858.5 c 128,-1,51
 438 850 438 850 438 822 c 2,52,-1
 438 810 l 2,53,54
 438 780 438 780 428 771.5 c 128,-1,55
 418 763 418 763 385.5 763 c 128,-1,56
 353 763 353 763 344 771.5 c 128,-1,57
 335 780 335 780 335 810 c 2,58,-1
 335 822 l 2,59,48
 335 851 335 851 344 859 c 128,-1,49
178 859 m 128,-1,61
 187 867 187 867 219.5 867 c 128,-1,62
 252 867 252 867 262 858.5 c 128,-1,63
 272 850 272 850 272 822 c 2,64,-1
 272 810 l 2,65,66
 272 780 272 780 262 771.5 c 128,-1,67
 252 763 252 763 219.5 763 c 128,-1,68
 187 763 187 763 178 771 c 128,-1,69
 169 779 169 779 169 810 c 2,70,-1
 169 822 l 2,71,60
 169 851 169 851 178 859 c 128,-1,61
236 832 m 128,-1,73
 232 835 232 835 220 835 c 128,-1,74
 208 835 208 835 204.5 832.5 c 128,-1,75
 201 830 201 830 201 820 c 2,76,-1
 201 810 l 2,77,78
 201 800 201 800 204.5 797.5 c 128,-1,79
 208 795 208 795 220.5 795 c 128,-1,80
 233 795 233 795 236.5 797.5 c 128,-1,81
 240 800 240 800 240 810 c 2,82,-1
 240 820 l 2,83,72
 240 829 240 829 236 832 c 128,-1,73
402 832 m 128,-1,85
 398 835 398 835 386 835 c 128,-1,86
 374 835 374 835 370.5 832.5 c 128,-1,87
 367 830 367 830 367 820 c 2,88,-1
 367 810 l 2,89,90
 367 800 367 800 370.5 797.5 c 128,-1,91
 374 795 374 795 386.5 795 c 128,-1,92
 399 795 399 795 402.5 797.5 c 128,-1,93
 406 800 406 800 406 810 c 2,94,-1
 406 820 l 2,95,84
 406 829 406 829 402 832 c 128,-1,85
EndSplineSet
Position2: "'cpsp' Capital Spacing lookup 0 subtable" dx=5 dy=0 dh=10 dv=0
EndChar

StartChar: multiply
Encoding: 215 215 153
Width: 421
GlyphClass: 2
Flags: W
LayerCount: 2
Fore
SplineSet
345.5 524 m 128,-1,1
 352 524 352 524 362 514 c 128,-1,2
 372 504 372 504 372 497 c 128,-1,3
 372 490 372 490 366 483 c 2,4,-1
 245 362 l 1,5,-1
 366 241 l 2,6,7
 372 234 372 234 372 226 c 0,8,9
 372 219 372 219 359 206 c 1,10,11
 352 201 352 201 345.5 201 c 128,-1,12
 339 201 339 201 332 207 c 2,13,-1
 211 328 l 1,14,-1
 90 207 l 2,15,16
 82 200 82 200 75 200 c 128,-1,17
 68 200 68 200 58.5 210.5 c 128,-1,18
 49 221 49 221 49 227.5 c 128,-1,19
 49 234 49 234 56 241 c 2,20,-1
 177 362 l 1,21,-1
 55 484 l 2,22,23
 49 491 49 491 49 498 c 256,24,25
 49 505 49 505 61 517 c 0,26,27
 68 523 68 523 76 523 c 1,28,-1
 89 518 l 1,29,-1
 211 396 l 1,30,-1
 332 517 l 2,31,0
 339 524 339 524 345.5 524 c 128,-1,1
EndSplineSet
EndChar

StartChar: Oslash
Encoding: 216 216 154
Width: 606
GlyphClass: 2
Flags: W
LayerCount: 2
Fore
SplineSet
238 696 m 128,-1,1
 265 700 265 700 293.5 700 c 128,-1,2
 322 700 322 700 350 695.5 c 128,-1,3
 378 691 378 691 413.5 675 c 128,-1,4
 449 659 449 659 475 633.5 c 128,-1,5
 501 608 501 608 519 561.5 c 128,-1,6
 537 515 537 515 537 454 c 2,7,-1
 537 251 l 2,8,9
 537 188 537 188 518.5 140 c 128,-1,10
 500 92 500 92 473.5 66 c 128,-1,11
 447 40 447 40 412 24 c 0,12,13
 356 -1 356 -1 294 -1 c 0,14,15
 229 -1 229 -1 183.5 21 c 128,-1,16
 138 43 138 43 112 69 c 128,-1,17
 86 95 86 95 68 142.5 c 128,-1,18
 50 190 50 190 50 251 c 2,19,-1
 50 454 l 2,20,21
 50 517 50 517 68.5 564 c 128,-1,22
 87 611 87 611 113 636 c 128,-1,23
 139 661 139 661 175 676.5 c 128,-1,0
 211 692 211 692 238 696 c 128,-1,1
337.5 647.5 m 128,-1,25
 316 651 316 651 293.5 651 c 128,-1,26
 271 651 271 651 249 647.5 c 128,-1,27
 227 644 227 644 198.5 631.5 c 128,-1,28
 170 619 170 619 149 598.5 c 128,-1,29
 128 578 128 578 113.5 539.5 c 128,-1,30
 99 501 99 501 99 450 c 2,31,-1
 99 254 l 2,32,33
 99 203 99 203 113.5 164 c 128,-1,34
 128 125 128 125 149.5 103.5 c 128,-1,35
 171 82 171 82 199 69 c 128,-1,36
 227 56 227 56 249.5 52 c 128,-1,37
 272 48 272 48 294 48 c 128,-1,38
 316 48 316 48 338.5 52 c 128,-1,39
 361 56 361 56 389 69 c 128,-1,40
 417 82 417 82 438 103.5 c 128,-1,41
 459 125 459 125 473.5 164 c 128,-1,42
 488 203 488 203 488 254 c 2,43,-1
 488 450 l 2,44,45
 488 501 488 501 473 539.5 c 128,-1,46
 458 578 458 578 437 598.5 c 128,-1,47
 416 619 416 619 387.5 631.5 c 128,-1,24
 359 644 359 644 337.5 647.5 c 128,-1,25
421 699 m 2,48,49
 438 699 438 699 438 682 c 0,50,51
 438 678 438 678 436 673 c 2,52,-1
 175 13 l 1,53,54
 167 0 167 0 160 0 c 2,55,-1
 148 0 l 2,56,57
 137 0 137 0 132 6.5 c 128,-1,58
 127 13 127 13 127 17.5 c 128,-1,59
 127 22 127 22 129 26 c 2,60,-1
 389 686 l 1,61,62
 396 699 396 699 408 699 c 2,63,-1
 421 699 l 2,48,49
EndSplineSet
Position2: "'cpsp' Capital Spacing lookup 0 subtable" dx=5 dy=0 dh=10 dv=0
EndChar

StartChar: Ugrave
Encoding: 217 217 155
Width: 562
GlyphClass: 2
Flags: W
LayerCount: 2
Fore
SplineSet
480 700 m 2,0,-1
 490 700 l 2,1,2
 498 700 498 700 504 694 c 128,-1,3
 510 688 510 688 510 680 c 2,4,-1
 510 251 l 2,5,6
 510 179 510 179 486 126.5 c 128,-1,7
 462 74 462 74 424 48 c 0,8,9
 354 -1 354 -1 281 -1 c 2,10,-1
 269 -1 l 2,11,12
 196 -1 196 -1 124 48 c 0,13,14
 86 74 86 74 62.5 126.5 c 128,-1,15
 39 179 39 179 39 251 c 2,16,-1
 39 680 l 2,17,18
 39 688 39 688 44.5 694 c 128,-1,19
 50 700 50 700 59 700 c 2,20,-1
 69 700 l 2,21,22
 78 700 78 700 83.5 694 c 128,-1,23
 89 688 89 688 89 680 c 2,24,-1
 89 251 l 2,25,26
 89 192 89 192 108 149.5 c 128,-1,27
 127 107 127 107 158 86 c 0,28,29
 212 50 212 50 271 48 c 1,30,-1
 280 48 l 1,31,32
 337 50 337 50 392 87 c 0,33,34
 422 107 422 107 441 149.5 c 128,-1,35
 460 192 460 192 460 251 c 2,36,-1
 460 680 l 2,37,38
 460 688 460 688 465.5 694 c 128,-1,39
 471 700 471 700 480 700 c 2,0,-1
203 912 m 0,40,41
 203 932 203 932 230 932 c 0,42,43
 244 932 244 932 248.5 927.5 c 128,-1,44
 253 923 253 923 260 914 c 2,45,-1
 367 778 l 2,46,47
 372 772 372 772 372 766.5 c 128,-1,48
 372 761 372 761 367 753.5 c 128,-1,49
 362 746 362 746 346.5 746 c 128,-1,50
 331 746 331 746 317 763 c 2,51,-1
 210 896 l 2,52,53
 203 904 203 904 203 912 c 0,40,41
EndSplineSet
Position2: "'cpsp' Capital Spacing lookup 0 subtable" dx=5 dy=0 dh=10 dv=0
EndChar

StartChar: Uacute
Encoding: 218 218 156
Width: 562
GlyphClass: 2
Flags: W
LayerCount: 2
Fore
SplineSet
480 700 m 2,0,-1
 490 700 l 2,1,2
 498 700 498 700 504 694 c 128,-1,3
 510 688 510 688 510 680 c 2,4,-1
 510 251 l 2,5,6
 510 179 510 179 486 126.5 c 128,-1,7
 462 74 462 74 424 48 c 0,8,9
 354 -1 354 -1 281 -1 c 2,10,-1
 269 -1 l 2,11,12
 196 -1 196 -1 124 48 c 0,13,14
 86 74 86 74 62.5 126.5 c 128,-1,15
 39 179 39 179 39 251 c 2,16,-1
 39 680 l 2,17,18
 39 688 39 688 44.5 694 c 128,-1,19
 50 700 50 700 59 700 c 2,20,-1
 69 700 l 2,21,22
 78 700 78 700 83.5 694 c 128,-1,23
 89 688 89 688 89 680 c 2,24,-1
 89 251 l 2,25,26
 89 192 89 192 108 149.5 c 128,-1,27
 127 107 127 107 158 86 c 0,28,29
 212 50 212 50 271 48 c 1,30,-1
 280 48 l 1,31,32
 337 50 337 50 392 87 c 0,33,34
 422 107 422 107 441 149.5 c 128,-1,35
 460 192 460 192 460 251 c 2,36,-1
 460 680 l 2,37,38
 460 688 460 688 465.5 694 c 128,-1,39
 471 700 471 700 480 700 c 2,0,-1
327 932 m 0,40,41
 353 932 353 932 353 909 c 0,42,43
 353 904 353 904 346 896 c 2,44,-1
 239 763 l 2,45,46
 225 746 225 746 209.5 746 c 128,-1,47
 194 746 194 746 189 753.5 c 128,-1,48
 184 761 184 761 184 766.5 c 128,-1,49
 184 772 184 772 189 778 c 2,50,-1
 296 914 l 2,51,52
 300 918 300 918 301 920 c 128,-1,53
 302 922 302 922 304.5 924.5 c 128,-1,54
 307 927 307 927 308 927.5 c 128,-1,55
 309 928 309 928 312 930 c 128,-1,56
 315 932 315 932 317 931.5 c 128,-1,57
 319 931 319 931 322 931.5 c 128,-1,58
 325 932 325 932 327 932 c 0,40,41
EndSplineSet
Position2: "'cpsp' Capital Spacing lookup 0 subtable" dx=5 dy=0 dh=10 dv=0
EndChar

StartChar: Ucircumflex
Encoding: 219 219 157
Width: 562
GlyphClass: 2
Flags: W
LayerCount: 2
Fore
SplineSet
480 700 m 2,0,-1
 490 700 l 2,1,2
 498 700 498 700 504 694 c 128,-1,3
 510 688 510 688 510 680 c 2,4,-1
 510 251 l 2,5,6
 510 179 510 179 486 126.5 c 128,-1,7
 462 74 462 74 424 48 c 0,8,9
 354 -1 354 -1 281 -1 c 2,10,-1
 269 -1 l 2,11,12
 196 -1 196 -1 124 48 c 0,13,14
 86 74 86 74 62.5 126.5 c 128,-1,15
 39 179 39 179 39 251 c 2,16,-1
 39 680 l 2,17,18
 39 688 39 688 44.5 694 c 128,-1,19
 50 700 50 700 59 700 c 2,20,-1
 69 700 l 2,21,22
 78 700 78 700 83.5 694 c 128,-1,23
 89 688 89 688 89 680 c 2,24,-1
 89 251 l 2,25,26
 89 192 89 192 108 149.5 c 128,-1,27
 127 107 127 107 158 86 c 0,28,29
 212 50 212 50 271 48 c 1,30,-1
 280 48 l 1,31,32
 337 50 337 50 392 87 c 0,33,34
 422 107 422 107 441 149.5 c 128,-1,35
 460 192 460 192 460 251 c 2,36,-1
 460 680 l 2,37,38
 460 688 460 688 465.5 694 c 128,-1,39
 471 700 471 700 480 700 c 2,0,-1
230 933 m 2,40,41
 244 952 244 952 267 952 c 128,-1,42
 290 952 290 952 304 933 c 2,43,-1
 425 781 l 2,44,45
 430 775 430 775 430 767 c 0,46,47
 430 749 430 749 410 749 c 2,48,-1
 397 749 l 2,49,50
 386 749 386 749 382 755 c 2,51,-1
 269 900 l 1,52,-1
 267 902 l 1,53,-1
 156 755 l 2,54,55
 152 749 152 749 142 749 c 2,56,-1
 129 749 l 2,57,58
 109 749 109 749 109 767 c 0,59,60
 109 773 109 773 114 781 c 2,61,-1
 230 933 l 2,40,41
EndSplineSet
Position2: "'cpsp' Capital Spacing lookup 0 subtable" dx=5 dy=0 dh=10 dv=0
EndChar

StartChar: Udieresis
Encoding: 220 220 158
Width: 562
GlyphClass: 2
Flags: W
LayerCount: 2
Fore
SplineSet
480 700 m 2,0,-1
 490 700 l 2,1,2
 498 700 498 700 504 694 c 128,-1,3
 510 688 510 688 510 680 c 2,4,-1
 510 251 l 2,5,6
 510 179 510 179 486 126.5 c 128,-1,7
 462 74 462 74 424 48 c 0,8,9
 354 -1 354 -1 281 -1 c 2,10,-1
 269 -1 l 2,11,12
 196 -1 196 -1 124 48 c 0,13,14
 86 74 86 74 62.5 126.5 c 128,-1,15
 39 179 39 179 39 251 c 2,16,-1
 39 680 l 2,17,18
 39 688 39 688 44.5 694 c 128,-1,19
 50 700 50 700 59 700 c 2,20,-1
 69 700 l 2,21,22
 78 700 78 700 83.5 694 c 128,-1,23
 89 688 89 688 89 680 c 2,24,-1
 89 251 l 2,25,26
 89 192 89 192 108 149.5 c 128,-1,27
 127 107 127 107 158 86 c 0,28,29
 212 50 212 50 271 48 c 1,30,-1
 280 48 l 1,31,32
 337 50 337 50 392 87 c 0,33,34
 422 107 422 107 441 149.5 c 128,-1,35
 460 192 460 192 460 251 c 2,36,-1
 460 680 l 2,37,38
 460 688 460 688 465.5 694 c 128,-1,39
 471 700 471 700 480 700 c 2,0,-1
309 859 m 128,-1,41
 318 867 318 867 350.5 867 c 128,-1,42
 383 867 383 867 393 858.5 c 128,-1,43
 403 850 403 850 403 822 c 2,44,-1
 403 810 l 2,45,46
 403 780 403 780 393 771.5 c 128,-1,47
 383 763 383 763 350.5 763 c 128,-1,48
 318 763 318 763 309 771.5 c 128,-1,49
 300 780 300 780 300 810 c 2,50,-1
 300 822 l 2,51,40
 300 851 300 851 309 859 c 128,-1,41
143 859 m 128,-1,53
 152 867 152 867 184.5 867 c 128,-1,54
 217 867 217 867 227 858.5 c 128,-1,55
 237 850 237 850 237 822 c 2,56,-1
 237 810 l 2,57,58
 237 780 237 780 227 771.5 c 128,-1,59
 217 763 217 763 184.5 763 c 128,-1,60
 152 763 152 763 143 771 c 128,-1,61
 134 779 134 779 134 810 c 2,62,-1
 134 822 l 2,63,52
 134 851 134 851 143 859 c 128,-1,53
201 832 m 128,-1,65
 197 835 197 835 185 835 c 128,-1,66
 173 835 173 835 169.5 832.5 c 128,-1,67
 166 830 166 830 166 820 c 2,68,-1
 166 810 l 2,69,70
 166 800 166 800 169.5 797.5 c 128,-1,71
 173 795 173 795 185.5 795 c 128,-1,72
 198 795 198 795 201.5 797.5 c 128,-1,73
 205 800 205 800 205 810 c 2,74,-1
 205 820 l 2,75,64
 205 829 205 829 201 832 c 128,-1,65
367 832 m 128,-1,77
 363 835 363 835 351 835 c 128,-1,78
 339 835 339 835 335.5 832.5 c 128,-1,79
 332 830 332 830 332 820 c 2,80,-1
 332 810 l 2,81,82
 332 800 332 800 335.5 797.5 c 128,-1,83
 339 795 339 795 351.5 795 c 128,-1,84
 364 795 364 795 367.5 797.5 c 128,-1,85
 371 800 371 800 371 810 c 2,86,-1
 371 820 l 2,87,76
 371 829 371 829 367 832 c 128,-1,77
EndSplineSet
Position2: "'cpsp' Capital Spacing lookup 0 subtable" dx=5 dy=0 dh=10 dv=0
EndChar

StartChar: Yacute
Encoding: 221 221 159
Width: 436
GlyphClass: 2
Flags: W
LayerCount: 2
Fore
SplineSet
391 700 m 2,0,-1
 402 700 l 2,1,2
 414 700 414 700 418 692.5 c 128,-1,3
 422 685 422 685 422 680 c 128,-1,4
 422 675 422 675 419 670 c 1,5,-1
 419 671 l 1,6,-1
 250 363 l 1,7,8
 242 351 242 351 239 348 c 1,9,-1
 239 20 l 2,10,11
 239 12 239 12 233 6 c 128,-1,12
 227 0 227 0 219 0 c 2,13,-1
 209 0 l 2,14,15
 201 0 201 0 195 6 c 128,-1,16
 189 12 189 12 189 20 c 2,17,-1
 189 349 l 1,18,19
 184 354 184 354 180 361 c 2,20,-1
 -2 670 l 2,21,22
 -5 675 -5 675 -5 680 c 128,-1,23
 -5 685 -5 685 -1 692.5 c 128,-1,24
 3 700 3 700 15 700 c 2,25,-1
 27 700 l 2,26,27
 37 700 37 700 44 691 c 1,28,-1
 214 399 l 1,29,-1
 375 694 l 2,30,31
 379 700 379 700 391 700 c 2,0,-1
277 932 m 0,32,33
 303 932 303 932 303 909 c 0,34,35
 303 904 303 904 296 896 c 2,36,-1
 189 763 l 2,37,38
 175 746 175 746 159.5 746 c 128,-1,39
 144 746 144 746 139 753.5 c 128,-1,40
 134 761 134 761 134 766.5 c 128,-1,41
 134 772 134 772 139 778 c 2,42,-1
 246 914 l 2,43,44
 250 918 250 918 251 920 c 128,-1,45
 252 922 252 922 254.5 924.5 c 128,-1,46
 257 927 257 927 258 927.5 c 128,-1,47
 259 928 259 928 262 930 c 128,-1,48
 265 932 265 932 267 931.5 c 128,-1,49
 269 931 269 931 272 931.5 c 128,-1,50
 275 932 275 932 277 932 c 0,32,33
EndSplineSet
Position2: "'cpsp' Capital Spacing lookup 0 subtable" dx=5 dy=0 dh=10 dv=0
EndChar

StartChar: Thorn
Encoding: 222 222 160
Width: 517
GlyphClass: 2
Flags: W
LayerCount: 2
Fore
SplineSet
176 590 m 2,0,-1
 261 590 l 2,1,2
 332 590 332 590 392 554 c 0,3,4
 423 535 423 535 442.5 497 c 128,-1,5
 462 459 462 459 462 407 c 0,6,7
 462 323 462 323 412 270.5 c 128,-1,8
 362 218 362 218 269 218 c 2,9,-1
 180 218 l 2,10,11
 171 218 171 218 165.5 224 c 128,-1,12
 160 230 160 230 160 238 c 2,13,-1
 160 247 l 2,14,15
 160 267 160 267 180 267 c 2,16,-1
 260 267 l 2,17,18
 412 267 412 267 412 403 c 0,19,20
 412 474 412 474 365.5 507.5 c 128,-1,21
 319 541 319 541 259 541 c 2,22,-1
 176 541 l 2,23,24
 167 541 167 541 161.5 547 c 128,-1,25
 156 553 156 553 156 561 c 2,26,-1
 156 570 l 2,27,28
 156 590 156 590 176 590 c 2,0,-1
95 732 m 2,29,-1
 105 732 l 2,30,31
 113 732 113 732 119 726 c 128,-1,32
 125 720 125 720 125 712 c 2,33,-1
 125 20 l 2,34,35
 125 12 125 12 119 6 c 128,-1,36
 113 0 113 0 105 0 c 2,37,-1
 95 0 l 2,38,39
 87 0 87 0 81 6 c 128,-1,40
 75 12 75 12 75 20 c 2,41,-1
 75 712 l 2,42,43
 75 720 75 720 81 726 c 128,-1,44
 87 732 87 732 95 732 c 2,29,-1
EndSplineSet
Position2: "'cpsp' Capital Spacing lookup 0 subtable" dx=5 dy=0 dh=10 dv=0
EndChar

StartChar: germandbls
Encoding: 223 223 161
Width: 516
GlyphClass: 2
Flags: W
LayerCount: 2
Fore
SplineSet
344 598 m 0,0,1
 344 545 344 545 299 480 c 1,2,3
 261 427 261 427 258 417 c 128,-1,4
 255 407 255 407 255 401 c 0,5,6
 255 358 255 358 317 332 c 1,7,8
 372 314 372 314 423 276 c 0,9,10
 476 237 476 237 476 159.5 c 128,-1,11
 476 82 476 82 427 41 c 128,-1,12
 378 0 378 0 283 0 c 2,13,-1
 194 0 l 2,14,15
 185 0 185 0 179.5 6 c 128,-1,16
 174 12 174 12 174 20 c 2,17,-1
 174 29 l 2,18,19
 174 49 174 49 194 49 c 2,20,-1
 274 49 l 2,21,22
 345 49 345 49 385.5 75 c 128,-1,23
 426 101 426 101 426 153 c 0,24,25
 426 212 426 212 386 242 c 0,26,27
 356 265 356 265 299 286 c 0,28,29
 292 289 292 289 288 290 c 0,30,31
 244 307 244 307 223.5 332.5 c 128,-1,32
 203 358 203 358 203 396 c 0,33,34
 203 420 203 420 215 440 c 128,-1,35
 227 460 227 460 240 478 c 0,36,37
 290 553 290 553 290 596 c 128,-1,38
 290 639 290 639 262.5 660.5 c 128,-1,39
 235 682 235 682 195 682 c 128,-1,40
 155 682 155 682 132.5 657.5 c 128,-1,41
 110 633 110 633 110 596 c 2,42,-1
 110 14 l 2,43,44
 110 6 110 6 104 0 c 128,-1,45
 98 -6 98 -6 90 -6 c 2,46,-1
 80 -6 l 2,47,48
 72 -6 72 -6 66 0 c 128,-1,49
 60 6 60 6 60 14 c 2,50,-1
 62 560 l 1,51,-1
 62 607 l 2,52,53
 62 672 62 672 104 702 c 128,-1,54
 146 732 146 732 199 732 c 128,-1,55
 252 732 252 732 298 701 c 128,-1,56
 344 670 344 670 344 598 c 0,0,1
EndSplineSet
EndChar

StartChar: agrave
Encoding: 224 224 162
Width: 504
GlyphClass: 2
Flags: W
LayerCount: 2
Fore
SplineSet
121 459 m 128,-1,1
 169 502 169 502 246 502 c 128,-1,2
 323 502 323 502 370 458.5 c 128,-1,3
 417 415 417 415 417 337 c 2,4,-1
 417 117 l 2,5,6
 417 78 417 78 423.5 63.5 c 128,-1,7
 430 49 430 49 449 44 c 2,8,-1
 460 41 l 1,9,10
 475 38 475 38 475 28 c 2,11,-1
 475 17 l 2,12,13
 475 0 475 0 455 0 c 0,14,15
 406 0 406 0 388 29 c 128,-1,16
 370 58 370 58 370 118 c 2,17,-1
 370 337 l 2,18,19
 370 394 370 394 335 424.5 c 128,-1,20
 300 455 300 455 246 455 c 128,-1,21
 192 455 192 455 156 424.5 c 128,-1,22
 120 394 120 394 120 337 c 2,23,-1
 120 166 l 2,24,25
 120 107 120 107 149.5 77 c 128,-1,26
 179 47 179 47 234.5 47 c 128,-1,27
 290 47 290 47 326 92 c 0,28,29
 333 101 333 101 345.5 101 c 128,-1,30
 358 101 358 101 363 86 c 0,31,32
 366 74 366 74 360 65 c 0,33,34
 317 0 317 0 236.5 0 c 128,-1,35
 156 0 156 0 114.5 43 c 128,-1,36
 73 86 73 86 73 165 c 2,37,-1
 73 337 l 2,38,0
 73 416 73 416 121 459 c 128,-1,1
187 712 m 0,39,40
 187 732 187 732 214 732 c 0,41,42
 228 732 228 732 232.5 727.5 c 128,-1,43
 237 723 237 723 244 714 c 2,44,-1
 351 578 l 2,45,46
 356 572 356 572 356 566.5 c 128,-1,47
 356 561 356 561 351 553.5 c 128,-1,48
 346 546 346 546 330.5 546 c 128,-1,49
 315 546 315 546 301 563 c 2,50,-1
 194 696 l 2,51,52
 187 704 187 704 187 712 c 0,39,40
EndSplineSet
EndChar

StartChar: aacute
Encoding: 225 225 163
Width: 504
GlyphClass: 2
Flags: W
LayerCount: 2
Fore
SplineSet
121 459 m 128,-1,1
 169 502 169 502 246 502 c 128,-1,2
 323 502 323 502 370 458.5 c 128,-1,3
 417 415 417 415 417 337 c 2,4,-1
 417 117 l 2,5,6
 417 78 417 78 423.5 63.5 c 128,-1,7
 430 49 430 49 449 44 c 2,8,-1
 460 41 l 1,9,10
 475 38 475 38 475 28 c 2,11,-1
 475 17 l 2,12,13
 475 0 475 0 455 0 c 0,14,15
 406 0 406 0 388 29 c 128,-1,16
 370 58 370 58 370 118 c 2,17,-1
 370 337 l 2,18,19
 370 394 370 394 335 424.5 c 128,-1,20
 300 455 300 455 246 455 c 128,-1,21
 192 455 192 455 156 424.5 c 128,-1,22
 120 394 120 394 120 337 c 2,23,-1
 120 166 l 2,24,25
 120 107 120 107 149.5 77 c 128,-1,26
 179 47 179 47 234.5 47 c 128,-1,27
 290 47 290 47 326 92 c 0,28,29
 333 101 333 101 345.5 101 c 128,-1,30
 358 101 358 101 363 86 c 0,31,32
 366 74 366 74 360 65 c 0,33,34
 317 0 317 0 236.5 0 c 128,-1,35
 156 0 156 0 114.5 43 c 128,-1,36
 73 86 73 86 73 165 c 2,37,-1
 73 337 l 2,38,0
 73 416 73 416 121 459 c 128,-1,1
311 732 m 0,39,40
 337 732 337 732 337 709 c 0,41,42
 337 704 337 704 330 696 c 2,43,-1
 223 563 l 2,44,45
 209 546 209 546 193.5 546 c 128,-1,46
 178 546 178 546 173 553.5 c 128,-1,47
 168 561 168 561 168 566.5 c 128,-1,48
 168 572 168 572 173 578 c 2,49,-1
 280 714 l 2,50,51
 284 718 284 718 285 720 c 128,-1,52
 286 722 286 722 288.5 724.5 c 128,-1,53
 291 727 291 727 292 727.5 c 128,-1,54
 293 728 293 728 296 730 c 128,-1,55
 299 732 299 732 301 731.5 c 128,-1,56
 303 731 303 731 306 731.5 c 128,-1,57
 309 732 309 732 311 732 c 0,39,40
EndSplineSet
EndChar

StartChar: acircumflex
Encoding: 226 226 164
Width: 504
GlyphClass: 2
Flags: W
LayerCount: 2
Fore
SplineSet
121 459 m 128,-1,1
 169 502 169 502 246 502 c 128,-1,2
 323 502 323 502 370 458.5 c 128,-1,3
 417 415 417 415 417 337 c 2,4,-1
 417 117 l 2,5,6
 417 78 417 78 423.5 63.5 c 128,-1,7
 430 49 430 49 449 44 c 2,8,-1
 460 41 l 1,9,10
 475 38 475 38 475 28 c 2,11,-1
 475 17 l 2,12,13
 475 0 475 0 455 0 c 0,14,15
 406 0 406 0 388 29 c 128,-1,16
 370 58 370 58 370 118 c 2,17,-1
 370 337 l 2,18,19
 370 394 370 394 335 424.5 c 128,-1,20
 300 455 300 455 246 455 c 128,-1,21
 192 455 192 455 156 424.5 c 128,-1,22
 120 394 120 394 120 337 c 2,23,-1
 120 166 l 2,24,25
 120 107 120 107 149.5 77 c 128,-1,26
 179 47 179 47 234.5 47 c 128,-1,27
 290 47 290 47 326 92 c 0,28,29
 333 101 333 101 345.5 101 c 128,-1,30
 358 101 358 101 363 86 c 0,31,32
 366 74 366 74 360 65 c 0,33,34
 317 0 317 0 236.5 0 c 128,-1,35
 156 0 156 0 114.5 43 c 128,-1,36
 73 86 73 86 73 165 c 2,37,-1
 73 337 l 2,38,0
 73 416 73 416 121 459 c 128,-1,1
214 733 m 2,39,40
 228 752 228 752 251 752 c 128,-1,41
 274 752 274 752 288 733 c 2,42,-1
 409 581 l 2,43,44
 414 575 414 575 414 567 c 0,45,46
 414 549 414 549 394 549 c 2,47,-1
 381 549 l 2,48,49
 370 549 370 549 366 555 c 2,50,-1
 253 700 l 1,51,-1
 251 702 l 1,52,-1
 140 555 l 2,53,54
 136 549 136 549 126 549 c 2,55,-1
 113 549 l 2,56,57
 93 549 93 549 93 567 c 0,58,59
 93 573 93 573 98 581 c 2,60,-1
 214 733 l 2,39,40
EndSplineSet
EndChar

StartChar: atilde
Encoding: 227 227 165
Width: 504
GlyphClass: 2
Flags: W
LayerCount: 2
Fore
SplineSet
121 459 m 128,-1,1
 169 502 169 502 246 502 c 128,-1,2
 323 502 323 502 370 458.5 c 128,-1,3
 417 415 417 415 417 337 c 2,4,-1
 417 117 l 2,5,6
 417 78 417 78 423.5 63.5 c 128,-1,7
 430 49 430 49 449 44 c 2,8,-1
 460 41 l 1,9,10
 475 38 475 38 475 28 c 2,11,-1
 475 17 l 2,12,13
 475 0 475 0 455 0 c 0,14,15
 406 0 406 0 388 29 c 128,-1,16
 370 58 370 58 370 118 c 2,17,-1
 370 337 l 2,18,19
 370 394 370 394 335 424.5 c 128,-1,20
 300 455 300 455 246 455 c 128,-1,21
 192 455 192 455 156 424.5 c 128,-1,22
 120 394 120 394 120 337 c 2,23,-1
 120 166 l 2,24,25
 120 107 120 107 149.5 77 c 128,-1,26
 179 47 179 47 234.5 47 c 128,-1,27
 290 47 290 47 326 92 c 0,28,29
 333 101 333 101 345.5 101 c 128,-1,30
 358 101 358 101 363 86 c 0,31,32
 366 74 366 74 360 65 c 0,33,34
 317 0 317 0 236.5 0 c 128,-1,35
 156 0 156 0 114.5 43 c 128,-1,36
 73 86 73 86 73 165 c 2,37,-1
 73 337 l 2,38,0
 73 416 73 416 121 459 c 128,-1,1
387 688 m 2,39,-1
 411 688 l 2,40,41
 424 688 424 688 424 671 c 0,42,43
 424 615 424 615 400 586.5 c 128,-1,44
 376 558 376 558 332 558 c 0,45,46
 308 558 308 558 287 570 c 128,-1,47
 266 582 266 582 241.5 603.5 c 128,-1,48
 217 625 217 625 203 634 c 128,-1,49
 189 643 189 643 170 643 c 128,-1,50
 151 643 151 643 136 626.5 c 128,-1,51
 121 610 121 610 121 574 c 0,52,53
 121 558 121 558 106 558 c 2,54,-1
 91 558 l 2,55,56
 78 558 78 558 78 578 c 0,57,58
 78 630 78 630 103.5 658 c 128,-1,59
 129 686 129 686 173 686 c 0,60,61
 209 686 209 686 254 650 c 0,62,63
 259 646 259 646 272.5 635 c 128,-1,64
 286 624 286 624 291 620 c 0,65,66
 313 602 313 602 330 602 c 0,67,68
 378 602 378 602 378 670 c 0,69,70
 378 673 378 673 378 676 c 0,71,72
 378 688 378 688 387 688 c 2,39,-1
EndSplineSet
EndChar

StartChar: adieresis
Encoding: 228 228 166
Width: 504
GlyphClass: 2
Flags: W
LayerCount: 2
Fore
SplineSet
121 459 m 128,-1,1
 169 502 169 502 246 502 c 128,-1,2
 323 502 323 502 370 458.5 c 128,-1,3
 417 415 417 415 417 337 c 2,4,-1
 417 117 l 2,5,6
 417 78 417 78 423.5 63.5 c 128,-1,7
 430 49 430 49 449 44 c 2,8,-1
 460 41 l 1,9,10
 475 38 475 38 475 28 c 2,11,-1
 475 17 l 2,12,13
 475 0 475 0 455 0 c 0,14,15
 406 0 406 0 388 29 c 128,-1,16
 370 58 370 58 370 118 c 2,17,-1
 370 337 l 2,18,19
 370 394 370 394 335 424.5 c 128,-1,20
 300 455 300 455 246 455 c 128,-1,21
 192 455 192 455 156 424.5 c 128,-1,22
 120 394 120 394 120 337 c 2,23,-1
 120 166 l 2,24,25
 120 107 120 107 149.5 77 c 128,-1,26
 179 47 179 47 234.5 47 c 128,-1,27
 290 47 290 47 326 92 c 0,28,29
 333 101 333 101 345.5 101 c 128,-1,30
 358 101 358 101 363 86 c 0,31,32
 366 74 366 74 360 65 c 0,33,34
 317 0 317 0 236.5 0 c 128,-1,35
 156 0 156 0 114.5 43 c 128,-1,36
 73 86 73 86 73 165 c 2,37,-1
 73 337 l 2,38,0
 73 416 73 416 121 459 c 128,-1,1
293 659 m 128,-1,40
 302 667 302 667 334.5 667 c 128,-1,41
 367 667 367 667 377 658.5 c 128,-1,42
 387 650 387 650 387 622 c 2,43,-1
 387 610 l 2,44,45
 387 580 387 580 377 571.5 c 128,-1,46
 367 563 367 563 334.5 563 c 128,-1,47
 302 563 302 563 293 571.5 c 128,-1,48
 284 580 284 580 284 610 c 2,49,-1
 284 622 l 2,50,39
 284 651 284 651 293 659 c 128,-1,40
127 659 m 128,-1,52
 136 667 136 667 168.5 667 c 128,-1,53
 201 667 201 667 211 658.5 c 128,-1,54
 221 650 221 650 221 622 c 2,55,-1
 221 610 l 2,56,57
 221 580 221 580 211 571.5 c 128,-1,58
 201 563 201 563 168.5 563 c 128,-1,59
 136 563 136 563 127 571 c 128,-1,60
 118 579 118 579 118 610 c 2,61,-1
 118 622 l 2,62,51
 118 651 118 651 127 659 c 128,-1,52
185 632 m 128,-1,64
 181 635 181 635 169 635 c 128,-1,65
 157 635 157 635 153.5 632.5 c 128,-1,66
 150 630 150 630 150 620 c 2,67,-1
 150 610 l 2,68,69
 150 600 150 600 153.5 597.5 c 128,-1,70
 157 595 157 595 169.5 595 c 128,-1,71
 182 595 182 595 185.5 597.5 c 128,-1,72
 189 600 189 600 189 610 c 2,73,-1
 189 620 l 2,74,63
 189 629 189 629 185 632 c 128,-1,64
351 632 m 128,-1,76
 347 635 347 635 335 635 c 128,-1,77
 323 635 323 635 319.5 632.5 c 128,-1,78
 316 630 316 630 316 620 c 2,79,-1
 316 610 l 2,80,81
 316 600 316 600 319.5 597.5 c 128,-1,82
 323 595 323 595 335.5 595 c 128,-1,83
 348 595 348 595 351.5 597.5 c 128,-1,84
 355 600 355 600 355 610 c 2,85,-1
 355 620 l 2,86,75
 355 629 355 629 351 632 c 128,-1,76
EndSplineSet
EndChar

StartChar: aring
Encoding: 229 229 167
Width: 504
GlyphClass: 2
Flags: W
LayerCount: 2
Fore
SplineSet
121 459 m 128,-1,1
 169 502 169 502 246 502 c 128,-1,2
 323 502 323 502 370 458.5 c 128,-1,3
 417 415 417 415 417 337 c 2,4,-1
 417 117 l 2,5,6
 417 78 417 78 423.5 63.5 c 128,-1,7
 430 49 430 49 449 44 c 2,8,-1
 460 41 l 1,9,10
 475 38 475 38 475 28 c 2,11,-1
 475 17 l 2,12,13
 475 0 475 0 455 0 c 0,14,15
 406 0 406 0 388 29 c 128,-1,16
 370 58 370 58 370 118 c 2,17,-1
 370 337 l 2,18,19
 370 394 370 394 335 424.5 c 128,-1,20
 300 455 300 455 246 455 c 128,-1,21
 192 455 192 455 156 424.5 c 128,-1,22
 120 394 120 394 120 337 c 2,23,-1
 120 166 l 2,24,25
 120 107 120 107 149.5 77 c 128,-1,26
 179 47 179 47 234.5 47 c 128,-1,27
 290 47 290 47 326 92 c 0,28,29
 333 101 333 101 345.5 101 c 128,-1,30
 358 101 358 101 363 86 c 0,31,32
 366 74 366 74 360 65 c 0,33,34
 317 0 317 0 236.5 0 c 128,-1,35
 156 0 156 0 114.5 43 c 128,-1,36
 73 86 73 86 73 165 c 2,37,-1
 73 337 l 2,38,0
 73 416 73 416 121 459 c 128,-1,1
180 711 m 128,-1,40
 206 733 206 733 251.5 733 c 128,-1,41
 297 733 297 733 321.5 711 c 128,-1,42
 346 689 346 689 346 648 c 2,43,-1
 346 586 l 2,44,45
 346 545 346 545 321.5 523 c 128,-1,46
 297 501 297 501 251.5 501 c 128,-1,47
 206 501 206 501 180 523 c 128,-1,48
 154 545 154 545 154 586 c 2,49,-1
 154 648 l 2,50,39
 154 689 154 689 180 711 c 128,-1,40
289 677 m 128,-1,52
 274 690 274 690 251 690 c 128,-1,53
 228 690 228 690 212 677.5 c 128,-1,54
 196 665 196 665 196 641 c 2,55,-1
 196 593 l 2,56,57
 196 569 196 569 212 556.5 c 128,-1,58
 228 544 228 544 251 544 c 128,-1,59
 274 544 274 544 289 557 c 128,-1,60
 304 570 304 570 304 593 c 2,61,-1
 304 641 l 2,62,51
 304 664 304 664 289 677 c 128,-1,52
EndSplineSet
EndChar

StartChar: ae
Encoding: 230 230 168
Width: 761
GlyphClass: 2
Flags: W
LayerCount: 2
Fore
SplineSet
234 502 m 0,0,1
 337 502 337 502 380 429 c 1,2,3
 426 502 426 502 531 502 c 0,4,5
 607 502 607 502 654 458.5 c 128,-1,6
 701 415 701 415 701 337 c 2,7,-1
 701 277 l 2,8,9
 701 234 701 234 660 234 c 2,10,-1
 444 234 l 2,11,12
 435 234 435 234 429.5 240 c 128,-1,13
 424 246 424 246 424 254 c 2,14,-1
 424 262 l 2,15,16
 424 270 424 270 429.5 276 c 128,-1,17
 435 282 435 282 444 282 c 2,18,-1
 654 282 l 1,19,-1
 654 336 l 2,20,21
 654 393 654 393 619 423.5 c 128,-1,22
 584 454 584 454 530 454 c 128,-1,23
 476 454 476 454 440.5 423.5 c 128,-1,24
 405 393 405 393 405 336 c 2,25,-1
 405 164 l 2,26,27
 405 107 405 107 440.5 76.5 c 128,-1,28
 476 46 476 46 529.5 46 c 128,-1,29
 583 46 583 46 618.5 75.5 c 128,-1,30
 654 105 654 105 654 160 c 0,31,32
 654 168 654 168 659.5 174 c 128,-1,33
 665 180 665 180 673 180 c 2,34,-1
 681 180 l 2,35,36
 690 180 690 180 695.5 174 c 128,-1,37
 701 168 701 168 701 160 c 0,38,39
 700 83 700 83 653 40.5 c 128,-1,40
 606 -2 606 -2 530 -2 c 128,-1,41
 454 -2 454 -2 405.5 41.5 c 128,-1,42
 357 85 357 85 357 163 c 2,43,-1
 357 337 l 2,44,45
 357 394 357 394 322 424.5 c 128,-1,46
 287 455 287 455 233 455 c 128,-1,47
 179 455 179 455 143 424.5 c 128,-1,48
 107 394 107 394 107 337 c 2,49,-1
 107 166 l 2,50,51
 107 107 107 107 136.5 77 c 128,-1,52
 166 47 166 47 221.5 47 c 128,-1,53
 277 47 277 47 313 92 c 0,54,55
 320 101 320 101 332.5 101 c 128,-1,56
 345 101 345 101 350 86 c 0,57,58
 353 74 353 74 347 65 c 0,59,60
 304 0 304 0 223.5 0 c 128,-1,61
 143 0 143 0 101.5 43 c 128,-1,62
 60 86 60 86 60 165 c 2,63,-1
 60 337 l 2,64,65
 60 416 60 416 108 459 c 128,-1,66
 156 502 156 502 234 502 c 0,0,1
EndSplineSet
EndChar

StartChar: ccedilla
Encoding: 231 231 169
Width: 505
GlyphClass: 2
Flags: W
LayerCount: 2
Fore
SplineSet
118 459 m 128,-1,1
 166 502 166 502 243 502 c 128,-1,2
 320 502 320 502 367 458.5 c 128,-1,3
 414 415 414 415 414 337 c 0,4,5
 414 318 414 318 394 318 c 2,6,-1
 386 318 l 2,7,8
 367 318 367 318 367 337 c 0,9,10
 367 394 367 394 332 424 c 128,-1,11
 297 454 297 454 243 454 c 128,-1,12
 189 454 189 454 153.5 423.5 c 128,-1,13
 118 393 118 393 118 336 c 2,14,-1
 118 164 l 2,15,16
 118 107 118 107 153.5 76.5 c 128,-1,17
 189 46 189 46 243 46 c 128,-1,18
 297 46 297 46 331.5 75.5 c 128,-1,19
 366 105 366 105 367 160 c 0,20,21
 367 168 367 168 372.5 174 c 128,-1,22
 378 180 378 180 386 180 c 2,23,-1
 394 180 l 2,24,25
 403 180 403 180 408.5 174 c 128,-1,26
 414 168 414 168 414 160 c 0,27,28
 412 84 412 84 365 41 c 128,-1,29
 318 -2 318 -2 242.5 -2 c 128,-1,30
 167 -2 167 -2 118.5 41.5 c 128,-1,31
 70 85 70 85 70 163 c 2,32,-1
 70 337 l 2,33,0
 70 416 70 416 118 459 c 128,-1,1
337 -142 m 2,34,-1
 337 -184 l 2,35,36
 337 -224 337 -224 309.5 -246.5 c 128,-1,37
 282 -269 282 -269 249.5 -269 c 128,-1,38
 217 -269 217 -269 191.5 -258.5 c 128,-1,39
 166 -248 166 -248 154 -234 c 1,40,-1
 177 -196 l 1,41,42
 188 -211 188 -211 207.5 -218.5 c 128,-1,43
 227 -226 227 -226 245.5 -226 c 128,-1,44
 264 -226 264 -226 279.5 -213.5 c 128,-1,45
 295 -201 295 -201 295 -177 c 2,46,-1
 295 -149 l 2,47,48
 295 -126 295 -126 279 -113 c 128,-1,49
 263 -100 263 -100 235 -100 c 128,-1,50
 207 -100 207 -100 198 -103 c 1,51,-1
 198 -102 l 1,52,-1
 236 11 l 1,53,-1
 278 10 l 1,54,-1
 254 -57 l 1,55,56
 292 -60 292 -60 314.5 -82 c 128,-1,57
 337 -104 337 -104 337 -142 c 2,34,-1
EndSplineSet
EndChar

StartChar: egrave
Encoding: 232 232 170
Width: 490
GlyphClass: 2
Flags: W
LayerCount: 2
Fore
SplineSet
118 459 m 128,-1,1
 166 502 166 502 243 502 c 128,-1,2
 320 502 320 502 367 458.5 c 128,-1,3
 414 415 414 415 414 337 c 2,4,-1
 414 277 l 2,5,6
 414 234 414 234 373 234 c 2,7,-1
 157 234 l 2,8,9
 148 234 148 234 142.5 240 c 128,-1,10
 137 246 137 246 137 254 c 2,11,-1
 137 262 l 2,12,13
 137 270 137 270 142.5 276 c 128,-1,14
 148 282 148 282 157 282 c 2,15,-1
 367 282 l 1,16,-1
 367 336 l 2,17,18
 367 393 367 393 332 423.5 c 128,-1,19
 297 454 297 454 243 454 c 128,-1,20
 189 454 189 454 153.5 423.5 c 128,-1,21
 118 393 118 393 118 336 c 2,22,-1
 118 164 l 2,23,24
 118 107 118 107 153.5 76.5 c 128,-1,25
 189 46 189 46 242.5 46 c 128,-1,26
 296 46 296 46 331.5 75.5 c 128,-1,27
 367 105 367 105 367 160 c 0,28,29
 367 168 367 168 372.5 174 c 128,-1,30
 378 180 378 180 386 180 c 2,31,-1
 394 180 l 2,32,33
 403 180 403 180 408.5 174 c 128,-1,34
 414 168 414 168 414 160 c 0,35,36
 413 83 413 83 366 40.5 c 128,-1,37
 319 -2 319 -2 243 -2 c 128,-1,38
 167 -2 167 -2 118.5 41.5 c 128,-1,39
 70 85 70 85 70 163 c 2,40,-1
 70 337 l 2,41,0
 70 416 70 416 118 459 c 128,-1,1
180 712 m 0,42,43
 180 732 180 732 207 732 c 0,44,45
 221 732 221 732 225.5 727.5 c 128,-1,46
 230 723 230 723 237 714 c 2,47,-1
 344 578 l 2,48,49
 349 572 349 572 349 566.5 c 128,-1,50
 349 561 349 561 344 553.5 c 128,-1,51
 339 546 339 546 323.5 546 c 128,-1,52
 308 546 308 546 294 563 c 2,53,-1
 187 696 l 2,54,55
 180 704 180 704 180 712 c 0,42,43
EndSplineSet
EndChar

StartChar: eacute
Encoding: 233 233 171
Width: 490
GlyphClass: 2
Flags: W
LayerCount: 2
Fore
SplineSet
118 459 m 128,-1,1
 166 502 166 502 243 502 c 128,-1,2
 320 502 320 502 367 458.5 c 128,-1,3
 414 415 414 415 414 337 c 2,4,-1
 414 277 l 2,5,6
 414 234 414 234 373 234 c 2,7,-1
 157 234 l 2,8,9
 148 234 148 234 142.5 240 c 128,-1,10
 137 246 137 246 137 254 c 2,11,-1
 137 262 l 2,12,13
 137 270 137 270 142.5 276 c 128,-1,14
 148 282 148 282 157 282 c 2,15,-1
 367 282 l 1,16,-1
 367 336 l 2,17,18
 367 393 367 393 332 423.5 c 128,-1,19
 297 454 297 454 243 454 c 128,-1,20
 189 454 189 454 153.5 423.5 c 128,-1,21
 118 393 118 393 118 336 c 2,22,-1
 118 164 l 2,23,24
 118 107 118 107 153.5 76.5 c 128,-1,25
 189 46 189 46 242.5 46 c 128,-1,26
 296 46 296 46 331.5 75.5 c 128,-1,27
 367 105 367 105 367 160 c 0,28,29
 367 168 367 168 372.5 174 c 128,-1,30
 378 180 378 180 386 180 c 2,31,-1
 394 180 l 2,32,33
 403 180 403 180 408.5 174 c 128,-1,34
 414 168 414 168 414 160 c 0,35,36
 413 83 413 83 366 40.5 c 128,-1,37
 319 -2 319 -2 243 -2 c 128,-1,38
 167 -2 167 -2 118.5 41.5 c 128,-1,39
 70 85 70 85 70 163 c 2,40,-1
 70 337 l 2,41,0
 70 416 70 416 118 459 c 128,-1,1
304 732 m 0,42,43
 330 732 330 732 330 709 c 0,44,45
 330 704 330 704 323 696 c 2,46,-1
 216 563 l 2,47,48
 202 546 202 546 186.5 546 c 128,-1,49
 171 546 171 546 166 553.5 c 128,-1,50
 161 561 161 561 161 566.5 c 128,-1,51
 161 572 161 572 166 578 c 2,52,-1
 273 714 l 2,53,54
 277 718 277 718 278 720 c 128,-1,55
 279 722 279 722 281.5 724.5 c 128,-1,56
 284 727 284 727 285 727.5 c 128,-1,57
 286 728 286 728 289 730 c 128,-1,58
 292 732 292 732 294 731.5 c 128,-1,59
 296 731 296 731 299 731.5 c 128,-1,60
 302 732 302 732 304 732 c 0,42,43
EndSplineSet
EndChar

